<svg width="427" height="262" viewBox="0 0 427 262" fill="none" xmlns="http://www.w3.org/2000/svg">
<path d="M414.353 232.248H20.2003C13.258 232.248 7.63013 226.677 7.63013 219.805V43.4929C7.63013 36.6205 13.258 31.0493 20.2003 31.0493H414.353C421.296 31.0493 426.923 36.6205 426.923 43.4929V219.805C426.923 226.677 421.296 232.248 414.353 232.248Z" fill="#DAD9FF"/>
<path d="M1.70703 150.154L0 149.122C0.0478516 149.043 1.20508 147.175 3.40527 144.104L5.03613 145.249C2.88086 148.258 1.71875 150.136 1.70703 150.154ZM8.58887 140.494L7.00488 139.285C8.22656 137.714 9.49609 136.14 10.7783 134.608L12.3193 135.871C11.0518 137.386 9.79688 138.94 8.58887 140.494ZM16.2119 131.385L14.7197 130.068C16.0693 128.569 17.4512 127.091 18.8262 125.675L20.2676 127.046C18.9102 128.444 17.5459 129.905 16.2119 131.385ZM204.092 126.521C203.479 126.52 202.87 126.515 202.263 126.505L202.296 124.525C204.256 124.556 206.253 124.537 208.235 124.46L208.314 126.437C206.91 126.493 205.489 126.521 204.092 126.521ZM196.217 126.236C194.221 126.092 192.196 125.891 190.198 125.641L190.45 123.676C192.413 123.923 194.402 124.12 196.363 124.262L196.217 126.236ZM214.355 126.033L214.164 124.063C216.112 123.878 218.097 123.634 220.062 123.339L220.362 125.296C218.361 125.596 216.34 125.845 214.355 126.033ZM184.221 124.735C182.282 124.392 180.29 123.99 178.298 123.54L178.743 121.611C180.704 122.052 182.665 122.449 184.572 122.786L184.221 124.735ZM226.317 124.235L225.911 122.296C227.821 121.904 229.77 121.451 231.7 120.951L232.206 122.867C230.242 123.375 228.261 123.835 226.317 124.235ZM24.4844 122.863L23.0977 121.438C24.5566 120.045 26.0518 118.678 27.54 117.372L28.8662 118.855C27.3984 120.142 25.9238 121.49 24.4844 122.863ZM172.44 122.083C170.563 121.575 168.615 121.007 166.649 120.395L167.249 118.506C169.191 119.112 171.115 119.672 172.968 120.173L172.44 122.083ZM238.015 121.21L237.415 119.321C239.283 118.74 241.179 118.101 243.049 117.425L243.736 119.285C241.837 119.972 239.912 120.62 238.015 121.21ZM160.928 118.508C159.102 117.874 157.197 117.185 155.269 116.458L155.979 114.608C157.892 115.328 159.779 116.012 161.59 116.641L160.928 118.508ZM249.363 117.111L248.598 115.281C250.408 114.538 252.244 113.741 254.054 112.914L254.894 114.711C253.06 115.549 251.199 116.357 249.363 117.111ZM33.415 115.04L32.1572 113.501C33.7383 112.234 35.3525 111.005 36.9541 109.845L38.1338 111.444C36.5586 112.583 34.9707 113.794 33.415 115.04ZM149.665 114.279C147.796 113.533 145.943 112.773 144.104 112.008L144.88 110.183C146.709 110.944 148.554 111.7 150.413 112.443L149.665 114.279ZM260.323 112.104L259.417 110.339C261.167 109.459 262.939 108.529 264.686 107.575L265.652 109.307C263.886 110.273 262.093 111.213 260.323 112.104ZM138.576 109.684L133.06 107.347L133.845 105.525L139.361 107.863L138.576 109.684ZM43.0273 108.09L41.9336 106.433C43.6436 105.328 45.3809 104.273 47.0996 103.298L48.0947 105.015C46.4092 105.972 44.7041 107.006 43.0273 108.09ZM270.884 106.34L269.862 104.639C271.538 103.654 273.249 102.613 274.948 101.546L276.019 103.219C274.304 104.296 272.575 105.345 270.884 106.34ZM127.54 105.037C125.684 104.272 123.837 103.525 121.999 102.804L122.735 100.963C124.585 101.688 126.441 102.439 128.31 103.21L127.54 105.037ZM53.335 102.25L52.4521 100.473C54.2871 99.5789 56.1475 98.7485 57.9824 98.0041L58.7402 99.8371C56.9482 100.563 55.1299 101.375 53.335 102.25ZM116.418 100.699C114.438 99.9859 112.594 99.3576 110.781 98.7814L111.393 96.8963C113.23 97.4811 115.098 98.1163 117.102 98.8394L116.418 100.699ZM281.062 99.954L279.945 98.3125C281.585 97.2192 283.237 96.0871 284.857 94.9483L286.016 96.5628C284.382 97.7112 282.716 98.852 281.062 99.954ZM64.3008 97.8166L63.6836 95.9334C65.6201 95.3109 67.5879 94.7627 69.5312 94.3045L69.9941 96.2302C68.1035 96.6768 66.1875 97.2105 64.3008 97.8166ZM105.077 97.1186C103.103 96.5976 101.159 96.149 99.2998 95.7826L99.6885 93.8414C101.59 94.2146 103.576 94.6738 105.591 95.2055L105.077 97.1186ZM75.793 95.1175L75.4961 93.1589C77.5059 92.8602 79.541 92.6485 81.543 92.5296L81.6621 94.5056C79.7197 94.6216 77.7451 94.8275 75.793 95.1175ZM93.457 94.8555C93.0498 94.8082 92.6426 94.7627 92.2344 94.7221C90.6846 94.5645 89.1152 94.4621 87.5684 94.4166L87.6289 92.4368C89.2227 92.4841 90.8408 92.5905 92.4375 92.7519C92.8555 92.7945 93.2744 92.8399 93.6914 92.8892L93.457 94.8555ZM290.885 93.0526L289.688 91.4652C291.259 90.3051 292.842 89.1083 294.438 87.8748L295.669 89.4351C294.061 90.6783 292.466 91.8828 290.885 93.0526ZM300.375 85.7219L299.113 84.1867C300.636 82.96 302.17 81.7003 303.714 80.4059L305.007 81.9178C303.451 83.22 301.907 84.4874 300.375 85.7219ZM309.57 78.0596L308.275 76.5496C309.828 75.2465 311.366 73.9743 312.893 72.733L314.162 74.2623C312.644 75.4978 311.113 76.7623 309.57 78.0596ZM318.812 70.5375L317.565 68.9889C319.161 67.7321 320.741 66.5092 322.304 65.3211L323.522 66.8911C321.968 68.0734 320.397 69.2885 318.812 70.5375ZM328.299 63.3238L327.107 61.7326C328.749 60.529 330.372 59.3632 331.976 58.2321L333.136 59.8446C331.542 60.9679 329.929 62.128 328.299 63.3238ZM338.039 56.4582L336.91 54.8244C338.601 53.6798 340.269 52.5768 341.915 51.5134L343.009 53.1723C341.374 54.2279 339.718 55.3232 338.039 56.4582ZM348.045 49.9859L346.988 48.3058C348.703 47.2482 350.435 46.207 352.135 45.2122L353.152 46.9156C351.466 47.9036 349.747 48.937 348.045 49.9859ZM358.33 43.9671L357.354 42.2386C359.091 41.2767 360.873 40.3197 362.648 39.3945L363.58 41.1462C361.819 42.0636 360.053 43.0129 358.33 43.9671ZM368.901 38.4693L368.021 36.6925C369.854 35.8021 371.688 34.9437 373.472 34.1423L374.299 35.9443C372.532 36.7389 370.717 37.5887 368.901 38.4693ZM379.768 33.5874L379 31.7603C380.861 30.9927 382.748 30.2531 384.609 29.561L385.312 31.4151C383.474 32.0986 381.607 32.8295 379.768 33.5874ZM390.93 29.4488L390.301 27.5695C392.251 26.9295 394.194 26.3379 396.075 25.8101L396.62 27.7145C394.768 28.2346 392.853 28.8176 390.93 29.4488ZM402.382 26.2461L401.935 24.3165C403.976 23.8525 405.976 23.459 407.88 23.1477L408.206 25.1005C406.343 25.405 404.384 25.7907 402.382 26.2461ZM414.069 24.3851L413.923 22.4111C415.05 22.3289 415.833 22.3096 416.291 22.3086L416.509 22.3115L416.446 24.2904L416.294 24.2884C415.948 24.2894 415.195 24.3029 414.069 24.3851Z" fill="white"/>
<path d="M280.415 42.7779C281.155 43.3844 282.04 43.7921 282.986 43.9616C283.858 43.9975 284.727 43.844 285.533 43.5118L297.849 39.4517C299.773 40.9441 300.215 43.6492 298.866 45.6662C297.663 46.9925 296.09 47.9359 294.346 48.3769L285.892 51.3835C281.939 53.2218 277.359 53.1913 273.432 51.3007C270.909 50.4721 268.146 49.4422 266.939 47.0985C265.731 44.7547 266.604 41.6416 266.245 38.8954C266.006 37.1079 265.205 35.3442 265.253 33.5923C265.253 32.0535 266.52 29.7334 268.386 30.0412C269.988 30.3134 271.052 33.0715 271.901 34.2315C274.273 37.5009 277.146 40.3843 280.415 42.7779Z" fill="white"/>
<path d="M299.451 38.7888C299.591 38.4639 299.79 38.1671 300.037 37.9128C300.294 37.6575 300.68 37.5783 301.018 37.7116C301.35 37.913 301.532 38.2879 301.484 38.6704C301.466 38.7987 301.496 38.9292 301.568 39.0374C301.688 39.0966 301.83 39.0966 301.951 39.0374C303.362 38.7769 304.773 38.5639 306.195 38.4218C306.311 38.41 306.427 38.41 306.542 38.4218C307.035 38.5706 307.313 39.0865 307.162 39.5743C307.159 39.5848 307.156 39.5952 307.152 39.6055C306.998 40.0696 306.767 40.5054 306.471 40.8958C305.741 42.0795 305.478 43.6183 304.318 44.3759C303.597 44.7935 302.756 44.9641 301.927 44.8612C301.114 44.8612 300.312 44.6718 299.535 44.7073C298.997 44.8252 298.435 44.767 297.933 44.5416C297.562 44.2624 297.355 43.8186 297.383 43.3579C297.467 42.6315 297.73 41.9367 298.148 41.3338C298.555 40.5052 298.973 39.6529 299.451 38.7888Z" fill="#976454"/>
<path d="M265.026 130.621C269.749 129.568 268.828 136.196 270.072 138.647C270.848 139.903 271.83 141.023 272.977 141.961C274.14 142.906 274.9 144.25 275.106 145.725C275.128 146 275.07 146.275 274.938 146.518C274.708 146.814 274.376 147.016 274.006 147.086C271.308 147.856 268.415 147.572 265.922 146.293C264.762 145.738 263.796 144.851 263.148 143.748C262.638 142.555 262.393 141.267 262.431 139.972C262.383 137.214 261.092 131.497 265.026 130.621Z" fill="#976454"/>
<path d="M269.199 144.234C269.199 144.234 282.639 144.802 276.947 148.969C271.256 153.135 262.766 147.951 261.941 146.992C261.116 146.033 261.785 144.411 261.785 144.411L269.199 144.234Z" fill="#36134A"/>
<path d="M262.527 146.092C263.722 147.536 270.036 149.478 272.822 149.288C275.608 149.099 278.119 147.797 277.844 146.009C277.569 144.222 272.643 140.091 271.71 140.091C270.777 140.091 270.048 142.222 268.123 142.659C266.429 142.935 264.711 142.326 263.579 141.05C263.241 140.557 262.585 140.389 262.048 140.659C261.305 142.439 261.483 144.466 262.527 146.092Z" fill="white"/>
<path d="M248.835 133.237C253.618 132.16 252.638 138.777 253.881 141.239C254.655 142.501 255.642 143.622 256.799 144.553C257.957 145.5 258.713 146.844 258.915 148.318C258.945 148.593 258.886 148.87 258.748 149.111C258.52 149.407 258.187 149.607 257.815 149.667C255.12 150.447 252.224 150.167 249.732 148.886C248.572 148.33 247.606 147.444 246.958 146.341C246.445 145.149 246.204 143.86 246.252 142.565C246.145 139.771 244.901 134.066 248.835 133.237Z" fill="#976454"/>
<path d="M253.02 146.814C253.02 146.814 266.449 147.371 260.757 151.549C255.065 155.728 246.575 150.531 245.75 149.584C244.925 148.637 245.595 146.992 245.595 146.992L253.02 146.814Z" fill="#36134A"/>
<path d="M246.336 148.625C247.532 150.081 253.845 152.011 256.631 151.821C259.417 151.632 261.929 150.33 261.654 148.543C261.379 146.755 256.452 142.624 255.531 142.624C254.611 142.624 253.857 144.755 251.944 145.193C250.25 145.468 248.533 144.86 247.4 143.583C247.063 143.096 246.415 142.929 245.881 143.192C245.131 144.969 245.301 146.995 246.336 148.625Z" fill="white"/>
<path d="M261.008 72.9387L254.694 138.67L245.607 137.558C242.019 121.518 242.892 73.5306 242.892 73.5306L261.008 72.9387Z" fill="#36134A"/>
<path d="M254.694 71.1633L261.008 136.895L270.12 135.782C275.321 94.1865 271.04 68.3105 271.04 68.3105L254.694 71.1633Z" fill="#36134A"/>
<path d="M270.239 47.3824C270.347 46.1987 270.67 45.0149 270.801 43.7602C271.1 41.2797 271.052 38.7702 270.658 36.3028C270.224 33.6752 269.419 31.121 268.266 28.7152C267.214 26.6201 265.313 25.7323 263.184 24.7024C261.399 23.7429 259.462 23.0904 257.457 22.773C256.042 22.644 254.615 22.7238 253.224 23.0097C248.943 23.8147 243.287 26.0045 240.357 29.3544C238.157 31.8639 237.966 35.4624 237.834 38.8241C237.739 43.4169 237.834 48.0058 238.121 52.5907C238.121 53.2654 238.205 53.9283 238.253 54.5912C238.492 59.6781 239.258 64.7273 240.537 69.6598C240.991 71.1868 241.469 72.7138 242.928 73.5306C246.288 75.46 251.418 74.4065 255.041 73.8975C259.824 73.2228 264.787 72.5244 269.043 70.2162C269.939 69.8376 270.662 69.1468 271.076 68.2749C271.284 67.1938 271.142 66.0751 270.67 65.0789C269.223 60.344 270.347 55.4434 270.347 50.6494C270.347 49.7853 270.239 48.8975 270.239 48.0216C270.221 47.8089 270.221 47.5951 270.239 47.3824Z" fill="white"/>
<path opacity="0.1" d="M256.799 69.4586C256.835 68.9503 256.705 68.4438 256.428 68.0145C255.89 67.3516 254.85 67.4936 254.037 67.7067L248.62 69.0325C246.587 69.5296 243.442 71.5183 242.916 73.5306C240.835 72.0864 240.297 69.6598 239.915 67.174C239.532 64.6882 239.508 59.8468 239.054 57.3729C241.679 59.243 244.802 60.3053 248.034 60.4269C251.107 60.4979 254.969 60.4269 256.081 57.1006C257.361 53.2654 257.815 49.2408 258.664 45.2635C258.686 45.0735 258.775 44.8973 258.915 44.7664C259.056 44.6733 259.226 44.6354 259.394 44.6598L271.076 44.79C271.257 44.774 271.439 44.8067 271.602 44.8847C271.949 45.086 271.949 45.5713 271.889 45.9501C271.45 48.5635 270.126 50.9512 268.135 52.7209C267.226 53.3158 266.593 54.2443 266.377 55.3014C266.162 56.7455 266.221 58.2844 266.066 59.7403C265.813 62.8245 265.133 65.8596 264.045 68.7602C262.383 72.9387 257.11 76.1584 256.799 69.4586Z" fill="#020202"/>
<path d="M259.979 72.7849H277.366L279.518 46.033H262.132L259.979 72.7849Z" fill="#FFA23C"/>
<path d="M260.984 16.1681C260.975 14.9103 260.899 13.6538 260.757 12.4039C260.625 11.2201 260.458 10.2021 260.243 9.12497C260.219 8.47266 259.909 7.86304 259.394 7.45594C257.688 6.42709 255.723 5.89385 253.726 5.91711C252.199 5.82061 250.7 6.35656 249.588 7.39675C248.882 8.24615 248.464 9.29383 248.393 10.3915C248.082 13.1496 248.811 15.8958 249.218 18.6775C249.532 20.8049 249.645 22.9569 249.553 25.1051C250.605 25.7771 251.808 26.1835 253.056 26.2888C253.642 26.28 254.223 26.1802 254.778 25.9929C255.253 25.9842 255.632 25.5956 255.623 25.125C255.621 25.0164 255.598 24.9092 255.555 24.8092C255.543 24.5844 255.543 24.3592 255.555 24.1344C255.46 22.8763 255.484 21.6121 255.627 20.3584C255.626 20.2538 255.665 20.1527 255.735 20.0743C255.821 20.0506 255.912 20.0506 255.998 20.0743H256.356C256.989 20.1335 257.625 20.1335 258.258 20.0743C259.014 19.9937 259.715 19.6447 260.231 19.0918C260.861 18.2536 261.132 17.2028 260.984 16.1681Z" fill="#976454"/>
<path d="M258.413 8.10689C258.868 8.18975 259.25 8.34363 259.609 8.10689C260.012 7.76127 260.366 7.36306 260.661 6.92318C261.366 5.98665 261.713 4.83359 261.642 3.66797C261.631 3.14275 261.474 2.63071 261.187 2.18833C260.866 1.80191 260.456 1.49745 259.992 1.30055C259.077 0.862922 258.064 0.6633 257.05 0.720526C255.573 0.911005 254.195 1.56188 253.116 2.57896C252.889 2.81815 252.611 3.00418 252.303 3.12347C252.019 3.18254 251.726 3.18254 251.442 3.12347C249.566 2.96302 247.7 3.53191 246.24 4.70963C245.491 5.51083 244.692 6.26587 243.849 6.97053C242.916 7.5979 242.151 7.84647 241.696 8.63957C241.323 9.41418 241.425 10.3312 241.96 11.007C242.519 11.6336 243.279 12.0513 244.112 12.1907C243.73 13.1713 244.222 14.2727 245.212 14.6528H245.308C245.648 14.6999 245.976 14.8082 246.276 14.9724C246.48 15.1263 246.575 15.3749 246.778 15.5406C247.269 15.9312 247.902 16.0733 248.106 16.7243C248.164 17.0127 248.192 17.3062 248.189 17.6003C248.221 18.0387 248.397 18.4547 248.692 18.784C248.883 18.9852 249.218 19.506 249.505 19.5534C249.792 19.6007 250.031 19.2811 250.127 18.9971C250.472 17.749 250.379 16.422 249.864 15.2328C249.504 14.652 249.291 13.9944 249.242 13.3152C249.313 12.6524 250.234 12.1315 250.677 12.5103C251.119 12.8891 251.203 13.8716 251.741 13.694C251.054 11.7335 251.925 9.57122 253.786 8.61589C254.781 8.31483 255.818 8.17101 256.859 8.18975C257.355 8.09302 257.859 8.03758 258.365 8.02403L258.413 8.10689Z" fill="#473F47"/>
<path d="M256.404 20.0387C254.933 19.7608 253.494 19.3323 252.112 18.7603C251.859 21.1421 253.325 23.3739 255.627 24.1106C255.541 22.852 255.569 21.5883 255.711 20.3346C255.708 20.2296 255.746 20.1277 255.818 20.0505C255.902 20.015 255.997 20.015 256.081 20.0505H256.404V20.0387Z" fill="#7B4A2B"/>
<path d="M234.881 45.1098L232.812 54.0824C232.039 56.2771 232.783 58.7147 234.653 60.1193C235.828 61.6686 237.309 62.9653 239.006 63.9308C240.187 64.4488 241.441 64.7841 242.725 64.9252C246.107 65.4356 249.53 65.622 252.948 65.4815C253.22 65.49 253.49 65.4374 253.738 65.3276C253.985 65.1778 254.187 64.9653 254.324 64.7121C255.528 62.9257 256.561 61.0314 257.409 59.0539C254.666 57.2234 251.652 55.8257 248.476 54.911C247.836 54.7909 247.241 54.5003 246.754 54.0705C246.429 53.6749 246.214 53.2013 246.133 52.6974C244.793 46.9564 247.902 40.5644 245.403 35.214C243.992 32.1718 240.967 28.893 238.743 32.9768C236.722 36.6936 235.825 41.026 234.881 45.1098Z" fill="white"/>
<path d="M259.776 59.1249C260.151 58.8407 260.551 58.5911 260.972 58.3791C261.389 58.1539 261.894 58.1539 262.311 58.3791C262.503 58.5094 262.646 58.7224 262.861 58.7934C263.011 58.8291 263.166 58.8291 263.316 58.7934L266.078 58.5212C266.52 58.4127 266.988 58.5132 267.345 58.7934C267.704 59.2077 267.489 59.8351 267.25 60.3086C266.53 61.7358 265.731 63.1228 264.858 64.4634C264.693 64.7333 264.492 64.9801 264.26 65.1973C263.941 65.4344 263.574 65.6001 263.184 65.6827C261.759 66.0095 260.272 65.9481 258.879 65.5051C257.497 65.0572 256.208 64.3632 255.077 63.4573C254.905 63.3462 254.759 63.2011 254.646 63.0311C254.536 62.8303 254.471 62.6082 254.455 62.3801C254.324 61.3266 254.658 59.6102 256.045 59.6931C257.318 59.9411 258.638 59.7401 259.776 59.1249Z" fill="#976454"/>
<path d="M376.135 95.4058H317.459V232.373H376.135V95.4058Z" fill="#3E2D87"/>
<path d="M283.141 149.324H224.466V232.373H283.141V149.324Z" fill="#3E2D87"/>
<path d="M194.93 187.274H136.254V232.373H194.93V187.274Z" fill="#3E2D87"/>
<path d="M87.8862 139.179C90.768 135.818 94.7498 137.558 97.9186 139.44C99.6285 140.446 100.956 142.281 102.462 143.606C104.24 145.178 106.135 146.614 108.13 147.903C108.551 148.189 108.995 148.438 109.458 148.649C110.37 149.004 111.328 149.231 112.304 149.324L118.832 150.223C120.893 150.606 122.998 150.706 125.086 150.519C126.257 150.224 127.468 150.116 128.673 150.2C130.407 150.507 130.814 151.857 130.981 153.36C131.149 154.864 131.304 155.171 129.977 155.728C128.17 156.181 126.325 156.471 124.464 156.592C122.743 156.9 121.021 157.243 119.323 157.681C117.726 158.165 116.083 158.486 114.42 158.64C110.713 158.817 107.245 157.006 103.993 155.254L91.6528 148.602C88.4004 146.826 84.7892 142.813 87.8862 139.179Z" fill="#FFA23C"/>
<path d="M87.8862 139.179C90.768 135.818 94.7498 137.558 97.9186 139.44C99.6285 140.446 100.956 142.281 102.462 143.606C104.24 145.178 106.135 146.614 108.13 147.903C108.551 148.189 108.995 148.438 109.458 148.649C110.37 149.004 111.328 149.231 112.304 149.324L118.832 150.223C120.893 150.606 122.998 150.706 125.086 150.519C126.257 150.224 127.468 150.116 128.673 150.2C130.407 150.507 130.814 151.857 130.981 153.36C131.149 154.864 131.304 155.171 129.977 155.728C128.17 156.181 126.325 156.471 124.464 156.592C122.743 156.9 121.021 157.243 119.323 157.681C117.726 158.165 116.083 158.486 114.42 158.64C110.713 158.817 107.245 157.006 103.993 155.254L91.6528 148.602C88.4004 146.826 84.7892 142.813 87.8862 139.179Z" fill="#623EC7"/>
<path d="M130.491 150.152C130.072 150.389 129.415 150.413 129.056 150.768C128.697 151.123 128.697 152.046 128.626 152.532C128.543 152.883 128.589 153.253 128.757 153.573C128.877 153.72 129.023 153.844 129.188 153.94C130.071 154.647 131.087 155.174 132.177 155.491C133.672 155.719 135.201 155.417 136.494 154.639C138.539 153.61 140.128 151.869 140.954 149.75C141.133 149.217 141.181 148.483 140.667 148.223C140.317 148.117 139.939 148.151 139.615 148.318C137.732 148.992 135.745 149.336 133.743 149.336C133.949 148.864 133.979 148.335 133.827 147.844C132.476 148.199 131.651 149.419 130.491 150.152Z" fill="#FCBDBA"/>
<path d="M143.871 143.512V164.819C143.871 166.121 143.238 167.186 142.46 167.186H123.328C122.551 167.186 121.929 166.132 121.929 164.819V143.512C121.929 142.21 122.551 141.144 123.328 141.144H142.46C143.238 141.156 143.871 142.21 143.871 143.512Z" fill="white"/>
<path d="M67.4746 197.229C67.4746 197.229 85.7458 218.535 88.9982 222.726C92.2507 226.916 92.2746 251.715 92.2746 251.715H99.9992C99.9992 251.715 100.25 227.129 97.6077 218.784C94.9651 210.439 80.7595 183.9 80.7595 183.9L67.4746 197.229Z" fill="#36134A"/>
<path d="M58.638 188.031C58.638 188.031 61.0295 212.57 61.9622 218.974C62.8948 225.377 46.0347 247.288 46.0347 247.288L52.5994 250.768C52.5994 250.768 64.7722 236.907 69.2324 229.213C73.6925 221.519 82.2781 187.132 82.2781 187.132C70.5118 181.639 58.638 188.031 58.638 188.031Z" fill="#36134A"/>
<path d="M98.1457 151.336C96.0412 155.941 92.8246 159.764 90.7798 164.357C87.8981 170.855 83.7488 176.537 83.0313 183.817C82.8639 185.474 82.7922 187.368 81.5127 188.457C80.8607 188.952 80.1047 189.296 79.3006 189.463C76.2045 190.33 73.0524 190.987 69.866 191.428C67.8939 191.793 65.8758 191.845 63.8872 191.582C61.8595 191.29 60.0317 190.213 58.8053 188.587C57.6275 186.655 57.3403 184.316 58.0161 182.16C59.0325 178.396 61.4359 175.673 64.246 173.081C67.8332 169.731 69.4356 163.256 71.0139 158.793C72.126 155.645 73.1663 152.472 74.2305 149.324C75.522 145.477 77.6265 143.31 80.3887 140.292C82.0622 138.143 84.1827 136.375 86.6066 135.107C91.5006 133.002 97.1918 135.223 99.3185 140.068C99.856 141.292 100.129 142.615 100.119 143.95C100.056 145.382 99.7989 146.799 99.3534 148.164C99.0293 149.249 98.6257 150.309 98.1457 151.336Z" fill="#623EC7"/>
<path d="M99.473 113.386C97.213 111.161 93.1235 112.202 90.5048 113.043C89.7491 113.233 89.0245 113.528 88.3524 113.919C87.4378 114.546 86.6943 115.388 86.1881 116.369C85.567 117.404 85.1605 118.551 84.9923 119.743C84.8007 121.34 84.9806 122.96 85.5185 124.478C86.1146 125.488 86.6073 126.555 86.9893 127.662C87.6708 130.692 88.3644 133.722 89.034 136.765C89.0724 137.036 89.1886 137.291 89.3688 137.498C89.5513 137.63 89.7659 137.712 89.9906 137.735C91.5636 138.052 93.1701 138.175 94.7736 138.102C95.0494 138.117 95.3245 138.064 95.5748 137.948C96.0884 137.591 96.3746 136.993 96.3281 136.374C96.4118 135.462 96.2564 134.551 96.3281 133.639C96.3397 132.881 96.6534 132.158 97.201 131.627C97.9209 131.238 98.7075 130.985 99.5208 130.881C100.319 130.668 101.033 130.218 101.566 129.591C102.988 127.756 101.912 124.927 103.096 122.903C103.361 122.579 103.534 122.191 103.598 121.779C103.598 121.234 103.096 120.832 102.702 120.441C100.717 118.452 101.338 115.256 99.473 113.386Z" fill="#FCBDBA"/>
<path d="M91.1626 124.442C90.828 124.036 90.5762 123.57 90.4212 123.069C90.2479 122.542 89.7811 122.164 89.2254 122.098C88.7573 122.151 88.364 122.471 88.221 122.915C87.9821 123.628 88.088 124.409 88.508 125.034C88.9251 125.65 89.4283 126.204 90.0027 126.679L89.2852 128.467C89.2138 128.685 89.1046 128.889 88.9624 129.07C88.7594 129.264 88.5073 129.399 88.233 129.461C87.0971 129.642 85.9489 129.219 85.2077 128.348C84.5026 127.478 83.9563 126.493 83.5934 125.436L82.3977 122.371C81.7878 120.891 82.7325 120.323 82.6727 118.938C82.61 118.713 82.5089 118.501 82.3737 118.311C81.7169 116.96 81.7169 115.388 82.3737 114.037C82.5915 113.506 82.9461 113.041 83.4021 112.688C83.744 112.465 84.1193 112.297 84.5142 112.191C86.3556 111.599 88.2808 111.291 90.1342 110.77C92.0646 110.11 94.0282 109.549 96.0173 109.089C98.0335 108.652 100.143 109.018 101.889 110.107C102.477 110.454 102.857 111.065 102.905 111.741C102.798 112.318 102.499 112.843 102.056 113.232C100.356 115.103 98.1602 116.464 95.7184 117.162C94.5226 117.506 92.5855 117.494 91.88 118.749C91.0788 120.193 91.3898 122.821 91.1626 124.442Z" fill="#FC682D"/>
<path d="M90.7082 139.404C94.5944 137.25 97.7034 140.257 100.011 143.109C101.207 144.648 101.853 146.838 102.797 148.602C103.909 150.685 105.176 152.683 106.588 154.579C106.877 155 107.201 155.396 107.556 155.763C108.272 156.413 109.077 156.959 109.948 157.385L115.735 160.486C117.535 161.556 119.474 162.376 121.499 162.925C122.691 163.054 123.854 163.374 124.943 163.872C126.461 164.759 126.366 166.156 125.983 167.624C125.6 169.092 125.66 169.435 124.225 169.459C122.372 169.241 120.541 168.873 118.749 168.358C117.051 168.05 115.305 167.79 113.559 167.6C111.891 167.497 110.237 167.231 108.621 166.807C105.033 165.623 102.486 162.783 100.047 160.013L90.8517 149.501C88.4841 146.731 86.523 141.724 90.7082 139.404Z" fill="#623EC7"/>
<path d="M126.736 164.452C126.258 164.523 125.624 164.31 125.17 164.523C124.716 164.736 124.381 165.6 124.142 166.038C123.939 166.332 123.854 166.691 123.902 167.044C123.961 167.223 124.05 167.391 124.165 167.541C124.748 168.507 125.516 169.352 126.425 170.027C127.743 170.761 129.281 171.009 130.766 170.725C133.048 170.479 135.154 169.399 136.673 167.695C137.032 167.257 137.331 166.582 136.948 166.168C136.662 165.942 136.295 165.84 135.932 165.884C133.926 165.865 131.94 165.501 130.061 164.807C130.419 164.438 130.635 163.956 130.67 163.445C129.283 163.292 128.076 164.144 126.736 164.452Z" fill="#FCBDBA"/>
<path d="M46.0585 247.56C47.7445 247.56 51.8101 249.087 52.6352 250.602C52.8741 251.164 52.9962 251.768 52.9939 252.378C53.1625 254.16 53.7216 255.885 54.6321 257.432C55.3017 258.616 56.1507 260.107 55.3495 261.102C54.5484 262.096 52.958 261.717 51.7623 261.185C47.5603 259.228 43.7739 256.496 40.6059 253.135C40.5012 253.067 40.4117 252.979 40.3428 252.875C39.9988 252.359 40.1134 251.669 40.6059 251.289C41.969 249.714 43.8224 247.548 46.0585 247.56Z" fill="#623EC7"/>
<path d="M92.5853 251.241C94.0561 250.401 98.3728 249.773 99.8436 250.685C100.334 251.051 100.741 251.515 101.039 252.046C102.09 253.49 103.434 254.699 104.985 255.597C106.181 256.26 107.652 257.16 107.461 258.426C107.269 259.693 105.679 260.143 104.399 260.249C99.7559 260.625 95.0829 260.11 90.6362 258.734C90.4995 258.721 90.366 258.685 90.2416 258.628C89.684 258.358 89.4531 257.691 89.7259 257.139L89.7274 257.136C90.0981 255.136 90.6123 252.342 92.5853 251.241Z" fill="#623EC7"/>
<path d="M125.493 77.3185C126.712 75.6159 128.521 74.4155 130.575 73.9449C133.19 73.2187 135.994 73.6275 138.287 75.0694C138.573 75.3261 138.942 75.4731 139.328 75.4837C139.571 75.4224 139.797 75.3047 139.985 75.1405C141.807 73.862 144.047 73.3046 146.263 73.578C148.93 73.8976 150.054 75.685 151.764 77.5434C152.098 76.9168 152.708 76.4795 153.414 76.3597C154.11 76.2413 154.822 76.2413 155.518 76.3597C156.601 76.4252 157.654 76.7414 158.591 77.283C160.05 78.2891 160.552 80.1594 161.557 81.6272C161.628 81.7702 161.759 81.8744 161.916 81.9113C162.059 81.8976 162.192 81.8298 162.286 81.7219C162.563 81.3343 162.866 80.9664 163.195 80.621C164.139 79.9751 165.414 80.0844 166.232 80.8815C166.999 81.6768 167.594 82.6195 167.978 83.6514C168.366 84.6843 169.052 85.5817 169.951 86.2318C170.643 86.5984 171.397 86.8352 172.175 86.9302C174.431 87.2256 176.516 88.2786 178.082 89.9132C178.799 90.7405 179.193 91.7943 179.194 92.8843C179.175 93.9842 178.57 94.9922 177.604 95.5358C175.332 96.7195 172.558 94.3521 170.095 95.0268C167.631 95.7015 163.769 94.9676 161.198 94.0444C159.117 93.2868 156.905 92.2925 154.777 92.8606C154.123 93.1448 153.43 93.3323 152.72 93.417C152.192 93.3841 151.676 93.2473 151.202 93.0145C149.74 92.4732 148.373 91.7105 147.148 90.7536C144.828 88.8123 143.561 85.711 140.822 84.3261C139.238 83.5198 137.382 83.4166 135.716 84.042C135.023 84.3142 134.389 84.7049 133.684 84.9534C132.861 85.2364 131.996 85.3805 131.125 85.3796C128.959 85.5665 126.82 84.8001 125.278 83.2844C123.867 81.6745 124.357 79.0112 125.493 77.3185Z" fill="#473F47"/>
<path d="M122.479 83.8644C121.536 85.2665 121.764 87.1398 123.018 88.2796C123.6 88.656 124.256 88.9061 124.943 89.0135L129.02 89.9723L127.502 85.8767C127.137 85.1425 127.04 84.3062 127.227 83.5093C127.612 82.6722 128.428 82.1096 129.355 82.0415C130.263 81.9941 131.173 81.9941 132.081 82.0415C132.335 82.0651 132.584 81.9578 132.739 81.7574C132.871 81.4733 132.596 81.1537 132.333 80.9643C129.08 78.6797 124.357 80.7394 122.479 83.8644Z" fill="#473F47"/>
<path d="M162.322 176.502C162.573 177.898 162.428 179.337 161.903 180.657C161.054 182.491 159.201 183.628 157.79 185.084C157.479 185.337 157.298 185.715 157.3 186.114C157.411 186.479 157.73 186.743 158.113 186.788C158.488 186.813 158.865 186.752 159.213 186.611C160.862 185.953 162.546 185.388 164.259 184.918C165.12 184.741 166.136 184.575 166.531 183.805C166.747 183.156 166.709 182.451 166.423 181.829C165.692 179.417 165.313 176.913 165.299 174.395C165.344 173.771 165.267 173.144 165.072 172.548C164.668 171.696 163.643 171.329 162.782 171.729C162.78 171.73 162.778 171.731 162.776 171.732C162.525 171.846 162.307 172.021 162.143 172.241C161.353 173.318 162.179 175.33 162.322 176.502Z" fill="#FCC995"/>
<path d="M192.12 179.236C192.65 180.555 192.799 181.993 192.551 183.391C192.096 185.368 190.506 186.836 189.418 188.552C189.167 188.865 189.07 189.273 189.155 189.665C189.332 190.004 189.705 190.198 190.088 190.15C190.459 190.098 190.815 189.965 191.128 189.759C192.606 188.789 194.139 187.904 195.72 187.108C196.533 186.753 197.501 186.386 197.728 185.545C197.801 184.869 197.618 184.19 197.214 183.64C196.005 181.407 195.123 179.016 194.596 176.537C194.511 175.917 194.308 175.319 193.998 174.774C193.429 174.032 192.364 173.879 191.606 174.43C191.388 174.597 191.212 174.812 191.092 175.058C190.518 176.324 191.738 178.123 192.12 179.236Z" fill="#FCC995"/>
<path d="M181.801 111.481C181.801 111.481 172.522 135.711 164.666 144.127C165.336 146.174 165.789 148.285 166.017 150.425C166.34 153.976 165.383 157.278 165.634 160.735L166.495 172.323C166.495 172.856 166.495 173.507 166.089 173.779C165.801 173.925 165.475 173.978 165.156 173.933L160.971 173.779C159.618 166.98 157.877 160.261 155.757 153.656C154.798 151.016 154.086 148.294 153.629 145.524C152.864 139.44 156.523 133.048 158.783 127.52C160.158 124.182 161.341 119.388 163.685 116.559C165.646 114.191 169.221 114.262 172.283 113.86C174.587 113.564 176.824 112.88 178.895 111.836C179.746 111.251 180.832 111.118 181.801 111.481Z" fill="#36134A"/>
<path d="M187.182 110.096C187.182 110.096 187.493 136.007 183.284 146.672C184.656 148.342 185.858 150.142 186.871 152.046C187.616 153.633 188.22 155.281 188.676 156.971L194.799 177.236C192.86 177.798 190.835 178.011 188.82 177.863L177.233 161.421C175.189 158.873 173.64 155.971 172.665 152.863C171.159 146.696 171.852 122.749 172.283 121.447C173.227 118.535 176.587 117.316 179.29 115.825C181.322 114.713 183.15 113.268 184.695 111.552C185.388 110.735 186.082 110.013 187.182 110.096Z" fill="#36134A"/>
<path d="M146.849 127.401C146.043 130.708 144.305 133.721 141.839 136.09C141.023 136.681 140.346 137.441 139.854 138.315C140.631 138.315 141.659 138.623 141.635 139.392C141.61 139.622 141.528 139.841 141.396 140.032C140.961 140.733 140.368 141.324 139.662 141.76C139.289 141.941 138.962 142.204 138.706 142.529C138.384 143.239 138.699 144.072 139.411 144.4C140.119 144.672 140.904 144.672 141.611 144.4C144.063 143.628 145.896 141.595 146.394 139.097C146.526 138.374 146.55 137.641 146.681 136.918C147.017 135.577 147.544 134.289 148.248 133.095C150.103 129.462 151.678 125.695 152.959 121.826C153.485 120.746 153.533 119.498 153.091 118.382C152.062 116.57 148.631 115.683 148.188 118.251C147.662 121.329 147.674 124.383 146.849 127.401Z" fill="#FCC995"/>
<path d="M130.909 121.293C129.209 124.242 126.701 126.655 123.675 128.254C122.73 128.599 121.87 129.14 121.152 129.84C121.881 130.077 122.79 130.633 122.551 131.367C122.466 131.58 122.326 131.768 122.145 131.911C121.523 132.456 120.788 132.86 119.992 133.095C119.561 133.155 119.15 133.317 118.796 133.569C118.289 134.155 118.353 135.037 118.94 135.545C119.53 136.022 120.285 136.252 121.044 136.185C123.619 136.126 125.956 134.683 127.143 132.42C127.466 131.769 127.693 131.071 128.028 130.42C128.73 129.227 129.595 128.136 130.599 127.177C133.405 124.212 135.987 121.047 138.323 117.707C139.125 116.808 139.519 115.622 139.411 114.428C138.945 112.404 135.896 110.605 134.748 112.948C133.409 115.683 132.56 118.618 130.909 121.293Z" fill="#FCC995"/>
<path d="M140.129 101.525C138.132 106.535 135.185 111.119 131.447 115.032C131.292 115.209 131.113 115.446 131.196 115.671C131.272 115.807 131.395 115.912 131.543 115.967C133.7 117.115 135.999 117.979 138.383 118.535C138.662 118.618 138.955 118.642 139.244 118.606C139.743 118.429 140.152 118.063 140.38 117.588C142.397 114.511 144.266 111.354 145.988 108.119C147.628 105.397 148.652 102.356 148.989 99.2053C149.121 97.591 148.727 95.9775 147.865 94.6007C146.849 93.121 143.596 91.4402 142.257 93.417C141.772 94.5443 141.485 95.7452 141.408 96.9681C141.08 98.5126 140.653 100.035 140.129 101.525Z" fill="#FFA23C"/>
<path d="M140.129 101.525C138.132 106.535 135.185 111.119 131.447 115.032C131.292 115.209 131.113 115.446 131.196 115.671C131.272 115.807 131.395 115.912 131.543 115.967C133.7 117.115 135.999 117.979 138.383 118.535C138.662 118.618 138.955 118.642 139.244 118.606C139.743 118.429 140.152 118.063 140.38 117.588C142.397 114.511 144.266 111.354 145.988 108.119C147.628 105.397 148.652 102.356 148.989 99.2053C149.121 97.591 148.727 95.9775 147.865 94.6007C146.849 93.121 143.596 91.4402 142.257 93.417C141.772 94.5443 141.485 95.7452 141.408 96.9681C141.08 98.5126 140.653 100.035 140.129 101.525Z" fill="#623EC7"/>
<path d="M187.182 110.096C187.146 110.514 187.015 110.918 186.799 111.279C186.05 112.875 185.183 114.414 184.204 115.884C181.582 119.577 177.722 122.232 173.311 123.377C171.557 123.837 169.744 124.041 167.93 123.98C167.268 123.991 166.612 123.862 166.005 123.602C165.143 123.079 164.45 122.323 164.008 121.424C161.341 117.032 158.735 112.392 155.112 108.841C153.885 107.614 152.512 106.541 151.022 105.645C148.882 104.355 146.466 103.479 144.625 101.81C142.461 99.7866 141.299 96.928 141.444 93.9852C141.599 90.7892 143.285 86.8829 146.574 85.9715C150.428 84.9857 154.491 85.1421 158.256 86.4213C162.405 87.8889 166.319 89.9378 169.879 92.5055C171.338 93.4762 172.773 94.4587 174.136 95.5477C177.309 98.2747 180.238 101.269 182.889 104.497L186.321 108.45C186.796 108.88 187.101 109.463 187.182 110.096Z" fill="#623EC7"/>
<path d="M173.311 123.377C171.557 123.837 169.744 124.041 167.93 123.981C167.268 123.991 166.612 123.862 166.005 123.602C165.143 123.079 164.45 122.323 164.008 121.424C161.341 117.032 158.735 112.392 155.112 108.841C155.267 107.989 155.506 107.148 155.745 106.32C156.283 104.414 156.654 101.159 158.555 100.022C159.465 102.244 160.491 104.417 161.628 106.533C162.741 108.64 164.259 110.593 165.311 112.712C167.301 116.386 169.818 119.755 172.785 122.714C172.98 122.919 173.156 123.141 173.311 123.377Z" fill="url(#paint0_linear_565_1563)"/>
<path d="M146.55 117.873C146.454 118.116 146.454 118.387 146.55 118.63C146.687 118.84 146.902 118.989 147.148 119.044C149.424 119.837 151.828 120.206 154.239 120.133C154.486 120.157 154.734 120.099 154.944 119.968C155.165 119.788 155.313 119.536 155.363 119.258C156.559 115.624 157.647 111.99 158.747 108.344C159.54 106.137 159.976 103.82 160.038 101.478C159.917 99.491 159.515 97.5305 158.842 95.6543C157.025 89.9488 151.082 91.0852 150.472 96.5894C149.611 103.988 149.085 110.83 146.55 117.873Z" fill="#623EC7"/>
<path d="M166.722 183.971C166.877 183.478 166.599 182.954 166.101 182.801C165.694 182.675 165.254 182.835 165.024 183.19C164.197 183.839 163.313 184.413 162.382 184.906C161.443 185.4 160.353 185.535 159.321 185.285C158.781 185.005 158.169 184.89 157.563 184.954C157.286 185.072 157.035 185.24 156.822 185.451C156.042 186.129 155.158 186.681 154.203 187.084C153.79 187.211 153.415 187.439 153.115 187.747C153.023 187.84 152.968 187.961 152.959 188.09C152.959 188.41 153.366 188.552 153.677 188.599C157.073 189.073 160.433 187.818 163.661 186.694C164.021 186.55 164.399 186.459 164.785 186.421C165.359 186.421 166.089 186.516 166.459 185.96C166.713 185.329 166.804 184.645 166.722 183.971Z" fill="#36134A"/>
<path d="M198.171 185.557C198.183 185.142 197.974 184.751 197.621 184.527C197.19 184.35 196.724 184.681 196.425 184.989C195.684 185.73 194.885 186.411 194.033 187.025C193.158 187.627 192.091 187.892 191.032 187.771C190.462 187.559 189.842 187.522 189.25 187.664C188.988 187.808 188.76 188.006 188.581 188.244C187.891 189.011 187.084 189.666 186.189 190.185C185.793 190.363 185.448 190.636 185.185 190.979C185.108 191.085 185.07 191.215 185.077 191.345C185.077 191.653 185.532 191.748 185.854 191.748C189.274 191.807 192.455 190.15 195.516 188.635C195.857 188.449 196.224 188.313 196.604 188.232C197.166 188.126 197.908 188.161 198.207 187.569C198.362 186.906 198.35 186.215 198.171 185.557Z" fill="#36134A"/>
<path d="M130.587 90.9668C131.28 91.4995 131.986 92.0321 132.655 92.6003C133.585 93.501 134.585 94.3282 135.645 95.0743C136.718 95.8319 138.076 96.079 139.352 95.749C140.64 95.345 141.381 94.0122 141.038 92.7187C141.731 92.4346 142.473 93.0265 142.903 93.642C143.333 94.2575 143.752 94.9914 144.481 95.1808C145.522 95.4531 146.431 94.4114 146.873 93.4171C148.068 90.294 147.253 86.7659 144.804 84.4682C142.221 82.1008 139.878 78.7983 136.577 77.5198C135.428 77.1131 134.21 76.9321 132.99 76.9872C131.876 76.9719 130.776 77.228 129.786 77.7329C129.123 78.1387 128.519 78.6326 127.992 79.2007C125.6 81.4971 123.675 83.4503 125.816 86.4924C127.164 88.2181 128.773 89.7274 130.587 90.9668Z" fill="#FCC995"/>
<path d="M130.371 83.746C130.79 83.4501 131.196 83.024 131.711 83.0358C132.225 83.0476 132.679 83.5685 133.181 83.8171C134.21 84.326 135.405 83.6632 136.541 83.4975C137.955 83.3335 139.341 83.9694 140.129 85.1428C139.863 84.799 139.698 84.3895 139.65 83.9591C139.65 83.5093 140.045 83.0476 140.487 83.1187C140.694 83.1772 140.878 83.297 141.014 83.4619C141.594 84.1348 141.784 85.0562 141.516 85.9004C142.819 86.6179 144.424 86.5209 145.629 85.6518C146.337 85.242 146.64 84.3852 146.347 83.6276C145.653 81.1418 143.046 79.7924 141.301 77.8866C140.746 77.1638 140.099 76.5152 139.375 75.9572C138.793 75.614 138.153 75.3774 137.486 75.2588C135.325 74.6836 133.043 74.7328 130.909 75.4008C128.901 76.1229 125.72 78.6915 125.361 80.9169C124.99 83.4265 128.339 85.1902 130.371 83.746Z" fill="#473F47"/>
<path d="M389.086 95.4058H330.41V232.373H389.086V95.4058Z" fill="#623EC7"/>
<path d="M296.079 149.324H237.404V232.373H296.079V149.324Z" fill="#623EC7"/>
<path d="M207.868 187.274H149.193V232.373H207.868V187.274Z" fill="#623EC7"/>
<defs>
<linearGradient id="paint0_linear_565_1563" x1="122.097" y1="109.819" x2="175.066" y2="112.694" gradientUnits="userSpaceOnUse">
<stop offset="0.01"/>
<stop offset="0.08" stop-opacity="0.69"/>
<stop offset="0.21" stop-opacity="0.32"/>
<stop offset="1" stop-opacity="0"/>
</linearGradient>
</defs>
</svg>
