<svg width="420" height="260" viewBox="0 0 420 260" fill="none" xmlns="http://www.w3.org/2000/svg">
<mask id="mask0_565_1308" style="mask-type:luminance" maskUnits="userSpaceOnUse" x="0" y="0" width="420" height="260">
<path d="M419.293 0.376953H0V259.57H419.293V0.376953Z" fill="white"/>
</mask>
<g mask="url(#mask0_565_1308)">
<path d="M406.605 259.57H12.4525C5.51019 259.57 -0.117676 253.998 -0.117676 247.126V70.8142C-0.117676 63.9418 5.51019 58.3706 12.4525 58.3706H406.605C413.548 58.3706 419.176 63.9418 419.176 70.8142V247.126C419.176 253.998 413.548 259.57 406.605 259.57Z" fill="#C1EEF0"/>
</g>
<mask id="mask1_565_1308" style="mask-type:luminance" maskUnits="userSpaceOnUse" x="0" y="0" width="420" height="260">
<path d="M419.293 0.376953H0V259.57H419.293V0.376953Z" fill="white"/>
</mask>
<g mask="url(#mask1_565_1308)">
<path d="M157.189 113.081C161.713 113.912 167.745 114.076 173.771 111.406C182.212 107.666 188.254 99.5143 191.732 87.1777L184.196 85.0964C181.383 95.0753 176.821 101.54 170.637 104.309C162.239 108.07 153.203 103.85 153.113 103.807L149.675 110.764C149.918 110.882 152.864 112.286 157.189 113.081Z" fill="#36134A"/>
<path d="M141.396 106.238C142.584 100.686 145.391 96.5722 147.664 97.0491L154.525 98.488C156.799 98.9648 157.678 103.852 156.49 109.403C155.302 114.955 152.496 119.069 150.222 118.592L143.361 117.153C141.088 116.676 140.208 111.789 141.396 106.238Z" fill="#36134A"/>
<path d="M183.259 98.8077C179.836 97.289 177.68 94.6467 178.443 92.9058L180.747 87.6522C181.51 85.9113 184.904 85.7311 188.327 87.2497C191.749 88.7684 193.905 91.4107 193.142 93.1517L190.838 98.4053C190.075 100.146 186.682 100.326 183.259 98.8077Z" fill="#36134A"/>
<path d="M191.45 82.1199C194.379 82.9032 197.213 80.9585 197.683 78.0836C197.83 77.186 197.733 76.5147 197.596 75.8171C197.422 74.9306 197.344 74.5747 197.967 73.7485C198.781 72.6679 200.497 71.3987 203.117 71.0743C203.798 70.99 204.472 71.3404 204.758 71.9577C205.85 74.3125 206.203 76.9015 205.773 79.4969C204.69 86.0352 198.695 90.7992 192.013 90.4063C191.416 90.3711 190.834 90.2936 190.265 90.1851L191.45 82.1199Z" fill="#FFA43C"/>
<path d="M189.879 81.453C187.288 79.8915 186.758 76.5181 188.539 74.1995C189.095 73.4757 189.653 73.0826 190.258 72.7003C191.027 72.2146 191.342 72.0255 191.517 71.0093C191.747 69.6802 191.494 67.5751 189.926 65.4713C189.518 64.9249 188.797 64.6828 188.148 64.9029C185.672 65.7421 183.534 67.2731 181.93 69.37C177.89 74.6524 178.533 82.236 183.425 86.7584C183.862 87.1624 184.32 87.5267 184.791 87.8601L189.879 81.453Z" fill="#FFA43C"/>
<path d="M188.75 92.9252C192.5 92.9252 195.539 89.916 195.539 86.204C195.539 82.492 192.5 79.4828 188.75 79.4828C185 79.4828 181.96 82.492 181.96 86.204C181.96 89.916 185 92.9252 188.75 92.9252Z" fill="#8327A2"/>
<path d="M79.9407 120.192L83.6552 113.376C79.9974 111.41 74.7926 107.074 75.2385 104.012C75.5548 101.84 76.1976 101.109 76.8453 100.641C78.1095 99.7296 81.7223 98.4506 91.7164 100.129L93.0256 92.4935C82.9701 90.8045 76.3649 91.4049 72.2377 94.3824C69.6048 96.2817 68.0535 99.0702 67.4945 102.907C66.0951 112.516 78.5195 119.435 79.9407 120.192Z" fill="#36134A"/>
<path d="M76.42 114.823C78.2392 111.576 81.0818 109.674 82.7693 110.575L87.8616 113.293C89.5491 114.194 89.4424 117.556 87.6233 120.803C85.8041 124.05 82.9615 125.953 81.274 125.052L76.1816 122.334C74.4941 121.433 74.6009 118.071 76.42 114.823Z" fill="#36134A"/>
<path d="M92.0186 124.511C90.8468 127.281 92.4188 130.319 95.2352 131.161C96.1146 131.424 96.7995 131.418 97.5162 131.376C98.427 131.322 98.7936 131.292 99.5385 132.013C100.513 132.955 101.556 134.806 101.534 137.421C101.529 138.1 101.089 138.715 100.433 138.914C97.9304 139.674 95.2914 139.677 92.7496 138.912C86.3462 136.984 82.3694 130.471 83.647 123.967C83.7612 123.386 83.9159 122.825 84.0998 122.281L92.0186 124.511Z" fill="#FFA43C"/>
<path d="M92.8944 123.058C94.8009 120.722 98.2487 120.649 100.335 122.702C100.986 123.344 101.306 123.943 101.608 124.588C101.993 125.407 102.141 125.74 103.135 126.047C104.435 126.449 106.577 126.479 108.891 125.218C109.492 124.891 109.829 124.216 109.695 123.55C109.182 121.009 107.932 118.708 106.045 116.857C101.29 112.194 93.6119 111.821 88.4363 116.022C87.9739 116.398 87.5486 116.799 87.1523 117.217L92.8944 123.058Z" fill="#FFA43C"/>
<path d="M88.2867 128.042C92.0365 128.042 95.0763 125.033 95.0763 121.321C95.0763 117.609 92.0365 114.6 88.2867 114.6C84.5369 114.6 81.4971 117.609 81.4971 121.321C81.4971 125.033 84.5369 128.042 88.2867 128.042Z" fill="#8327A2"/>
<path d="M87.248 85.8461L94.1737 86.9395C96.4686 87.3018 97.5972 92.1384 96.6944 97.7423C95.7917 103.346 93.1994 107.595 90.9044 107.233L83.9787 106.14C81.6837 105.777 80.5551 100.941 81.4579 95.3369C82.3607 89.733 84.953 85.4838 87.248 85.8461Z" fill="#36134A"/>
<path d="M95.5234 141.888L95.7841 177.538L112.01 180.519L125.173 147.334L95.5234 141.888Z" fill="url(#paint0_linear_565_1308)"/>
<path d="M89.6944 90.9907L88.3598 90.7909C88.3598 90.7909 87.6397 110.327 91.4046 139.553C91.4113 139.62 91.4202 139.686 91.4295 139.753C91.4295 139.753 91.4295 139.753 91.4295 139.753C92.091 144.493 99.3313 149.346 108.831 151.091C118.617 152.888 127.359 150.755 129.375 146.302C143.407 120.445 149.778 102.072 149.778 102.072L148.46 101.785L89.6944 90.9907Z" fill="url(#paint1_linear_565_1308)"/>
<path d="M150.176 100.736C151.747 92.3551 139.211 83.0243 122.175 79.8952C105.14 76.7661 90.0559 81.0237 88.485 89.4048C86.9141 97.7859 99.4507 107.117 116.486 110.246C133.522 113.375 148.606 109.117 150.176 100.736Z" fill="#8327A2"/>
<path d="M143.082 98.8272C144.156 93.0988 134.442 86.5108 121.385 84.1125C108.328 81.7143 96.8726 84.4138 95.7989 90.1422C94.7251 95.8706 104.439 102.459 117.496 104.857C130.553 107.255 142.009 104.556 143.082 98.8272Z" fill="#36134A"/>
<path d="M110.681 140.784C100.606 138.933 92.8086 133.171 90.1877 128.457C90.5146 132.036 90.914 135.746 91.4044 139.553C91.4111 139.62 91.42 139.686 91.4293 139.753C91.4293 139.753 91.4294 139.753 91.4293 139.753C92.0909 144.493 99.3311 149.346 108.83 151.091C118.616 152.888 127.359 150.755 129.375 146.302C131.217 142.908 132.937 139.574 134.541 136.339C130.515 139.972 120.967 142.673 110.681 140.784Z" fill="#8327A2"/>
<path d="M114.352 129.449C113.908 129.501 113.426 129.487 112.933 129.397C112.439 129.306 111.985 129.148 111.589 128.942C111.341 128.812 111.079 129.072 111.215 129.313C111.525 129.862 112.072 130.276 112.745 130.4C113.418 130.523 114.078 130.331 114.567 129.928C114.781 129.751 114.631 129.417 114.352 129.449Z" fill="#8727A2"/>
<path d="M106.829 126.452L107.546 126.905L107.655 126.087L108.141 126.396L107.445 124.712L106.443 125.316L106.934 125.628L106.829 126.452Z" fill="#8727A2"/>
<path d="M106.219 127.1L107.903 128.158L107.965 127.707L106.275 126.642L106.219 127.1Z" fill="#8727A2"/>
<path d="M115.556 115.405L105.112 118.01L104.049 128.303L112.198 133.319L121.622 131.531L124.359 121.545L115.556 115.405ZM121.729 121.543L118.694 122.222L112.195 117.814L115.243 117.07L121.729 121.543ZM117.729 122.437L114.085 123.251L107.569 118.942L111.226 118.05L117.729 122.437ZM112.43 132.078L105.389 127.705L106.3 119.792L113.812 124.709L122.606 122.787L120.588 130.497L112.43 132.078Z" fill="#8727A2"/>
<path d="M112.497 126.791C112.604 126.021 112.123 125.283 111.353 125.142C110.584 125.001 109.864 125.517 109.746 126.286C109.63 127.043 110.245 127.351 110.928 127.703C111.746 128.124 112.382 127.629 112.497 126.791Z" fill="#8727A2"/>
<path d="M114.284 127.119C114.464 126.363 115.18 125.845 115.949 125.986C116.719 126.128 117.204 126.865 117.035 127.625C116.869 128.373 116.184 128.442 115.418 128.527C114.503 128.63 114.088 127.943 114.284 127.119Z" fill="#8727A2"/>
<path d="M118.61 98.6368C118.654 98.6448 118.698 98.6469 118.742 98.6544L133.468 54.373L90.8855 28.8597C87.9778 29.5315 85.7372 31.8402 85.1905 34.7566L78.8235 68.7256C78.2666 71.6967 79.5762 74.7068 82.1395 76.3476L85.4589 78.4725L114.318 96.9458C115.636 97.7896 117.096 98.3586 118.61 98.6368Z" fill="#FFA33C"/>
<path d="M166.588 84.8484L172.956 50.8768C173.512 47.9065 172.202 44.8976 169.64 43.2571L169.635 43.2539L127.072 53.4937L118.611 98.6367C120.125 98.9149 121.694 98.9023 123.23 98.5827L136.349 95.8543L160.732 90.7831C163.718 90.1616 166.031 87.8181 166.588 84.8484Z" fill="#FF873C"/>
<path d="M89.6919 29.2421C88.702 29.8978 88.5948 31.4366 89.7153 32.1539L122.552 53.1753C125.171 54.8521 128.354 55.4366 131.406 54.8017L169.675 46.8408C170.979 46.5696 171.437 45.0996 170.755 44.136C170.415 43.8136 170.045 43.5166 169.64 43.2571L137.461 22.6573C136.143 21.8134 134.683 21.2442 133.168 20.966C131.654 20.6878 130.085 20.7005 128.549 21.0201L126.385 21.4701L91.0479 28.8195C90.5769 28.9175 90.1251 29.0628 89.6919 29.2421Z" fill="#FFC23C"/>
<path d="M145.481 51.8849L143.604 61.8981L155.398 59.4679L157.275 49.4547L145.481 51.8849Z" fill="#FF623C"/>
<path d="M89.6615 69.2995L85.9783 66.931L87.3297 59.7211L91.0129 62.0895L89.6615 69.2995Z" fill="#FF623C"/>
<path d="M91.245 75.9281L82.5178 70.3162L82.9679 67.9152L91.6951 73.5271L91.245 75.9281Z" fill="#FF623C"/>
<path d="M84.2805 61.0837L89.7075 58.0449L92.9503 66.6587L84.2805 61.0837Z" fill="#FF623C"/>
<path d="M157.114 49.455L116.582 23.509L111.317 24.6039L151.85 50.5499L157.114 49.455Z" fill="#FFA33C"/>
<path d="M110.141 24.8486L104.913 25.9358L145.446 51.8818L150.673 50.7946L110.141 24.8486Z" fill="#FFA33C"/>
<path d="M151.85 50.5499L111.317 24.6039L110.141 24.8486L150.673 50.7946L151.85 50.5499Z" fill="#FF873C"/>
<path d="M128.265 71.0223C129.47 65.7749 134.393 62.2382 139.738 63.2199C145.083 64.2016 148.611 69.2865 147.62 74.5774C146.628 79.8682 141.81 80.3601 136.41 80.9778C129.922 81.7198 126.934 76.8203 128.265 71.0223Z" fill="white"/>
<path d="M120.487 69.5936C121.264 64.2678 117.95 59.2179 112.605 58.2362C107.26 57.2545 102.124 60.7477 101.132 66.0385C100.14 71.3294 104.46 73.4998 109.277 75.994C115.063 78.9905 119.628 75.4784 120.487 69.5936Z" fill="white"/>
<path d="M121.232 84.6534C119.135 84.2683 117.207 83.5929 115.534 82.7115C114.507 82.1701 113.353 83.2671 113.9 84.2847C115.184 86.6755 117.515 88.4855 120.413 89.0179C123.312 89.5503 126.144 88.6887 128.209 86.913C129.088 86.1572 128.409 84.7236 127.253 84.864C125.372 85.0927 123.328 85.0385 121.232 84.6534Z" fill="#36134A"/>
<path d="M114.814 75.8948C117.821 75.8948 120.26 73.481 120.26 70.5035C120.26 67.526 117.821 65.1122 114.814 65.1122C111.806 65.1122 109.367 67.526 109.367 70.5035C109.367 73.481 111.806 75.8948 114.814 75.8948Z" fill="#C071D1"/>
<path d="M114.814 73.4027C116.431 73.4027 117.742 72.1047 117.742 70.5035C117.742 68.9024 116.431 67.6044 114.814 67.6044C113.196 67.6044 111.885 68.9024 111.885 70.5035C111.885 72.1047 113.196 73.4027 114.814 73.4027Z" fill="#36134A"/>
<path d="M113.528 69.9213C114.41 69.9213 115.125 69.2132 115.125 68.3398C115.125 67.4664 114.41 66.7583 113.528 66.7583C112.645 66.7583 111.93 67.4664 111.93 68.3398C111.93 69.2132 112.645 69.9213 113.528 69.9213Z" fill="white"/>
<path d="M139.873 80.6399C142.881 80.6399 145.319 78.2262 145.319 75.2486C145.319 72.2711 142.881 69.8573 139.873 69.8573C136.865 69.8573 134.427 72.2711 134.427 75.2486C134.427 78.2262 136.865 80.6399 139.873 80.6399Z" fill="#C071D1"/>
<path d="M139.873 78.1478C141.49 78.1478 142.802 76.8498 142.802 75.2486C142.802 73.6475 141.49 72.3495 139.873 72.3495C138.256 72.3495 136.944 73.6475 136.944 75.2486C136.944 76.8498 138.256 78.1478 139.873 78.1478Z" fill="#36134A"/>
<path d="M138.587 74.6664C139.469 74.6664 140.185 73.9584 140.185 73.0849C140.185 72.2115 139.469 71.5034 138.587 71.5034C137.705 71.5034 136.99 72.2115 136.99 73.0849C136.99 73.9584 137.705 74.6664 138.587 74.6664Z" fill="white"/>
<path d="M103.217 56.6281C103.217 56.6281 106.981 53.4793 113.223 54.0439L113.052 49.9396C113.052 49.9396 106.107 49.3621 101.521 53.7565L103.217 56.6281Z" fill="#36134A"/>
<path d="M148.115 59.1729C148.115 59.1729 145.743 54.897 139.712 53.2073L141.359 49.4369C141.359 49.4369 148.051 51.3643 150.738 57.0946L148.115 59.1729Z" fill="#36134A"/>
</g>
<mask id="mask2_565_1308" style="mask-type:luminance" maskUnits="userSpaceOnUse" x="0" y="0" width="420" height="260">
<path d="M419.293 0.376953H0V259.57H419.293V0.376953Z" fill="white"/>
</mask>
<g mask="url(#mask2_565_1308)">
<path d="M116.395 157.627H125.337C127.377 157.627 129.03 159.151 129.03 161.031V201.716C129.03 203.597 127.377 205.121 125.337 205.121H116.395C114.355 205.121 112.701 203.597 112.701 201.716V161.031C112.701 159.151 114.355 157.627 116.395 157.627Z" fill="#2BC5CB"/>
</g>
<mask id="mask3_565_1308" style="mask-type:luminance" maskUnits="userSpaceOnUse" x="0" y="0" width="420" height="260">
<path d="M419.293 0.376953H0V259.57H419.293V0.376953Z" fill="white"/>
</mask>
<g mask="url(#mask3_565_1308)">
<path d="M132.265 157.969L141.187 157.402C143.222 157.273 144.985 158.689 145.125 160.565L148.158 201.153C148.298 203.029 146.762 204.655 144.727 204.784L135.805 205.35C133.771 205.479 132.007 204.064 131.867 202.188L128.835 161.599C128.695 159.723 130.231 158.098 132.265 157.969Z" fill="#197CB2"/>
</g>
<mask id="mask4_565_1308" style="mask-type:luminance" maskUnits="userSpaceOnUse" x="0" y="0" width="420" height="260">
<path d="M419.293 0.376953H0V259.57H419.293V0.376953Z" fill="white"/>
</mask>
<g mask="url(#mask4_565_1308)">
<path d="M175.88 204.363C172.492 213.956 169.562 223.881 169.501 234.048C169.44 244.215 172.553 254.745 179.802 261.936C190.408 272.511 206.921 273.674 221.922 274.263L241.761 275.049C249.559 275.351 257.434 275.653 265.079 274.112C272.725 272.571 280.203 268.931 284.918 262.737C287.952 258.342 289.983 253.347 290.87 248.098C296.242 222.28 287.528 194.77 271.153 173.983C266.392 167.669 260.582 162.203 253.97 157.818C242.951 150.884 210.156 140.49 199.382 152.108C194.483 157.38 191.385 168.061 188.287 174.526C183.619 184.247 179.478 194.206 175.88 204.363Z" fill="white"/>
</g>
<mask id="mask5_565_1308" style="mask-type:luminance" maskUnits="userSpaceOnUse" x="0" y="0" width="420" height="260">
<path d="M419.293 0.376953H0V259.57H419.293V0.376953Z" fill="white"/>
</mask>
<g mask="url(#mask5_565_1308)">
<path d="M186.059 198.864C183.312 206.629 180.947 214.651 180.901 222.884C180.855 231.118 183.373 239.623 189.233 245.439C197.81 253.944 211.178 254.926 223.295 255.41L239.365 256.044C245.656 256.537 251.984 256.279 258.212 255.274C264.393 254.02 270.421 251.089 274.205 246.074C276.67 242.528 278.316 238.49 279.028 234.245C283.377 213.352 276.326 191.114 263.08 174.3C259.231 169.188 254.53 164.764 249.178 161.217C240.265 155.612 213.742 147.213 205.028 156.594C201.076 160.87 198.558 169.511 196.07 174.723C192.301 182.588 188.959 190.646 186.059 198.864Z" fill="url(#paint2_linear_565_1308)"/>
</g>
<mask id="mask6_565_1308" style="mask-type:luminance" maskUnits="userSpaceOnUse" x="0" y="0" width="420" height="260">
<path d="M419.293 0.376953H0V259.57H419.293V0.376953Z" fill="white"/>
</mask>
<g mask="url(#mask6_565_1308)">
<path d="M248.491 107.829C248.491 107.829 267.109 115.805 269.291 117.618C271.245 119.235 265.949 229.879 265.537 235.287C265.125 240.695 235.336 241.556 222.456 239.124C213.862 237.391 205.452 234.862 197.337 231.571C197.337 231.571 193.262 117.286 195.811 115.246C198.359 113.207 222.975 105.668 222.975 105.668L248.491 107.829Z" fill="#2BC5CB"/>
</g>
<mask id="mask7_565_1308" style="mask-type:luminance" maskUnits="userSpaceOnUse" x="0" y="0" width="420" height="260">
<path d="M419.293 0.376953H0V259.57H419.293V0.376953Z" fill="white"/>
</mask>
<g mask="url(#mask7_565_1308)">
<path d="M187.249 244.291C185.861 249.337 185.021 255.017 187.677 259.519C189.446 262.276 192.093 264.371 195.2 265.471C198.288 266.548 201.505 267.224 204.769 267.48C224.766 269.739 245.004 268.651 264.637 264.262C267.376 263.893 269.947 262.743 272.038 260.954C273.774 258.856 274.78 256.26 274.907 253.552C276.071 243.952 274.063 234.237 269.185 225.86C268.846 225.174 268.316 224.598 267.659 224.198C267.026 223.921 266.333 223.807 265.644 223.866L214.841 224.032C211.153 224.123 207.463 223.987 203.792 223.624C200.938 223.292 197.688 221.494 195.643 223.911C191.294 228.957 188.959 238.006 187.249 244.291Z" fill="#473F47"/>
</g>
<mask id="mask8_565_1308" style="mask-type:luminance" maskUnits="userSpaceOnUse" x="0" y="0" width="420" height="260">
<path d="M419.293 0.376953H0V259.57H419.293V0.376953Z" fill="white"/>
</mask>
<g mask="url(#mask8_565_1308)">
<path d="M187.249 244.291C185.861 249.337 185.021 255.017 187.677 259.519C189.446 262.276 192.093 264.371 195.2 265.471C198.288 266.548 201.505 267.224 204.769 267.48C224.766 269.739 245.004 268.651 264.637 264.262C267.376 263.893 269.947 262.743 272.038 260.954C273.774 258.856 274.78 256.26 274.907 253.552C276.071 243.952 274.063 234.237 269.185 225.86C268.846 225.174 268.316 224.598 267.659 224.198C267.026 223.921 266.333 223.807 265.644 223.866L214.841 224.032C211.153 224.123 207.463 223.987 203.792 223.624C200.938 223.292 197.688 221.494 195.643 223.911C191.294 228.957 188.959 238.006 187.249 244.291Z" fill="url(#paint3_linear_565_1308)"/>
</g>
<mask id="mask9_565_1308" style="mask-type:luminance" maskUnits="userSpaceOnUse" x="0" y="0" width="420" height="260">
<path d="M419.293 0.376953H0V259.57H419.293V0.376953Z" fill="white"/>
</mask>
<g mask="url(#mask9_565_1308)">
<path d="M247.789 323.845L250.765 324.132C259.769 325.023 263.401 317.424 264.301 308.511C264.515 306.653 264.957 304.78 265.278 302.937L271.214 268.704L273.961 252.842C274.236 251.24 274.526 249.654 274.785 248.053C275.579 243.4 274.16 238.913 273.259 234.245C272.725 231.42 272.038 228.383 269.841 226.51C267.643 224.637 264.606 224.47 261.768 224.334C254.229 224.002 246.583 223.655 239.243 225.392C238.791 225.449 238.375 225.663 238.068 225.996C237.862 226.381 237.792 226.822 237.869 227.25C238.404 234.35 239.548 241.39 239.395 248.491L238.098 305.535C237.183 314.403 238.785 322.953 247.789 323.845Z" fill="#473F47"/>
</g>
<mask id="mask10_565_1308" style="mask-type:luminance" maskUnits="userSpaceOnUse" x="0" y="0" width="420" height="260">
<path d="M419.293 0.376953H0V259.57H419.293V0.376953Z" fill="white"/>
</mask>
<g mask="url(#mask10_565_1308)">
<path d="M219.633 326.111L216.581 326.398C207.592 327.289 203.945 319.69 203.044 310.777L193.354 254.881C192.575 250.44 191.919 246.164 191.583 241.647C191.211 238.593 191.314 235.5 191.889 232.477C192.491 229.418 194.484 226.804 197.291 225.392C198.755 224.841 200.304 224.545 201.869 224.516C207.023 224.182 212.199 224.426 217.298 225.241C219.13 225.395 220.891 226.014 222.41 227.039C223.913 228.485 224.971 230.324 225.462 232.341C226.988 236.692 228.957 241.496 228.515 246.149C228.15 249.121 227.977 252.114 227.996 255.108L228.438 274.898L229.186 307.272C229.171 307.453 229.171 307.635 229.186 307.816C230.178 316.624 228.576 325.174 219.633 326.111Z" fill="#473F47"/>
</g>
<mask id="mask11_565_1308" style="mask-type:luminance" maskUnits="userSpaceOnUse" x="0" y="0" width="420" height="260">
<path d="M419.293 0.376953H0V259.57H419.293V0.376953Z" fill="white"/>
</mask>
<g mask="url(#mask11_565_1308)">
<path d="M376.239 209.454V212.717C376.247 215.345 374.102 217.483 371.447 217.491C371.442 217.491 371.437 217.491 371.432 217.491H89.7329C87.078 217.491 84.9258 215.36 84.9258 212.732C84.9258 212.727 84.9258 212.722 84.9258 212.717V209.454C84.9258 206.826 87.078 204.695 89.7329 204.695H371.432C374.087 204.695 376.239 206.826 376.239 209.454Z" fill="#36134A"/>
</g>
<mask id="mask12_565_1308" style="mask-type:luminance" maskUnits="userSpaceOnUse" x="0" y="0" width="420" height="260">
<path d="M419.293 0.376953H0V259.57H419.293V0.376953Z" fill="white"/>
</mask>
<g mask="url(#mask12_565_1308)">
<path d="M288.611 154.117C288.611 154.117 300.698 179.043 299.401 185.842C298.5 190.63 289.237 194.83 285.575 197.006C281.912 199.181 278.234 201.855 274.434 203.336C270.634 204.816 266.3 204.242 262.439 204.121L242.6 203.487C241.654 203.487 240.387 203.139 240.387 202.187C240.387 201.628 240.876 201.19 241.349 200.873C242.833 199.849 244.555 199.215 246.354 199.03C250.641 198.761 254.876 197.959 258.96 196.643L281.79 181.083L276.281 170.976L288.611 154.117Z" fill="#FDBAAC"/>
</g>
<mask id="mask13_565_1308" style="mask-type:luminance" maskUnits="userSpaceOnUse" x="0" y="0" width="420" height="260">
<path d="M419.293 0.376953H0V259.57H419.293V0.376953Z" fill="white"/>
</mask>
<g mask="url(#mask13_565_1308)">
<path d="M196.894 114.702C192.926 116.41 190.21 118.766 189.264 122.8C187.738 129.039 184.609 134.266 181.633 139.931C179.858 143.371 178.328 146.93 177.055 150.582C176.561 151.691 176.382 152.914 176.536 154.117C176.8 155.026 177.246 155.874 177.849 156.609C181.379 161.484 185.052 166.253 188.867 170.916C191.17 169.861 193.371 168.602 195.444 167.154C196.253 165.885 195.933 162.833 196.055 161.353C196.279 158.332 196.482 155.275 196.665 152.183L196.894 114.702Z" fill="#2BC5CB"/>
</g>
<mask id="mask14_565_1308" style="mask-type:luminance" maskUnits="userSpaceOnUse" x="0" y="0" width="420" height="260">
<path d="M419.293 0.376953H0V259.57H419.293V0.376953Z" fill="white"/>
</mask>
<g mask="url(#mask14_565_1308)">
<path d="M241.7 93.9605C241.848 94.678 241.945 95.405 241.99 96.1359C242.188 99.0667 241.883 102.073 242.768 104.868C243.11 105.875 243.571 106.838 244.141 107.738C246.263 111.062 243.638 116.485 241.776 119.507C239.411 123.329 235.672 127.06 230.926 127.513C224.959 128.042 222.364 121.47 221.266 116.802C220.625 114.113 220.075 112.18 221.098 109.521C222.12 106.862 223.707 104.324 224.516 101.514C225.195 98.2761 225.583 94.985 225.676 91.6793C225.716 90.7988 225.951 89.9377 226.363 89.1564C227.068 88.1238 228.172 87.4243 229.415 87.2227C230.619 87.0136 231.848 86.978 233.062 87.117C234.941 87.1126 236.792 87.5694 238.449 88.4464C240.234 89.7803 241.405 91.7662 241.7 93.9605Z" fill="#FDBAAC"/>
</g>
<mask id="mask15_565_1308" style="mask-type:luminance" maskUnits="userSpaceOnUse" x="0" y="0" width="420" height="260">
<path d="M419.293 0.376953H0V259.57H419.293V0.376953Z" fill="white"/>
</mask>
<g mask="url(#mask15_565_1308)">
<path d="M225.142 98.9307C225.142 98.9307 227.568 113.962 234.024 111.258C240.479 108.554 242.051 99.9277 242.051 99.9277L225.142 98.9307Z" fill="#DEA095"/>
</g>
<mask id="mask16_565_1308" style="mask-type:luminance" maskUnits="userSpaceOnUse" x="0" y="0" width="420" height="260">
<path d="M419.293 0.376953H0V259.57H419.293V0.376953Z" fill="white"/>
</mask>
<g mask="url(#mask16_565_1308)">
<path d="M244.325 107.632C244.325 107.632 238.617 125.036 232.604 127.362C232.604 127.362 231.002 128.405 235.733 130.671C240.464 132.937 251.818 118.479 249.132 108.871C248.512 106.372 245.561 105.249 243.082 104.474L244.325 107.632Z" fill="white"/>
</g>
<mask id="mask17_565_1308" style="mask-type:luminance" maskUnits="userSpaceOnUse" x="0" y="0" width="420" height="260">
<path d="M419.293 0.376953H0V259.57H419.293V0.376953Z" fill="white"/>
</mask>
<g mask="url(#mask17_565_1308)">
<path d="M222.752 105.219C222.752 105.219 220.853 118.449 226.653 126.501C226.653 126.501 224.806 129.855 223.005 130.021C221.204 130.187 215.756 119.914 216.901 111.757C217.435 107.058 221.73 104.041 222.752 105.219Z" fill="white"/>
</g>
<mask id="mask18_565_1308" style="mask-type:luminance" maskUnits="userSpaceOnUse" x="0" y="0" width="420" height="260">
<path d="M419.293 0.376953H0V259.57H419.293V0.376953Z" fill="white"/>
</mask>
<g mask="url(#mask18_565_1308)">
<path d="M216.703 65.3931C216.703 65.3931 217.008 88.6428 219.373 94.7008C221.739 100.759 227.614 105.623 232.986 105.14C238.358 104.656 246.049 99.4897 248.918 91.1808C251.787 82.8719 251.787 63.1572 250.643 60.5739C249.498 57.9906 243.333 50.0745 229.11 52.6427C219.327 54.4102 216.382 61.8429 216.703 65.3931Z" fill="#FDBAAC"/>
</g>
<mask id="mask19_565_1308" style="mask-type:luminance" maskUnits="userSpaceOnUse" x="0" y="0" width="420" height="260">
<path d="M419.293 0.376953H0V259.57H419.293V0.376953Z" fill="white"/>
</mask>
<g mask="url(#mask19_565_1308)">
<path d="M289.069 142.061C291.053 144.841 292.457 146.85 292.793 147.319C293.31 147.955 293.698 148.683 293.937 149.464C294.118 150.911 293.681 152.367 292.732 153.482C290.611 156.504 287.482 158.558 284.75 161.036C281.675 164.048 278.919 167.364 276.525 170.931C274.672 169.621 272.982 168.1 271.489 166.399C268.575 164.213 267.062 160.653 267.521 157.063L267.246 137.575L267.094 127.831C267.094 126.154 264.911 118.57 265.964 117.256C268.467 114.159 282.202 132.574 289.069 142.061Z" fill="#2BC5CB"/>
</g>
<mask id="mask20_565_1308" style="mask-type:luminance" maskUnits="userSpaceOnUse" x="0" y="0" width="420" height="260">
<path d="M419.293 0.376953H0V259.57H419.293V0.376953Z" fill="white"/>
</mask>
<g mask="url(#mask20_565_1308)">
<path d="M213.727 74.0041C213.553 73.9516 213.367 73.9516 213.193 74.0041C213.023 74.1125 212.886 74.2637 212.796 74.4422C212.176 75.534 211.965 76.8072 212.201 78.0377C212.458 79.0505 212.848 80.0257 213.36 80.9383C213.882 82.4206 214.813 83.7288 216.046 84.715C216.294 84.8911 216.598 84.9716 216.901 84.9416C217.121 84.9036 217.324 84.7979 217.481 84.6395C218.273 83.7136 218.686 82.5282 218.641 81.316C218.97 79.6224 218.655 77.868 217.756 76.3911C216.841 75.0388 215.363 74.163 213.727 74.0041Z" fill="#FDBAAC"/>
</g>
<mask id="mask21_565_1308" style="mask-type:luminance" maskUnits="userSpaceOnUse" x="0" y="0" width="420" height="260">
<path d="M419.293 0.376953H0V259.57H419.293V0.376953Z" fill="white"/>
</mask>
<g mask="url(#mask21_565_1308)">
<path d="M253.756 73.6264C253.932 73.5889 254.114 73.5889 254.29 73.6264C254.456 73.7384 254.593 73.8887 254.687 74.0645C255.299 75.1643 255.509 76.4397 255.282 77.6751C255.006 78.6818 254.617 79.6547 254.122 80.5757C253.598 82.0528 252.668 83.3557 251.436 84.3373C251.186 84.5198 250.876 84.6057 250.566 84.5791C250.354 84.5307 250.159 84.4263 250.002 84.2769C249.213 83.3495 248.799 82.1652 248.842 80.9534C248.502 79.26 248.818 77.5018 249.727 76.0285C250.638 74.6705 252.117 73.7888 253.756 73.6264Z" fill="#FDBAAC"/>
</g>
<mask id="mask22_565_1308" style="mask-type:luminance" maskUnits="userSpaceOnUse" x="0" y="0" width="420" height="260">
<path d="M419.293 0.376953H0V259.57H419.293V0.376953Z" fill="white"/>
</mask>
<g mask="url(#mask22_565_1308)">
<path d="M212.674 63.2478C212.185 60.2264 212.079 56.7367 214.2 54.5159C214.642 54.0476 215.177 53.67 215.634 53.2167C216.092 52.7635 216.794 51.842 217.389 51.1471C220.979 47.3008 226.048 45.1429 231.338 45.21C236.555 45.3138 241.717 46.2999 246.599 48.1257C249.345 49.012 252.072 49.9738 254.778 51.0111C255.83 51.3391 256.802 51.8792 257.632 52.5974C258.831 53.9108 259.179 55.7813 258.532 57.4316C258.075 58.7157 257.128 59.8034 256.747 61.1026C256.518 62.1288 256.426 63.18 256.472 64.2298C256.376 67.0225 255.635 69.7563 254.305 72.2214C253.571 73.7903 252.346 75.083 250.81 75.9076C250.931 72.1331 250.416 68.365 249.284 64.7585C246.05 67.3414 242.115 68.9184 237.976 69.2907C233.855 69.6415 229.704 69.1741 225.767 67.9159C224.807 67.5058 223.747 67.3799 222.715 67.5533C221.723 67.8252 220.93 69.064 221.494 69.8798C220.684 69.3693 219.608 69.6061 219.093 70.4087C219.09 70.4136 219.086 70.4186 219.083 70.4237C218.637 71.2329 218.421 72.1464 218.458 73.0674L218.198 78.8383C214.703 74.7745 213.528 68.5202 212.674 63.2478Z" fill="#36134A"/>
</g>
<mask id="mask23_565_1308" style="mask-type:luminance" maskUnits="userSpaceOnUse" x="0" y="0" width="420" height="260">
<path d="M419.293 0.376953H0V259.57H419.293V0.376953Z" fill="white"/>
</mask>
<g mask="url(#mask23_565_1308)">
<path d="M176.506 154.117C174.003 159.268 171.698 164.541 169.654 169.888C168.12 173.598 166.905 177.428 166.021 181.34C165.701 182.85 164.953 184.92 165.518 186.446C166.388 188.787 169.974 190.615 171.988 191.824C178.408 195.717 185.093 199.165 191.995 202.142C194.671 203.41 197.032 203.339 199.949 203.875C202.237 204.152 204.546 204.218 206.847 204.072L220.563 204.605C221.769 204.605 223.341 204.197 223.448 203.003C223.448 202.172 222.731 201.492 222.013 201.054C219.651 199.574 217.079 198.449 214.383 197.716C211.743 197.006 208.477 197.489 205.989 196.613C203.181 195.631 200.053 192.519 197.566 190.812L183.327 181.083L188.836 170.976L176.506 154.117Z" fill="#FDBAAC"/>
</g>
<mask id="mask24_565_1308" style="mask-type:luminance" maskUnits="userSpaceOnUse" x="0" y="0" width="420" height="260">
<path d="M419.293 0.376953H0V259.57H419.293V0.376953Z" fill="white"/>
</mask>
<g mask="url(#mask24_565_1308)">
<path d="M268.62 199.378H194.376L187.86 149.857L273.885 151.035L268.62 199.378Z" fill="#36134A"/>
</g>
<mask id="mask25_565_1308" style="mask-type:luminance" maskUnits="userSpaceOnUse" x="0" y="0" width="420" height="260">
<path d="M419.293 0.376953H0V259.57H419.293V0.376953Z" fill="white"/>
</mask>
<g mask="url(#mask25_565_1308)">
<path d="M108.839 204.695L106.703 217.491L82.0413 367.806C81.8262 369.789 80.2687 371.368 78.2719 371.628C76.5322 371.628 75.4029 369.906 75.7539 367.806L100.415 217.491L102.506 204.695H108.839Z" fill="#36134A"/>
</g>
<mask id="mask26_565_1308" style="mask-type:luminance" maskUnits="userSpaceOnUse" x="0" y="0" width="420" height="260">
<path d="M419.293 0.376953H0V259.57H419.293V0.376953Z" fill="white"/>
</mask>
<g mask="url(#mask26_565_1308)">
<path d="M354.584 204.695L356.675 217.491L381.397 367.806C381.612 369.789 383.17 371.368 385.167 371.628C386.906 371.628 388.036 369.906 387.685 367.806L363.023 217.491L360.932 204.695H354.584Z" fill="#36134A"/>
</g>
<mask id="mask27_565_1308" style="mask-type:luminance" maskUnits="userSpaceOnUse" x="0" y="0" width="420" height="260">
<path d="M419.293 0.376953H0V259.57H419.293V0.376953Z" fill="white"/>
</mask>
<g mask="url(#mask27_565_1308)">
<path d="M268.62 199.363H194.01V204.756H268.62V199.363Z" fill="#FFA23C"/>
</g>
<mask id="mask28_565_1308" style="mask-type:luminance" maskUnits="userSpaceOnUse" x="0" y="0" width="420" height="260">
<path d="M419.293 0.376953H0V259.57H419.293V0.376953Z" fill="white"/>
</mask>
<g mask="url(#mask28_565_1308)">
<path d="M268.62 199.363H194.01V204.756H268.62V199.363Z" fill="#8327A2"/>
</g>
<mask id="mask29_565_1308" style="mask-type:luminance" maskUnits="userSpaceOnUse" x="0" y="0" width="420" height="260">
<path d="M419.293 0.376953H0V259.57H419.293V0.376953Z" fill="white"/>
</mask>
<g mask="url(#mask29_565_1308)">
<path d="M341.692 192.869C351.869 189.326 363.021 194.621 366.6 204.695H329.746C331.711 199.164 336.105 194.814 341.692 192.869Z" fill="#2BC5CB"/>
</g>
<mask id="mask30_565_1308" style="mask-type:luminance" maskUnits="userSpaceOnUse" x="0" y="0" width="420" height="260">
<path d="M419.293 0.376953H0V259.57H419.293V0.376953Z" fill="white"/>
</mask>
<g mask="url(#mask30_565_1308)">
<path d="M373.573 137.2L353.743 194.766C353.245 196.211 351.658 196.983 350.198 196.49C348.738 195.997 347.959 194.426 348.456 192.981L368.287 135.415C368.785 133.97 370.372 133.198 371.831 133.691C373.291 134.184 374.071 135.755 373.573 137.2Z" fill="#2BC5CB"/>
</g>
<mask id="mask31_565_1308" style="mask-type:luminance" maskUnits="userSpaceOnUse" x="0" y="0" width="420" height="260">
<path d="M419.293 0.376953H0V259.57H419.293V0.376953Z" fill="white"/>
</mask>
<g mask="url(#mask31_565_1308)">
<path d="M370.066 138.885L311.451 120.656C309.979 120.198 309.161 118.647 309.624 117.19C310.086 115.733 311.653 114.923 313.125 115.381L371.74 133.609C373.212 134.067 374.03 135.619 373.568 137.076C373.106 138.532 371.538 139.342 370.066 138.885Z" fill="#2BC5CB"/>
</g>
<mask id="mask32_565_1308" style="mask-type:luminance" maskUnits="userSpaceOnUse" x="0" y="0" width="420" height="260">
<path d="M419.293 0.376953H0V259.57H419.293V0.376953Z" fill="white"/>
</mask>
<g mask="url(#mask32_565_1308)">
<path d="M283.307 107.512C283.397 107.433 283.494 107.362 283.597 107.3L283.902 107.073C290.892 102.224 305.283 100.638 310.181 107.572C315.08 114.506 308.625 127.332 301.635 132.181L301.315 132.378C301.219 132.452 301.117 132.518 301.01 132.574C298.614 133.737 293.013 129.447 288.282 122.739C283.536 116.017 281.384 109.339 283.307 107.512Z" fill="#2BC5CB"/>
</g>
<mask id="mask33_565_1308" style="mask-type:luminance" maskUnits="userSpaceOnUse" x="0" y="0" width="420" height="260">
<path d="M419.293 0.376953H0V259.57H419.293V0.376953Z" fill="white"/>
</mask>
<g mask="url(#mask33_565_1308)">
<path d="M283.307 107.451L283.49 107.3H283.597C285.917 105.91 291.609 110.231 296.462 117.074C301.315 123.918 303.436 130.701 301.315 132.378C301.293 132.412 301.261 132.438 301.223 132.453L301.01 132.574C298.614 133.737 293.013 129.447 288.282 122.739C283.536 116.017 281.384 109.34 283.307 107.451Z" fill="white"/>
</g>
<mask id="mask34_565_1308" style="mask-type:luminance" maskUnits="userSpaceOnUse" x="0" y="0" width="420" height="260">
<path d="M419.293 0.376953H0V259.57H419.293V0.376953Z" fill="white"/>
</mask>
<g mask="url(#mask34_565_1308)">
<path d="M191.187 147.409L187.936 149.857L273.961 151.035L271 148.165L191.187 147.409Z" fill="#8327A2"/>
</g>
<mask id="mask35_565_1308" style="mask-type:luminance" maskUnits="userSpaceOnUse" x="0" y="0" width="420" height="260">
<path d="M419.293 0.376953H0V259.57H419.293V0.376953Z" fill="white"/>
</mask>
<g mask="url(#mask35_565_1308)">
<path d="M391.198 65.9067C390.749 71.4142 388.387 76.5979 384.513 80.5756C381.034 83.9718 378.559 88.2451 377.356 92.9332C377.02 94.3684 376.837 95.8489 376.578 97.4653H355.213C355.06 96.3927 354.953 95.3201 354.74 94.2777C353.84 89.745 351.666 85.5558 348.467 82.1921C345.64 79.3418 343.414 75.9626 341.921 72.2516C337.129 59.0705 344.039 44.54 357.355 39.7969C358.786 39.2871 360.26 38.9045 361.76 38.6535C362.446 38.5478 363.118 38.4722 363.774 38.4118C377.792 37.2565 390.103 47.5695 391.27 61.4467C391.395 62.9362 391.386 64.4338 391.243 65.9218L391.198 65.9067Z" fill="white"/>
</g>
<mask id="mask36_565_1308" style="mask-type:luminance" maskUnits="userSpaceOnUse" x="0" y="0" width="420" height="260">
<path d="M419.293 0.376953H0V259.57H419.293V0.376953Z" fill="white"/>
</mask>
<g mask="url(#mask36_565_1308)">
<path d="M355.884 97.42H377.066C378.6 97.42 379.844 98.651 379.844 100.17V100.185C379.844 101.703 378.6 102.934 377.066 102.934H355.884C354.35 102.934 353.107 101.703 353.107 100.185V100.17C353.107 98.651 354.35 97.42 355.884 97.42Z" fill="#36134A"/>
</g>
<mask id="mask37_565_1308" style="mask-type:luminance" maskUnits="userSpaceOnUse" x="0" y="0" width="420" height="260">
<path d="M419.293 0.376953H0V259.57H419.293V0.376953Z" fill="white"/>
</mask>
<g mask="url(#mask37_565_1308)">
<path d="M356.525 102.043H375.448C376.822 102.043 377.936 103.145 377.936 104.505C377.936 105.865 376.822 106.968 375.448 106.968H356.525C355.151 106.968 354.038 105.865 354.038 104.505C354.038 103.145 355.151 102.043 356.525 102.043Z" fill="#36134A"/>
</g>
<mask id="mask38_565_1308" style="mask-type:luminance" maskUnits="userSpaceOnUse" x="0" y="0" width="420" height="260">
<path d="M419.293 0.376953H0V259.57H419.293V0.376953Z" fill="white"/>
</mask>
<g mask="url(#mask38_565_1308)">
<path d="M357.777 106.076H374.212C375.401 106.076 376.364 107.03 376.364 108.207V108.222C376.364 109.398 375.401 110.352 374.212 110.352H357.777C356.588 110.352 355.625 109.398 355.625 108.222V108.207C355.625 107.03 356.588 106.076 357.777 106.076Z" fill="#36134A"/>
</g>
<mask id="mask39_565_1308" style="mask-type:luminance" maskUnits="userSpaceOnUse" x="0" y="0" width="420" height="260">
<path d="M419.293 0.376953H0V259.57H419.293V0.376953Z" fill="white"/>
</mask>
<g mask="url(#mask39_565_1308)">
<path d="M360.6 97.3444C360.436 93.4801 359.925 89.6379 359.074 85.8631C358.421 82.7295 357.948 79.5621 357.654 76.3758C357.319 71.5567 358.28 68.1878 360.6 66.0728C361.001 65.6509 361.543 65.3878 362.126 65.3326C362.759 65.327 363.369 65.5717 363.82 66.0124C363.896 65.9217 363.957 65.8311 364.033 65.7556C364.426 65.2626 364.957 64.8948 365.559 64.6981C366.177 64.5204 366.842 64.6081 367.391 64.9398C367.784 65.1673 368.122 65.4765 368.383 65.8462C369.03 65.4362 369.816 65.3001 370.565 65.4685C371.954 65.816 372.915 67.1152 373.327 69.2151C374.319 74.2608 373.236 79.3519 372.183 84.3221C371.077 88.4695 370.599 92.7561 370.763 97.0423L369.237 97.1782C369.054 92.7451 369.542 88.3097 370.687 84.02C371.755 79.0196 372.763 74.3062 371.832 69.5625C371.664 68.7166 371.236 67.2512 370.199 66.9943C369.826 66.9274 369.442 67.0089 369.13 67.2209C369.238 67.486 369.324 67.7587 369.39 68.0367C369.753 69.5203 369.933 71.0423 369.924 72.5688C369.952 73.0534 369.769 73.5265 369.421 73.868C369.102 74.1525 368.652 74.2449 368.245 74.1098C367.554 73.81 367.053 73.1957 366.902 72.4631C366.425 71.0566 366.336 69.5494 366.643 68.0972C366.771 67.6566 366.978 67.2422 367.253 66.8735C367.093 66.6155 366.873 66.3983 366.612 66.239C366.427 66.1206 366.199 66.0876 365.987 66.1484C365.674 66.2638 365.403 66.4689 365.208 66.7375C365.086 66.8735 364.995 67.0095 364.888 67.1454C366.145 68.8352 366.692 70.9415 366.414 73.0221C366.261 74.0645 365.636 75.0615 364.537 75.0615C363.763 74.9786 363.111 74.4515 362.874 73.717C361.947 71.6719 361.987 69.3253 362.98 67.3116H362.904C362.538 66.9642 362.309 66.8886 362.217 66.9037C362.007 66.9631 361.817 67.078 361.668 67.2361C359.73 69.0036 358.906 72.0703 359.211 76.3003C359.505 79.4247 359.968 82.5312 360.6 85.6063C361.462 89.471 361.973 93.4045 362.126 97.3595L360.6 97.3444ZM364.079 68.641C363.589 70.0745 363.66 71.6379 364.278 73.0221C364.351 73.2018 364.466 73.3621 364.613 73.4904C364.792 73.2879 364.899 73.0333 364.919 72.7653C365.078 71.3551 364.779 69.9314 364.064 68.7015L364.079 68.641ZM368.001 68.7921C367.894 69.8872 368.013 70.9924 368.352 72.0401C368.33 70.9686 368.208 69.9015 367.986 68.8525L368.001 68.7921Z" fill="#2BC5CB"/>
</g>
<path d="M52.7591 110.809H18.5349C14.8868 110.809 11.9294 107.882 11.9294 104.27V77.099C11.9294 73.4876 14.8868 70.5601 18.5349 70.5601H59.3646V104.27C59.3646 107.882 56.4073 110.809 52.7591 110.809Z" fill="white"/>
<path d="M47.8823 70.5601H69.3411L56.3529 86.7715L47.8823 70.5601Z" fill="white"/>
<path d="M46.956 80.0597L32.0704 94.7954L26.2201 89.0263L23.0352 92.1792L32.0704 101.123L50.141 83.2349L46.956 80.0597Z" fill="#43D2D7"/>
<defs>
<linearGradient id="paint0_linear_565_1308" x1="111.116" y1="140.056" x2="105.953" y2="171.297" gradientUnits="userSpaceOnUse">
<stop stop-color="#ED5FFF"/>
<stop offset="1" stop-color="#ED5FFF" stop-opacity="0"/>
</linearGradient>
<linearGradient id="paint1_linear_565_1308" x1="83.2415" y1="118.098" x2="144.618" y2="129.602" gradientUnits="userSpaceOnUse">
<stop stop-color="#C879D8"/>
<stop offset="0.463121" stop-color="#B461C5"/>
<stop offset="1" stop-color="#A049B2"/>
</linearGradient>
<linearGradient id="paint2_linear_565_1308" x1="233.61" y1="287.104" x2="223.501" y2="63.7817" gradientUnits="userSpaceOnUse">
<stop offset="0.01"/>
<stop offset="0.08" stop-opacity="0.69"/>
<stop offset="0.21" stop-opacity="0.32"/>
<stop offset="1" stop-opacity="0"/>
</linearGradient>
<linearGradient id="paint3_linear_565_1308" x1="231.923" y1="275.533" x2="225.746" y2="155.289" gradientUnits="userSpaceOnUse">
<stop offset="0.01"/>
<stop offset="0.08" stop-opacity="0.69"/>
<stop offset="0.21" stop-opacity="0.32"/>
<stop offset="1" stop-opacity="0"/>
</linearGradient>
</defs>
</svg>
