<?xml version="1.0" encoding="iso-8859-1"?>
<!-- Uploaded to: SVG Repo, www.svgrepo.com, Generator: SVG Repo Mixer Tools -->
<svg version="1.1" id="Layer_1" xmlns="http://www.w3.org/2000/svg" xmlns:xlink="http://www.w3.org/1999/xlink" 
	 viewBox="0 0 508 508" xml:space="preserve">
<circle style="fill:#324A5E;" cx="254" cy="254" r="254"/>
<path style="fill:#2B3B4E;" d="M43.7,396.4C89.4,463.8,166.5,508,254,508s164.6-44.2,210.3-111.6H43.7z"/>
<g>
	<rect x="406.6" y="225.4" style="fill:#F9B54C;" width="10.8" height="160.8"/>
	<rect x="292.9" y="225.4" style="fill:#F9B54C;" width="10.8" height="160.8"/>
	<rect x="179.3" y="225.4" style="fill:#F9B54C;" width="10.8" height="160.8"/>
</g>
<g>
	<rect x="154.8" y="380.2" style="fill:#FFD05B;" width="287.1" height="15.1"/>
	<rect x="154.8" y="239" style="fill:#FFD05B;" width="287.1" height="26"/>
	<rect x="154.8" y="274.8" style="fill:#FFD05B;" width="287.1" height="26"/>
	<rect x="154.8" y="310.7" style="fill:#FFD05B;" width="287.1" height="26"/>
	<rect x="154.8" y="346.5" style="fill:#FFD05B;" width="287.1" height="26"/>
</g>
<g>
	
		<rect x="162.451" y="121.887" transform="matrix(-0.3147 0.9492 -0.9492 -0.3147 345.5157 16.9176)" style="fill:#F9B54C;" width="8.4" height="22.6"/>
	
		<rect x="122.416" y="242.716" transform="matrix(-0.3147 0.9492 -0.9492 -0.3147 407.5712 213.7717)" style="fill:#F9B54C;" width="8.4" height="22.6"/>
	
		<rect x="82.421" y="363.48" transform="matrix(-0.3147 0.9492 -0.9492 -0.3147 469.6184 410.5021)" style="fill:#F9B54C;" width="8.4" height="22.6"/>
</g>
<g>
	
		<rect x="-27.658" y="245.633" transform="matrix(-0.3147 0.9492 -0.9492 -0.3147 390.1204 219.3044)" style="fill:#FFD05B;" width="287.102" height="9.7"/>
	
		<rect x="-6.193" y="252.719" transform="matrix(-0.3147 0.9492 -0.9492 -0.3147 425.0674 208.2464)" style="fill:#FFD05B;" width="287.102" height="9.7"/>
	<rect x="154.8" y="216.2" style="fill:#FFD05B;" width="287.1" height="15.1"/>
</g>
</svg>