<?xml version="1.0" encoding="iso-8859-1"?>
<!-- Uploaded to: SVG Repo, www.svgrepo.com, Generator: SVG Repo Mixer Tools -->
<svg version="1.1" id="Layer_1" xmlns="http://www.w3.org/2000/svg" xmlns:xlink="http://www.w3.org/1999/xlink" 
	 viewBox="0 0 480 480" xml:space="preserve">
<rect x="8" y="8" style="fill:#B88B34;" width="80" height="464"/>
<rect id="SVGCleanerId_0" x="80" y="8" style="fill:#B88B34;" width="80" height="464"/>
<g>
	<polygon style="fill:#C6A25D;" points="88,472 8,472 40,424 88,424 	"/>
	<polygon style="fill:#C6A25D;" points="88,104 40,104 8,8 88,8 	"/>
	<polygon style="fill:#C6A25D;" points="160,472 80,472 112,424 160,424 	"/>
	<polygon style="fill:#C6A25D;" points="160,104 112,104 80,8 160,8 	"/>
</g>
<path style="fill:#4D4D4D;" d="M88,0H8C7.024,0,6.088,0.232,5.2,0.568C5.032,0.624,4.872,0.672,4.712,0.744
	C3.904,1.112,3.168,1.608,2.52,2.224c-0.136,0.128-0.24,0.264-0.368,0.4c-0.216,0.232-0.456,0.44-0.64,0.696
	c-0.32,0.448-0.568,0.928-0.784,1.424c-0.032,0.072-0.08,0.12-0.104,0.192c-0.368,0.88-0.52,1.816-0.56,2.76C0.056,7.8,0,7.896,0,8
	v464c0,0.128,0.064,0.24,0.072,0.368c0.04,0.792,0.192,1.56,0.472,2.32c0.08,0.232,0.144,0.448,0.248,0.672
	c0.064,0.136,0.08,0.288,0.152,0.416c0.368,0.68,0.832,1.288,1.352,1.824c0.088,0.088,0.192,0.144,0.28,0.224
	c0.592,0.544,1.256,0.984,1.976,1.328c0.224,0.112,0.448,0.208,0.68,0.296C6.12,479.768,7.032,480,8,480h80c4.416,0,8-3.576,8-8v-48
	V104V8C96,3.576,92.416,0,88,0z M16,57.304l16.408,49.232C33.504,109.8,36.552,112,40,112h40v304H40
	c-2.672,0-5.168,1.336-6.656,3.56L16,445.576V57.304z M80,16v80H45.768L19.096,16H80z M80,464H22.952l21.336-32H80V464z"/>
<g>
	<rect id="SVGCleanerId_0_1_" x="80" y="8" style="fill:#B88B34;" width="80" height="464"/>
</g>
<g>
	<polygon style="fill:#C6A25D;" points="160,472 80,472 112,424 160,424 	"/>
	<polygon style="fill:#C6A25D;" points="160,104 112,104 80,8 160,8 	"/>
</g>
<path style="fill:#4D4D4D;" d="M160,0H80c-0.976,0-1.912,0.232-2.8,0.568c-0.168,0.064-0.328,0.112-0.488,0.184
	c-0.808,0.368-1.536,0.864-2.184,1.472c-0.136,0.128-0.24,0.264-0.368,0.4c-0.216,0.232-0.456,0.44-0.64,0.696
	c-0.32,0.448-0.568,0.928-0.784,1.424c-0.032,0.072-0.08,0.12-0.104,0.192c-0.368,0.88-0.52,1.816-0.56,2.76
	C72.056,7.8,72,7.896,72,8v464c0,0.128,0.064,0.24,0.072,0.368c0.04,0.792,0.192,1.56,0.472,2.32
	c0.08,0.232,0.144,0.448,0.248,0.672c0.064,0.136,0.08,0.288,0.152,0.416c0.368,0.68,0.832,1.288,1.352,1.824
	c0.088,0.088,0.192,0.144,0.28,0.224c0.592,0.544,1.256,0.984,1.976,1.328c0.224,0.112,0.448,0.208,0.68,0.296
	C78.12,479.768,79.032,480,80,480h80c4.416,0,8-3.576,8-8v-48V104V8C168,3.576,164.416,0,160,0z M88,57.304l16.408,49.232
	C105.504,109.8,108.552,112,112,112h40v304h-40c-2.672,0-5.168,1.336-6.656,3.56L88,445.576V57.304z M152,16v80h-34.232L91.096,16
	H152z M152,464H94.952l21.336-32H152V464z"/>
<rect x="152" y="8" style="fill:#F5B945;" width="320" height="464"/>
<g>
	<polygon style="fill:#F7C76A;" points="472,472 152,472 184,424 440,424 	"/>
	<polygon style="fill:#F7C76A;" points="440,104 184,104 152,8 472,8 	"/>
</g>
<g>
	<path style="fill:#4D4D4D;" d="M479.928,472.376c0-0.136,0.072-0.24,0.072-0.376V8c0-0.104-0.056-0.192-0.064-0.296
		c-0.032-0.952-0.192-1.888-0.56-2.768c-0.024-0.064-0.072-0.112-0.096-0.176c-0.224-0.496-0.464-0.984-0.792-1.432
		c-0.192-0.264-0.432-0.472-0.648-0.704c-0.12-0.136-0.232-0.272-0.36-0.392c-0.648-0.616-1.384-1.112-2.184-1.472
		c-0.16-0.072-0.328-0.12-0.496-0.184C473.912,0.232,472.976,0,472,0H152c-0.976,0-1.912,0.232-2.8,0.568
		c-0.168,0.064-0.328,0.112-0.488,0.184c-0.808,0.368-1.536,0.864-2.184,1.472c-0.136,0.128-0.24,0.264-0.368,0.4
		c-0.216,0.232-0.456,0.44-0.64,0.696c-0.32,0.448-0.568,0.928-0.784,1.424c-0.032,0.072-0.08,0.12-0.104,0.192
		c-0.368,0.88-0.52,1.816-0.56,2.76C144.056,7.8,144,7.896,144,8v464c0,0.128,0.064,0.24,0.072,0.368
		c0.04,0.792,0.192,1.56,0.472,2.32c0.08,0.232,0.144,0.448,0.248,0.672c0.064,0.136,0.08,0.288,0.152,0.416
		c0.368,0.68,0.832,1.288,1.352,1.824c0.088,0.088,0.192,0.144,0.28,0.224c0.592,0.544,1.256,0.984,1.976,1.328
		c0.224,0.112,0.448,0.208,0.68,0.296c0.888,0.32,1.8,0.552,2.768,0.552h320c0.968,0,1.888-0.232,2.768-0.56
		c0.24-0.088,0.456-0.184,0.68-0.296c0.728-0.352,1.392-0.784,1.984-1.336c0.088-0.08,0.192-0.136,0.272-0.216
		c0.528-0.536,0.992-1.144,1.352-1.824c0.072-0.136,0.088-0.28,0.152-0.416c0.104-0.224,0.168-0.448,0.248-0.68
		C479.728,473.928,479.888,473.16,479.928,472.376z M184,416c-2.672,0-5.168,1.336-6.656,3.56L160,445.576V57.304l16.408,49.232
		C177.504,109.8,180.552,112,184,112h120v304H184z M320,112h120c3.448,0,6.496-2.2,7.584-5.472L464,57.288v388.288l-17.344-26.016
		c-1.488-2.224-3.984-3.56-6.656-3.56H320V112z M460.896,16l-26.664,80H189.768l-26.672-80H460.896z M166.952,464l21.336-32h247.44
		l21.336,32H166.952z"/>
	<path style="fill:#4D4D4D;" d="M232,64h59.304c3.248,8.584,11.496,14.736,21.208,14.736S330.472,72.592,333.72,64H392
		c4.424,0,8-3.576,8-8s-3.576-8-8-8h-58.288c-3.248-8.584-11.496-14.736-21.208-14.736s-17.952,6.152-21.2,14.736H232
		c-4.416,0-8,3.576-8,8S227.584,64,232,64z M312.504,49.264c3.712,0,6.736,3.024,6.736,6.736s-3.024,6.736-6.736,6.736
		s-6.728-3.024-6.728-6.736S308.8,49.264,312.504,49.264z"/>
</g>
</svg>