<?xml version="1.0" encoding="iso-8859-1"?>
<!-- Uploaded to: SVG Repo, www.svgrepo.com, Generator: SVG Repo Mixer Tools -->
<svg height="800px" width="800px" version="1.1" id="Layer_1" xmlns="http://www.w3.org/2000/svg" xmlns:xlink="http://www.w3.org/1999/xlink" 
	 viewBox="0 0 480 480" xml:space="preserve">
<g transform="translate(0 -540.36)">
	<g shape-rendering="auto" image-rendering="auto" color-rendering="auto" color-interpolation="sRGB">
		<path style="fill:#383D5B;" d="M378.93,853.131c-19.813,0-35.918,16.105-35.918,35.918s16.105,35.918,35.918,35.918
			s35.918-16.105,35.918-35.918S398.743,853.131,378.93,853.131z"/>
		<path style="fill:#222943;" d="M378.93,857.211c17.608,0,31.836,14.23,31.836,31.838s-14.228,31.838-31.836,31.838
			s-31.838-14.23-31.838-31.838S361.323,857.211,378.93,857.211z"/>
		<path style="fill:#B2C0C9;" d="M378.93,869.058c-11,0-19.99,8.99-19.99,19.99s8.99,19.99,19.99,19.99s19.99-8.99,19.99-19.99
			S389.93,869.058,378.93,869.058z"/>
		<path style="fill:#CAD6E2;" d="M378.93,875.859c7.325,0,13.189,5.865,13.189,13.189s-5.865,13.189-13.189,13.189
			c-7.325,0-13.189-5.865-13.189-13.189S371.605,875.859,378.93,875.859z"/>
		<path style="fill:#383D5B;" d="M120.149,853.131c-19.813,0-35.918,16.105-35.918,35.918s16.105,35.918,35.918,35.918
			s35.918-16.105,35.918-35.918S139.962,853.131,120.149,853.131z"/>
		<path style="fill:#222943;" d="M120.149,857.211c17.608,0,31.836,14.23,31.836,31.838s-14.228,31.838-31.836,31.838
			s-31.838-14.23-31.838-31.838S102.542,857.211,120.149,857.211z"/>
		<path style="fill:#B2C0C9;" d="M120.149,869.058c-11,0-19.99,8.99-19.99,19.99c0,11,8.99,19.99,19.99,19.99
			s19.99-8.99,19.99-19.99S131.15,869.058,120.149,869.058z"/>
		<path style="fill:#CAD6E2;" d="M120.149,875.859c7.325,0,13.189,5.865,13.189,13.189s-5.865,13.189-13.189,13.189
			s-13.189-5.865-13.189-13.189S112.825,875.859,120.149,875.859z"/>
	</g>
	<path style="fill:#DBEDFB;" d="M321.15,697.387c11.228-0.013,22.236,0.028,28.718,0.194c21.097,0.539,34.283,46.036,56.108,64.269
		c15.716,13.13,43.373,22.394,52.731,31.526c12.651,12.345,21.421,29.403,21.292,46.429c-0.078,10.266-1.896,27.183-13.262,27.799
		c-11.457,0.62-26.257,1.065-39.99,1.382l-16.716-26.461l-65.127,0.141l-15.589,26.979h-31.454l-14.763-21.159l0.015-150.904
		C283.112,697.581,302.437,697.409,321.15,697.387L321.15,697.387z"/>
	<path style="fill:#BFD0DE;" d="M3.648,635.753h279.464v190.426H3.648L3.648,635.753z"/>
	<g shape-rendering="auto" image-rendering="auto" color-rendering="auto" color-interpolation="sRGB">
		<path style="fill:#354760;" d="M293.472,710.674c-0.657-0.001-1.191,0.532-1.191,1.189c0,0,0,0,0,0v67.33
			c0,0.657,0.534,1.19,1.191,1.189c0,0,0,0,0,0h105.117c0.657-0.001,1.19-0.535,1.189-1.192c0-0.243-0.075-0.48-0.214-0.679
			l-47.061-67.33c-0.223-0.319-0.588-0.508-0.977-0.508H293.472z"/>
		<path style="fill:#525B79;" d="M294.661,713.054h56.246l45.396,64.947H294.661V713.054z"/>
	</g>
	<path style="fill:#354760;" d="M351.53,711.068h-2.38v69.009h2.38V711.068z"/>
	<path style="fill:#DBEDFB;" d="M349.065,706.308h-3.4v78.53h3.4V706.308z"/>
	<path style="fill:#354760;" d="M345.664,711.068h-2.38v69.009h2.38V711.068z"/>
	<g>
		<path style="fill:#3B3C3D;" d="M297.839,869.622L162,869.703l-20.939-20.892l-43.066-0.1l-17.772,20.974l-69.277,0.173
			l-3.251-9.472h22.121l-1.924-15.148H0l0.112-4.899l6.121-0.17l5.781-4.931l271.063,0.569L297.839,869.622z"/>
		<path style="fill:#525B79;" d="M342.421,836.04l-18.58,33.605h5.473l15.59-26.979l65.127-0.141l16.717,26.459
			c13.733-0.317,28.533-0.761,39.99-1.381c8.559-0.463,11.701-10.171,12.766-19.322h-57.51l-7.482-11.9L342.421,836.04z"/>
		<path style="fill:#DBEDFB;" d="M93.849,843.182l-21.664,26.523l8.039-0.019l17.771-20.975l43.066,0.1l20.939,20.893l135.635-0.082
			l-3.721-8.115l-130.154-0.34l-18.566-17.645L93.849,843.182L93.849,843.182z"/>
	</g>
	<path style="fill:#9EB3C1;" d="M304.115,791.827h-9.385c-1.356,0-2.448,1.009-2.448,2.263v3.636c0,1.253,1.092,2.263,2.448,2.263
		h9.385c1.356,0,2.448-1.009,2.448-2.263v-3.636C306.563,792.836,305.471,791.827,304.115,791.827z"/>
	<g shape-rendering="auto" image-rendering="auto" color-rendering="auto" color-interpolation="sRGB">
		<path style="fill:#99A6B2;" d="M58.733,705.109v13.167v28.978h23.251h122.789h0.005h23.247v-28.976v-13.169H58.737H58.733
			L58.733,705.109z M26.183,718.283l13.947,21.071l-13.947,21.071h55.782l-23.238-13.166v-28.976H26.186H26.183L26.183,718.283z
			 M228.034,718.283v28.976l-23.238,13.166h55.781l-13.947-21.071l13.947-21.071h-0.003H228.034L228.034,718.283z M58.749,747.265
			l23.231,13.161v-13.161H58.749z M204.781,747.265v13.161l23.231-13.161H204.781z"/>
		<path style="fill:#3B3C3D;" d="M58.255,703.306v13.167l0,0l0,0l0,0v28.978h23.251h122.789h0.005h23.247v-28.976l0,0l0,0l0,0
			v-13.169H58.258H58.255z M25.704,716.48l13.947,21.071l0,0l0,0l0,0l0,0l0,0l0,0l0,0l0,0l0,0l-13.947,21.071h55.782l-23.238-13.165
			l0,0l0,0l0,0l0,0l0,0l0,0l0,0l0,0l0,0l0,0l0,0V716.48H25.707H25.704z M227.553,716.48v28.976l0,0l0,0l0,0l0,0l0,0l0,0l0,0l0,0l0,0
			l0,0l0,0l0,0h-0.005l-23.236,13.164h55.782l-13.947-21.071l0,0l0,0l0,0l0,0l0,0l0,0l0,0l0,0l0,0l13.947-21.071h-32.541
			L227.553,716.48z M58.268,745.463l23.231,13.161v-13.161H58.268z M204.3,745.463v13.161l23.23-13.161H204.3z"/>
		<path style="fill:#E74C3C;" d="M58.268,745.462h23.231v13.161L58.268,745.462z"/>
		<path style="fill:#B93D30;" d="M58.399,745.462l23.1,1.761v-1.761H58.399z"/>
		<path style="fill:#E74C3C;" d="M227.531,745.462h-23.231v13.161L227.531,745.462z"/>
		<path style="fill:#B93D30;" d="M204.3,745.462v1.256l23.1-1.256H204.3z"/>
		<path style="fill:#E74C3C;" d="M260.094,716.48h-32.541v28.977l0,0l0,0l0,0l0,0l0,0l0,0l0,0l0,0l0,0l0,0l0,0l-23.238,13.165
			h55.782l-13.947-21.071l0,0l0,0l0,0l0,0l0,0l0,0l0,0l0,0l0,0l13.947-21.071L260.094,716.48z"/>
		<g>
			<path style="fill:#B93D30;" d="M229.307,704.739v13.168v0.001v0.001v0.001v28.978H204.25H71.917h-0.002H46.862V717.91v-0.001
				v-0.001v-0.001v-13.169H229.307L229.307,704.739z M229.293,746.896l-25.861,12.216l0.824-12.216H229.293z"/>
		</g>
		<g>
			<path style="fill:#E74C3C;" d="M58.255,703.306h169.289v13.169l0,0l0,0l0,0v28.976h-23.247h-0.005H81.502H58.252v-28.978l0,0l0,0
				l0,0v-13.167L58.255,703.306z"/>
			<path style="fill:#E74C3C;" d="M25.704,716.48h32.541v28.977l0,0l0,0l0,0l0,0l0,0l0,0l0,0l0,0l0,0l0,0l0,0l23.238,13.165H25.702
				l13.947-21.071l0,0l0,0l0,0l0,0l0,0l0,0l0,0l0,0l0,0l-13.947-21.071L25.704,716.48z"/>
		</g>
		<g>
			<path style="fill:#B93D30;" d="M56.489,716.479v1.43v0.002v28.977h4.283l-2.527-1.432v-28.977L56.489,716.479L56.489,716.479z"/>
			<path style="fill:#B93D30;" d="M56.503,746.897l24.631,11.525L60.79,746.897H56.503z"/>
		</g>
	</g>
	<path style="fill:#B93D30;" d="M215.877,714.258c-0.378,0.014-0.692,0.298-0.742,0.673l-0.173,1.305l-1.297-0.273
		c-0.42-0.088-0.832,0.182-0.919,0.602c-0.073,0.35,0.102,0.704,0.424,0.859l1.188,0.568l-0.661,1.15
		c-0.214,0.372-0.085,0.847,0.287,1.061c0.31,0.178,0.702,0.121,0.949-0.138l0.907-0.954l0.889,0.983
		c0.289,0.318,0.78,0.341,1.098,0.052c0.264-0.24,0.331-0.629,0.162-0.943l-0.626-1.158l1.209-0.542
		c0.391-0.176,0.566-0.636,0.39-1.027c-0.147-0.326-0.497-0.51-0.849-0.446l-1.294,0.238l-0.141-1.318
		C216.634,714.546,216.285,714.243,215.877,714.258L215.877,714.258z M67.954,717.111v18.408h3.922v-6.891h4.278v-4.14h-4.278
		v-2.994h5.566v-4.383C77.441,717.111,67.954,717.111,67.954,717.111z M78.72,717.111v18.408h4.027v-7.039h1.269l1.913,7.039h4.47
		l-2.374-8.024c0.936-0.62,1.557-1.335,1.865-2.145c0.308-0.818,0.462-1.757,0.462-2.818c0-1.627-0.42-2.935-1.259-3.924
		c-0.833-0.998-2.006-1.497-3.518-1.497C85.573,717.111,78.72,717.111,78.72,717.111z M92.292,717.111v18.408h9.872v-4.396h-5.922
		v-3.007h4.787v-4.086h-4.787v-2.67h5.922v-4.248L92.292,717.111L92.292,717.111z M103.75,717.111v18.408h9.871v-4.396H107.7v-3.007
		h4.787v-4.086H107.7v-2.67h5.921v-4.248L103.75,717.111L103.75,717.111z M120.128,717.111v18.408h5.325
		c1.878,0,3.403-0.858,4.575-2.576c1.179-1.726,1.769-3.965,1.769-6.716c0-2.409-0.548-4.531-1.644-6.365
		c-1.096-1.834-2.746-2.751-4.951-2.751H120.128z M133.508,717.111v18.408h9.871v-4.396h-5.921v-3.007h4.787v-4.086h-4.787v-2.67
		h5.921v-4.248L133.508,717.111L133.508,717.111z M144.966,717.111v18.408h9.198v-4.518h-5.171v-13.89H144.966z M155.578,717.111
		v18.408h4.027v-18.408H155.578z M160.806,717.111l4.249,18.408h4.104l4.075-18.408h-3.316l-2.422,11.787
		c-0.109-0.575-0.234-1.16-0.375-1.753l-2.067-10.033L160.806,717.111L160.806,717.111z M174.455,717.111v18.408h9.872v-4.396
		h-5.922v-3.007h4.787v-4.086h-4.787v-2.67h5.922v-4.248L174.455,717.111L174.455,717.111z M185.913,717.111v18.408h4.027v-7.039
		h1.268l1.913,7.039h4.47l-2.374-8.024c0.936-0.62,1.557-1.335,1.865-2.145c0.308-0.818,0.461-1.757,0.461-2.818
		c0-1.627-0.419-2.935-1.259-3.924c-0.833-0.998-2.006-1.497-3.518-1.497H185.913z M197.563,717.111l4.412,10.613v7.794h3.913
		v-7.794l4.104-10.613h-3.518l-2.202,6.055l-2.297-6.055H197.563z M82.747,721.022h1.855c1.032,0,1.547,0.589,1.547,1.767
		c0,0.575-0.154,1.012-0.462,1.308s-0.714,0.445-1.221,0.445h-1.72V721.022z M189.941,721.022h1.855
		c1.032,0,1.547,0.589,1.547,1.767c0,0.575-0.154,1.012-0.462,1.308c-0.308,0.297-0.714,0.445-1.221,0.445h-1.72V721.022z
		 M124.156,721.292h1.047c0.769,0,1.356,0.485,1.759,1.456c0.41,0.971,0.615,2.127,0.615,3.466c0,1.564-0.231,2.801-0.692,3.709
		c-0.455,0.908-1.016,1.362-1.682,1.362h-1.047L124.156,721.292L124.156,721.292z"/>
	<g>
		<path style="fill:#FFFFFF;" d="M75.558,728.118h-4.277v6.891h-3.922v-18.408h9.487v4.383h-5.565v2.994h4.277
			C75.558,723.978,75.558,728.118,75.558,728.118z"/>
		<path style="fill:#FFFFFF;" d="M89.803,735.009h-4.47l-1.913-7.04h-1.269v7.04h-4.027v-18.408h6.853
			c1.512,0,2.685,0.499,3.518,1.497c0.839,0.989,1.259,2.297,1.259,3.924c0,1.061-0.154,2-0.461,2.819
			c-0.308,0.809-0.929,1.524-1.865,2.144L89.803,735.009L89.803,735.009z M82.152,724.032h1.721c0.506,0,0.913-0.148,1.221-0.445
			c0.308-0.297,0.461-0.733,0.461-1.308c0-1.178-0.516-1.767-1.548-1.767h-1.855L82.152,724.032L82.152,724.032z"/>
		<path style="fill:#FFFFFF;" d="M101.568,730.613v4.396h-9.872v-18.408h9.872v4.248h-5.921v2.67h4.787v4.086h-4.787v3.007
			L101.568,730.613L101.568,730.613z"/>
		<path style="fill:#FFFFFF;" d="M113.026,730.613v4.396h-9.872v-18.408h9.872v4.248h-5.921v2.67h4.787v4.086h-4.787v3.007
			L113.026,730.613L113.026,730.613z"/>
		<path style="fill:#FFFFFF;" d="M119.533,735.009v-18.408h5.075c2.204,0,3.854,0.917,4.95,2.751
			c1.096,1.834,1.644,3.956,1.644,6.365c0,2.751-0.59,4.99-1.769,6.716c-1.173,1.717-2.698,2.576-4.575,2.576H119.533
			L119.533,735.009z M123.561,730.775h1.048c0.666,0,1.227-0.454,1.682-1.362c0.461-0.908,0.692-2.144,0.692-3.709
			c0-1.34-0.205-2.495-0.615-3.466c-0.404-0.971-0.99-1.456-1.759-1.456h-1.048L123.561,730.775L123.561,730.775z"/>
		<path style="fill:#FFFFFF;" d="M142.785,730.613v4.396h-9.872v-18.408h9.872v4.248h-5.921v2.67h4.787v4.086h-4.787v3.007
			L142.785,730.613L142.785,730.613z"/>
		<path style="fill:#FFFFFF;" d="M153.569,730.492v4.518h-9.199v-18.408h4.027v13.89L153.569,730.492L153.569,730.492z"/>
		<path style="fill:#FFFFFF;" d="M159.01,716.601v18.408h-4.027v-18.408H159.01z"/>
		<path style="fill:#FFFFFF;" d="M172.64,716.601l-4.076,18.408h-4.104l-4.249-18.408h4.249l2.067,10.033
			c0.141,0.593,0.266,1.178,0.375,1.753l2.422-11.787H172.64L172.64,716.601z"/>
		<path style="fill:#FFFFFF;" d="M183.732,730.613v4.396h-9.872v-18.408h9.872v4.248h-5.921v2.67h4.787v4.086h-4.787v3.007
			L183.732,730.613L183.732,730.613z"/>
		<path style="fill:#FFFFFF;" d="M196.997,735.009h-4.47l-1.913-7.04h-1.269v7.04h-4.027v-18.408h6.853
			c1.512,0,2.685,0.499,3.518,1.497c0.839,0.989,1.259,2.297,1.259,3.924c0,1.061-0.154,2-0.461,2.819
			c-0.308,0.809-0.929,1.524-1.865,2.144L196.997,735.009L196.997,735.009z M189.345,724.032h1.721c0.506,0,0.913-0.148,1.221-0.445
			s0.461-0.733,0.461-1.308c0-1.178-0.516-1.767-1.548-1.767h-1.855V724.032L189.345,724.032z"/>
		<path style="fill:#FFFFFF;" d="M209.396,716.601l-4.104,10.613v7.795h-3.912v-7.795l-4.412-10.613h4.412l2.297,6.055l2.201-6.055
			H209.396L209.396,716.601z"/>
		
			<path shape-rendering="auto" image-rendering="auto" color-rendering="auto" color-interpolation="sRGB" style="fill:#FFFFFF;" d="
			M215.282,713.748c-0.378,0.014-0.692,0.298-0.742,0.674l-0.173,1.305l-1.297-0.273c-0.42-0.088-0.832,0.181-0.92,0.601
			c-0.073,0.35,0.102,0.705,0.425,0.86l1.188,0.568l-0.661,1.15c-0.214,0.372-0.085,0.847,0.287,1.061
			c0.311,0.178,0.703,0.121,0.95-0.138l0.907-0.954l0.889,0.983c0.288,0.318,0.78,0.342,1.098,0.054
			c0.265-0.24,0.332-0.63,0.162-0.945l-0.627-1.158l1.21-0.542c0.391-0.176,0.566-0.636,0.391-1.027
			c-0.146-0.326-0.497-0.51-0.849-0.446l-1.295,0.238l-0.141-1.318C216.039,714.035,215.69,713.733,215.282,713.748L215.282,713.748
			z"/>
	</g>
	<path style="fill:#9EB3C1;" d="M472.897,830.77c-1.356,0-2.449,1.008-2.449,2.262v3.637c0,1.253,1.093,2.262,2.449,2.262h7.094
		c-0.028-2.728-0.29-5.454-0.75-8.16H472.897z"/>
	<g>
		<path style="fill:#EA6153;" d="M264.041,830.005h-2.04c-1.884,0-3.4,1.517-3.4,3.4v7.736c0,1.884,1.517,3.4,3.4,3.4h2.04
			c1.884,0,3.4-1.517,3.4-3.4v-7.736C267.441,831.521,265.925,830.005,264.041,830.005z"/>
		<path style="fill:#EA6153;" d="M13.441,830.005H11.4c-1.884,0-3.4,1.517-3.4,3.4v7.736c0,1.884,1.517,3.4,3.4,3.4h2.04
			c1.884,0,3.4-1.517,3.4-3.4v-7.736C16.841,831.521,15.324,830.005,13.441,830.005z"/>
	</g>
	<path style="fill:#9EB3C1;" d="M0.534,826.179h282.578v9.861H0.534L0.534,826.179z"/>
</g>
</svg>