<svg width="420" height="228" viewBox="0 0 420 228" fill="none" xmlns="http://www.w3.org/2000/svg">
<mask id="mask0_565_1185" style="mask-type:luminance" maskUnits="userSpaceOnUse" x="0" y="0" width="420" height="228">
<path d="M419.293 0H0V227.561H419.293V0Z" fill="white"/>
</mask>
<g mask="url(#mask0_565_1185)">
<path d="M406.723 227.561H12.5702C5.62787 227.561 0 221.99 0 215.118V38.8058C0 31.9334 5.62787 26.3622 12.5702 26.3622H406.723C413.665 26.3622 419.293 31.9334 419.293 38.8058V215.118C419.293 221.99 413.665 227.561 406.723 227.561Z" fill="#FDE3C1"/>
</g>
<mask id="mask1_565_1185" style="mask-type:luminance" maskUnits="userSpaceOnUse" x="0" y="0" width="420" height="228">
<path d="M419.293 0H0V227.561H419.293V0Z" fill="white"/>
</mask>
<g mask="url(#mask1_565_1185)">
<path d="M361.696 177.579C361.702 180.519 360.478 183.33 358.314 185.344C356.481 187.068 354.115 188.131 351.598 188.362C351.127 188.401 350.655 188.401 350.184 188.362L271.317 186.79C265.03 186.722 259.94 181.712 259.837 175.488C259.826 172.549 261.038 169.735 263.188 167.708C265.377 165.647 268.296 164.518 271.317 164.564H274.001C273.446 162.637 273.162 160.643 273.159 158.638C273.15 152.849 275.551 147.311 279.796 143.329C281.65 141.574 283.799 140.154 286.147 139.132C289.19 137.819 292.484 137.176 295.801 137.246L302.502 137.387C310.992 137.559 318.714 142.294 322.652 149.742C324.584 148.832 326.705 148.385 328.844 148.437H330.575C338.039 148.513 344.086 154.457 344.214 161.845V162.489C344.213 163.714 344.031 164.932 343.674 166.105L350.2 166.23C356.501 166.314 361.594 171.341 361.696 177.579Z" fill="white"/>
</g>
<mask id="mask2_565_1185" style="mask-type:luminance" maskUnits="userSpaceOnUse" x="0" y="0" width="420" height="228">
<path d="M419.293 0H0V227.561H419.293V0Z" fill="white"/>
</mask>
<g mask="url(#mask2_565_1185)">
<path d="M279.78 166.89L274.048 164.737C273.493 162.81 273.21 160.815 273.207 158.811C273.198 153.022 275.598 147.484 279.844 143.502C281.697 141.747 283.847 140.326 286.195 139.305C270.333 152.76 279.78 166.89 279.78 166.89Z" fill="url(#paint0_linear_565_1185)"/>
</g>
<mask id="mask3_565_1185" style="mask-type:luminance" maskUnits="userSpaceOnUse" x="0" y="0" width="420" height="228">
<path d="M419.293 0H0V227.561H419.293V0Z" fill="white"/>
</mask>
<g mask="url(#mask3_565_1185)">
<path d="M309.361 182.169C309.388 203.111 302.502 223.489 289.752 240.201L289.545 240.484C257.016 282.925 195.889 291.225 153.016 259.023C110.143 226.821 101.758 166.311 134.288 123.869C166.818 81.428 227.944 73.1276 270.817 105.33C295.097 123.566 309.359 151.998 309.361 182.169Z" fill="#FFA23C"/>
</g>
<mask id="mask4_565_1185" style="mask-type:luminance" maskUnits="userSpaceOnUse" x="0" y="0" width="420" height="228">
<path d="M419.293 0H0V227.561H419.293V0Z" fill="white"/>
</mask>
<g mask="url(#mask4_565_1185)">
<path d="M180.557 134.715C175.206 136.9 169.3 137.419 163.806 139.211C158.312 141.002 152.802 144.618 151.389 150.213C150.659 153.027 151.04 156.155 149.642 158.701C147.785 162.128 143.434 163.417 140.798 166.246C135.781 171.716 139.083 181.1 145.212 185.328C151.341 189.556 159.169 190.201 166.505 191.442C168.512 191.601 170.426 192.351 171.999 193.596C176.27 197.635 171.538 204.944 173.349 210.509C174.365 213.652 177.366 215.806 178.731 218.824C181.351 224.577 177.382 230.927 174.762 236.68C170.036 247.175 169.609 259.076 173.571 269.877C173.388 270.137 173.187 270.384 172.967 270.615C162.518 266.076 152.948 259.768 144.688 251.974C136.638 240.798 130.271 228.616 130.938 215.224C131.303 207.962 133.748 200.952 134.209 193.722C134.971 181.98 130.684 169.232 136.495 158.984C139.671 153.31 145.863 147.085 142.402 141.584C136.289 142.464 129.699 142.606 124.094 140.499C138.059 111.701 165.513 91.6095 197.42 86.8372C203.454 103.907 198.658 127.17 180.557 134.715Z" fill="url(#paint1_linear_565_1185)"/>
</g>
<mask id="mask5_565_1185" style="mask-type:luminance" maskUnits="userSpaceOnUse" x="0" y="0" width="420" height="228">
<path d="M419.293 0H0V227.561H419.293V0Z" fill="white"/>
</mask>
<g mask="url(#mask5_565_1185)">
<path d="M309.361 182.169C309.368 188.271 308.789 194.361 307.631 200.355C305.042 202.439 302.616 204.714 300.374 207.161C292.673 216.089 291.006 228.475 289.752 240.169C289.752 240.421 289.752 240.672 289.672 240.908C289.672 240.751 289.672 240.609 289.545 240.452C288.933 237.449 287.61 234.632 285.687 232.231C283.496 229.889 279.606 228.726 276.938 230.565C275.668 227.422 274.392 224.304 273.111 221.213C265.172 221.213 256.979 221.213 249.516 218.431C242.054 215.649 235.877 210.32 229.907 205.117C230.69 196.102 230.52 187.031 229.399 178.051C252.59 175.559 274.042 164.698 289.656 147.541C275.692 146.852 261.846 150.388 249.961 157.68C247.42 159.251 244.848 161.012 241.879 161.263C239.997 161.31 238.121 161.055 236.321 160.509L217.125 155.683C214.727 143.455 223.285 131.179 234.289 125.127C242.546 120.6 252.565 121.48 260.488 117.519C265.919 114.816 267.506 110.085 272.254 106.611H272.349C295.715 124.864 309.352 152.703 309.361 182.169Z" fill="url(#paint2_linear_565_1185)"/>
</g>
<mask id="mask6_565_1185" style="mask-type:luminance" maskUnits="userSpaceOnUse" x="0" y="0" width="420" height="228">
<path d="M419.293 0H0V227.561H419.293V0Z" fill="white"/>
</mask>
<g mask="url(#mask6_565_1185)">
<path d="M190.306 103.074C186.891 102.781 183.454 102.833 180.049 103.231C179.604 103.254 179.172 103.389 178.795 103.624C178.356 104.033 178.104 104.6 178.096 105.196C177.62 109.754 181.272 113.715 185.209 116.12C195.864 122.659 209.297 122.408 221.062 126.683C222.185 126.977 223.182 127.622 223.905 128.522C224.395 129.497 224.635 130.577 224.603 131.666C225.127 137.812 228.573 143.344 229.716 149.396C230.859 155.448 232.004 160.375 232.941 166.473C242.931 173.451 242.635 173.851 246.494 169.827C250.114 166.118 249.199 149.899 249.739 144.775L251.199 130.723C251.759 128.626 250.657 126.444 248.627 125.63C231.256 114.517 210.9 104.835 190.306 103.074Z" fill="url(#paint3_linear_565_1185)"/>
</g>
<mask id="mask7_565_1185" style="mask-type:luminance" maskUnits="userSpaceOnUse" x="0" y="0" width="420" height="228">
<path d="M419.293 0H0V227.561H419.293V0Z" fill="white"/>
</mask>
<g mask="url(#mask7_565_1185)">
<path d="M242.069 162.631C241.498 164.485 240.958 166.655 242.069 168.211C242.616 168.876 243.335 169.382 244.15 169.673C246.083 170.586 248.371 170.35 250.072 169.06C250.944 168.116 251.561 166.97 251.866 165.727C253.351 161.217 254.414 156.582 255.042 151.879C255.162 151.447 255.162 150.991 255.042 150.559C254.794 150.106 254.396 149.751 253.915 149.553C251.39 148.217 247.436 147.148 245.976 150.103C244.181 153.907 243.34 158.607 242.069 162.631Z" fill="#A66763"/>
</g>
<mask id="mask8_565_1185" style="mask-type:luminance" maskUnits="userSpaceOnUse" x="0" y="0" width="420" height="228">
<path d="M419.293 0H0V227.561H419.293V0Z" fill="white"/>
</mask>
<g mask="url(#mask8_565_1185)">
<path d="M249.707 164.784C250.24 164.712 250.783 164.76 251.295 164.926C251.643 165.117 251.946 165.379 252.184 165.696L257.662 171.779C258.726 172.958 259.837 174.577 259.091 175.976C258.558 176.764 257.695 177.272 256.741 177.359C254.088 177.599 251.42 177.081 249.056 175.866C247.373 175.143 245.706 174.294 244.07 173.508C242.855 172.962 241.792 172.131 240.974 171.087C239.719 169.201 239.386 164.674 241.577 163.228C242.705 162.521 243.689 163.024 244.753 163.511C246.274 164.331 247.975 164.768 249.707 164.784Z" fill="#36134A"/>
</g>
<mask id="mask9_565_1185" style="mask-type:luminance" maskUnits="userSpaceOnUse" x="0" y="0" width="420" height="228">
<path d="M419.293 0H0V227.561H419.293V0Z" fill="white"/>
</mask>
<g mask="url(#mask9_565_1185)">
<path d="M272.429 183.347C272.471 183.697 272.433 184.052 272.317 184.385C272.128 184.708 271.854 184.974 271.524 185.155C270.482 185.865 269.261 186.273 267.999 186.334C266.72 186.382 265.492 185.835 264.68 184.856C264.096 183.942 263.742 182.901 263.648 181.823C263.183 179.504 262.954 177.145 262.965 174.781C262.86 174.253 263.207 173.74 263.74 173.636C263.793 173.626 263.848 173.619 263.902 173.618C265.871 173.209 269.793 172.188 270.793 174.577C271.812 177.394 272.365 180.356 272.429 183.347Z" fill="#A66763"/>
</g>
<mask id="mask10_565_1185" style="mask-type:luminance" maskUnits="userSpaceOnUse" x="0" y="0" width="420" height="228">
<path d="M419.293 0H0V227.561H419.293V0Z" fill="white"/>
</mask>
<g mask="url(#mask10_565_1185)">
<path d="M280.765 183.112C282.457 183.202 284.129 183.519 285.734 184.055C287.348 184.607 288.659 185.797 289.355 187.34C289.675 188.087 289.715 188.924 289.466 189.698C288.917 190.846 287.954 191.749 286.767 192.228C281.123 195.197 274.757 196.552 268.38 196.142C266.743 196.207 265.145 195.644 263.918 194.57C263.032 193.272 262.618 191.715 262.743 190.153L262.521 182.766C263.957 182.829 265.36 183.222 266.617 183.913C268.967 184.699 269.888 182.813 271.825 182.342C274.35 181.76 278.192 182.86 280.765 183.112Z" fill="#36134A"/>
</g>
<mask id="mask11_565_1185" style="mask-type:luminance" maskUnits="userSpaceOnUse" x="0" y="0" width="420" height="228">
<path d="M419.293 0H0V227.561H419.293V0Z" fill="white"/>
</mask>
<g mask="url(#mask11_565_1185)">
<path d="M260.552 101.66C262.157 101.978 263.644 102.723 264.855 103.813C266.096 105.524 266.661 107.627 266.442 109.723C266.405 124.638 263.556 139.414 258.043 153.294C257.868 154.943 256.375 156.139 254.71 155.966C254.326 155.926 253.954 155.814 253.613 155.636C250.311 154.754 247.057 153.705 243.864 152.493L248.182 124.2C248.389 123.414 248.344 122.585 248.055 121.826C247.736 121.288 247.29 120.834 246.753 120.506C241.827 116.959 236.624 113.805 231.193 111.075C226.858 108.906 221.888 106.359 220.713 101.77C220.218 100.178 220.538 98.4476 221.571 97.1327C222.257 96.4648 223.065 95.9315 223.952 95.5609C226.826 94.1619 230.446 92.4172 233.749 92.7001C236.401 92.9674 237.417 94.4763 239.624 95.5923C245.753 98.6102 253.899 99.7419 260.552 101.66Z" fill="#36134A"/>
</g>
<mask id="mask12_565_1185" style="mask-type:luminance" maskUnits="userSpaceOnUse" x="0" y="0" width="420" height="228">
<path d="M419.293 0H0V227.561H419.293V0Z" fill="white"/>
</mask>
<g mask="url(#mask12_565_1185)">
<path d="M231.05 56.6581C233.178 62.4581 234.226 68.604 236.099 74.4669C236.509 76.0209 237.245 77.4722 238.259 78.7265C239.606 80.0055 241.237 80.9531 243.022 81.493C245.51 82.4466 248.04 83.2796 250.612 83.9922C252.327 84.448 254.375 85.2339 254.566 86.9629C254.606 87.5395 254.485 88.116 254.216 88.6291C252.867 91.0101 250.367 92.5275 247.611 92.6372C244.906 92.709 242.212 92.2716 239.672 91.3483C237.359 90.8849 235.237 89.7525 233.575 88.0946C232.63 86.7158 231.966 85.1673 231.622 83.5363C229.016 74.3798 225.4 65.5348 220.84 57.161C219.476 54.9497 218.409 52.5719 217.665 50.0878C216.617 45.7496 216.601 35.4698 221.126 39.2422C224.778 42.2915 229.446 52.3513 231.05 56.6581Z" fill="#A66763"/>
</g>
<mask id="mask13_565_1185" style="mask-type:luminance" maskUnits="userSpaceOnUse" x="0" y="0" width="420" height="228">
<path d="M419.293 0H0V227.561H419.293V0Z" fill="white"/>
</mask>
<g mask="url(#mask13_565_1185)">
<path d="M229.446 50.0407L233.94 60.6977C234.162 61.112 234.251 61.5838 234.194 62.0495C234.08 62.4317 233.86 62.7747 233.559 63.0397C231.364 65.3374 228.758 67.2133 225.874 68.5725C223.214 66.2203 221.055 63.3668 219.522 60.179C218.03 56.3909 218.363 52.1784 218.808 48.1388C219.078 45.5767 218.982 37.3403 223.381 40.5311C226.445 42.716 228.065 46.7556 229.446 50.0407Z" fill="#DAD9FF"/>
</g>
<mask id="mask14_565_1185" style="mask-type:luminance" maskUnits="userSpaceOnUse" x="0" y="0" width="420" height="228">
<path d="M419.293 0H0V227.561H419.293V0Z" fill="white"/>
</mask>
<g mask="url(#mask14_565_1185)">
<path d="M213.727 101.109C216.404 100.083 219.008 98.8801 221.523 97.5099C231.05 92.2915 223.254 89.7294 220.078 83.4578C217.808 79.0095 218.729 73.681 219.903 68.8555C221.984 60.3676 224.762 51.5654 222.762 43.0932C222.512 41.7182 221.97 40.4112 221.174 39.2579C220.591 38.5425 219.919 37.9034 219.173 37.356C217.162 35.6362 214.847 34.2987 212.345 33.4107C207.582 31.8389 202.183 32.9863 197.658 35.2341C179.874 44.0677 176.08 66.372 176.794 84.2123C176.985 89.1635 177.763 94.3977 180.986 98.1858C184.209 101.974 188.766 103.42 193.434 103.986C200.334 104.684 207.302 103.696 213.727 101.109Z" fill="white"/>
</g>
<mask id="mask15_565_1185" style="mask-type:luminance" maskUnits="userSpaceOnUse" x="0" y="0" width="420" height="228">
<path d="M419.293 0H0V227.561H419.293V0Z" fill="white"/>
</mask>
<g mask="url(#mask15_565_1185)">
<path d="M187.21 91.0183C187.353 92.6926 187.898 94.3091 188.798 95.7337C190.386 97.95 193.307 98.7674 195.991 99.4118L208.074 102.367C209.547 102.809 211.076 103.036 212.615 103.043C215.918 102.886 218.76 100.795 221.38 98.7831C222.049 98.3296 222.631 97.7598 223.095 97.1012C216.426 96.4725 209.773 95.8123 203.136 94.8535C199.23 94.2877 195.102 93.5017 192.228 90.8454C190.743 89.3934 189.613 87.6245 188.925 85.674C188.449 84.4637 188.226 81.3829 186.845 81.1157C186.497 84.4172 186.62 87.7507 187.21 91.0183Z" fill="url(#paint4_linear_565_1185)"/>
</g>
<mask id="mask16_565_1185" style="mask-type:luminance" maskUnits="userSpaceOnUse" x="0" y="0" width="420" height="228">
<path d="M419.293 0H0V227.561H419.293V0Z" fill="white"/>
</mask>
<g mask="url(#mask16_565_1185)">
<path d="M211.059 47.2271C211.058 47.7227 210.858 48.1976 210.503 48.5474C210.173 48.7398 209.788 48.8173 209.408 48.7675C204.599 48.5443 200.883 44.5042 201.108 39.7436C201.127 39.3485 201.173 38.9551 201.246 38.5663C201.532 36.9945 202.215 35.6427 202.644 34.1652C203.485 31.2101 203.342 27.8779 205.232 25.4415C206.868 29.1468 208.734 32.748 210.821 36.2243C211.901 37.6242 212.286 39.4316 211.869 41.1441L211.059 47.2271Z" fill="#A66763"/>
</g>
<mask id="mask17_565_1185" style="mask-type:luminance" maskUnits="userSpaceOnUse" x="0" y="0" width="420" height="228">
<path d="M419.293 0H0V227.561H419.293V0Z" fill="white"/>
</mask>
<g mask="url(#mask17_565_1185)">
<path d="M211.996 39.6194L211.282 44.3349C211.282 44.3349 203.104 40.3267 204.168 32.892C205.232 25.4572 211.996 39.6194 211.996 39.6194Z" fill="url(#paint5_linear_565_1185)"/>
</g>
<mask id="mask18_565_1185" style="mask-type:luminance" maskUnits="userSpaceOnUse" x="0" y="0" width="420" height="228">
<path d="M419.293 0H0V227.561H419.293V0Z" fill="white"/>
</mask>
<g mask="url(#mask18_565_1185)">
<path d="M221.555 35.0296C221.135 36.5403 220.246 37.882 219.014 38.8649C218.426 39.2593 217.769 39.5418 217.077 39.698C212.089 40.656 207.045 38.3276 204.581 33.9294C202.289 29.5347 202.046 24.3698 203.914 19.7829C204.67 17.2968 206.38 15.2032 208.677 13.9514C211.229 12.9554 214.115 13.2918 216.362 14.8474C219.37 16.9262 221.695 19.834 223.047 23.2095C224.206 26.6518 222.746 31.7445 221.555 35.0296Z" fill="#A66763"/>
</g>
<mask id="mask19_565_1185" style="mask-type:luminance" maskUnits="userSpaceOnUse" x="0" y="0" width="420" height="228">
<path d="M419.293 0H0V227.561H419.293V0Z" fill="white"/>
</mask>
<g mask="url(#mask19_565_1185)">
<path d="M257.455 121.417C259.49 123.983 261.098 126.854 262.219 129.921C268.463 144.828 272.522 160.544 274.27 176.589C269.172 177.217 264.015 177.217 258.916 176.589C258.517 165.261 256.753 154.022 253.66 143.109C253.114 140.76 252.175 138.518 250.882 136.476C248.611 133.222 244.88 131.336 241.355 129.575C233.107 125.608 224.486 122.449 215.616 120.144C211.869 119.123 208.09 118.18 204.406 117.001C201.31 115.963 192.625 112.159 190.116 110.1C187.459 108.106 185.739 105.126 185.352 101.848C185.352 102.666 209.551 104.3 211.281 104.112C217.109 103.499 223.984 100.198 229.732 102.54C234.226 104.363 238.338 108.167 242.435 110.792C247.404 113.873 253.47 116.859 257.455 121.417Z" fill="#583B69"/>
</g>
<mask id="mask20_565_1185" style="mask-type:luminance" maskUnits="userSpaceOnUse" x="0" y="0" width="420" height="228">
<path d="M419.293 0H0V227.561H419.293V0Z" fill="white"/>
</mask>
<g mask="url(#mask20_565_1185)">
<path d="M230.939 120.207L201.405 105.919L236.036 91.3798L265.585 104.159L230.939 120.207Z" fill="#FFA23C"/>
</g>
<mask id="mask21_565_1185" style="mask-type:luminance" maskUnits="userSpaceOnUse" x="0" y="0" width="420" height="228">
<path d="M419.293 0H0V227.561H419.293V0Z" fill="white"/>
</mask>
<g mask="url(#mask21_565_1185)">
<path d="M185.956 53.1214C185.956 53.6716 185.813 54.206 185.749 54.6933C184.876 62.741 185.67 70.6316 185.972 78.6322C186.162 83.5835 186.813 93.0145 192.132 95.5451C202.072 100.261 221.253 98.4687 221.253 98.4687C223.477 98.1158 225.75 98.2066 227.938 98.7359C229.129 99.0974 230.224 99.7105 231.383 100.151C235.575 101.722 240.259 100.936 244.673 100.151C245.434 100.061 246.169 99.8206 246.833 99.4432C248.436 98.0339 248.598 95.6117 247.198 94.0047C245.765 92.5142 243.902 91.4986 241.863 91.0968C236.289 89.2955 230.318 89.0669 224.619 90.4367C223.891 90.6795 223.149 90.879 222.396 91.034C221.515 91.1755 220.622 91.2386 219.729 91.2226H212.965C205.184 91.2226 197.849 91.3169 196.674 82.3103C196.24 78.9746 196.155 75.6036 196.42 72.2506C196.88 66.1991 198.484 60.1947 198.15 54.1431C198.13 52.2239 197.646 50.3374 196.737 48.6417C195.801 46.9297 194.033 45.8224 192.069 45.7181C190.035 45.8685 188.228 47.0608 187.305 48.8618C186.603 50.1906 186.145 51.6332 185.956 53.1214Z" fill="#A66763"/>
</g>
<mask id="mask22_565_1185" style="mask-type:luminance" maskUnits="userSpaceOnUse" x="0" y="0" width="420" height="228">
<path d="M419.293 0H0V227.561H419.293V0Z" fill="white"/>
</mask>
<g mask="url(#mask22_565_1185)">
<path d="M277.748 75.3314L236.464 96.1267L230.939 120.207L265.585 104.159L277.748 75.3314Z" fill="#FFA23C"/>
</g>
<mask id="mask23_565_1185" style="mask-type:luminance" maskUnits="userSpaceOnUse" x="0" y="0" width="420" height="228">
<path d="M419.293 0H0V227.561H419.293V0Z" fill="white"/>
</mask>
<g mask="url(#mask23_565_1185)">
<path d="M223.587 26.3533C223.542 24.8568 222.982 23.4205 221.999 22.2822C221.501 21.7093 220.911 21.2208 220.253 20.8361C219.332 20.3017 219.109 20.2546 218.506 21.1191C217.728 22.2351 217.474 23.5397 216.759 24.7028C215.978 25.9929 214.887 27.0725 213.584 27.8465C212.119 28.7461 210.415 29.1897 208.693 29.1197C208.009 29.0173 207.313 29.0173 206.629 29.1197C206.164 29.2068 205.762 29.495 205.534 29.9056C205.37 30.4935 205.311 31.1052 205.359 31.7132C205.216 33.285 203.644 34.401 202.771 35.7685C201.897 37.136 201.643 39.1637 200.595 40.6255C200.401 40.9188 200.133 41.1571 199.817 41.3171C199.071 41.6314 198.23 41.2228 197.451 41.0813C195.149 40.6883 193.291 42.8103 191.322 44.0992C187.369 46.677 182.193 46.0168 177.524 45.2467C176.095 45.0755 174.702 44.683 173.396 44.0835C171.985 43.2594 170.733 42.1952 169.696 40.9398C167.966 39.0536 166.251 37.136 164.552 35.2184C163.92 34.6044 163.419 33.8725 163.075 33.065C162.893 32.5019 162.845 31.905 162.932 31.3202C163.087 30.2287 163.414 29.1679 163.901 28.1766C165.139 25.4259 166.584 22.4394 169.379 21.1977C172.173 19.9559 175.476 20.8833 178.556 20.5689C178.932 20.5681 179.298 20.4529 179.604 20.2388C179.85 19.9646 180.024 19.6356 180.113 19.28C181.399 15.0518 183.002 10.4621 186.845 8.27723C189.806 6.86922 193.144 6.43417 196.372 7.03548C199.568 7.63334 202.829 7.81826 206.073 7.58562C207.661 7.33413 209.249 6.81542 210.837 6.50106C214.55 5.68431 218.437 6.24355 221.761 8.07289C225.094 10.0362 227.206 13.527 227.382 17.3624C227.318 18.0998 227.318 18.8413 227.382 19.5787C227.493 20.2703 227.795 20.9462 227.906 21.6378C228.16 23.9768 226.451 26.0771 224.088 26.329C223.922 26.3467 223.755 26.3548 223.587 26.3533Z" fill="#3F2C23"/>
</g>
<mask id="mask24_565_1185" style="mask-type:luminance" maskUnits="userSpaceOnUse" x="0" y="0" width="420" height="228">
<path d="M419.293 0H0V227.561H419.293V0Z" fill="white"/>
</mask>
<g mask="url(#mask24_565_1185)">
<path d="M184.511 57.5854C184.021 62.0339 183.968 66.5188 184.352 70.9774C184.333 71.3643 184.433 71.748 184.638 72.0777C184.975 72.4435 185.441 72.6683 185.94 72.7064C188.512 73.1803 194.561 73.4275 197.177 73.4452C198.555 73.8813 198.568 70.3898 198.588 70.2293C200.017 64.3193 199.976 59.4717 201.056 53.483C201.485 51.0781 201.786 48.3745 200.326 46.4255C198.214 43.5962 192.514 43.2818 189.767 45.3409C186.448 47.8716 185.035 53.7816 184.511 57.5854Z" fill="#DAD9FF"/>
</g>
<mask id="mask25_565_1185" style="mask-type:luminance" maskUnits="userSpaceOnUse" x="0" y="0" width="420" height="228">
<path d="M419.293 0H0V227.561H419.293V0Z" fill="white"/>
</mask>
<g mask="url(#mask25_565_1185)">
<path d="M147.318 151.02C147.322 154.534 145.865 157.894 143.29 160.313C141.093 162.373 138.263 163.644 135.251 163.925C134.688 163.953 134.123 163.953 133.56 163.925L39.1701 162.044C31.635 161.963 25.5347 155.958 25.4116 148.499C25.4081 144.985 26.865 141.624 29.4403 139.206C32.0499 136.722 35.5507 135.368 39.1701 135.443H42.3817C41.7084 133.132 41.3693 130.738 41.3745 128.332C41.3615 121.403 44.2351 114.774 49.3179 110.01C51.5337 107.911 54.1071 106.217 56.9192 105.006C60.5598 103.433 64.5022 102.663 68.4733 102.748L76.4927 102.918C86.5879 103.103 95.7948 108.671 100.57 117.478C102.889 116.407 105.423 115.873 107.981 115.917H110.053C118.982 116.027 126.204 123.144 126.358 131.982V132.753C126.365 134.212 126.154 135.664 125.731 137.061L133.541 137.231C141.179 137.303 147.329 143.458 147.318 151.02Z" fill="white"/>
</g>
<mask id="mask26_565_1185" style="mask-type:luminance" maskUnits="userSpaceOnUse" x="0" y="0" width="420" height="228">
<path d="M419.293 0H0V227.561H419.293V0Z" fill="white"/>
</mask>
<g mask="url(#mask26_565_1185)">
<path d="M355.355 53.6231C355.358 56.5624 354.134 59.3721 351.973 61.388C350.132 63.1091 347.762 64.1714 345.241 64.4059C344.771 64.4458 344.298 64.4458 343.828 64.4059L264.976 62.834C258.738 62.7514 253.681 57.8013 253.528 51.6269C253.495 48.6604 254.708 45.8137 256.878 43.7678C259.075 41.7075 261.998 40.5793 265.024 40.6241H267.691C267.136 38.6966 266.853 36.7025 266.85 34.6983C266.841 28.9086 269.242 23.371 273.487 19.3887C275.339 17.6315 277.489 16.2109 279.838 15.1919C282.88 13.8766 286.174 13.2329 289.492 13.3057L296.193 13.4472C304.628 13.6014 312.319 18.2621 316.295 25.6289C318.228 24.7209 320.348 24.274 322.487 24.3242H324.218C331.682 24.3998 337.729 30.3438 337.857 37.7319V38.3764C337.856 39.6011 337.674 40.819 337.317 41.9916L343.843 42.1174C350.212 42.1946 355.338 47.3184 355.355 53.6231Z" fill="white"/>
</g>
<mask id="mask27_565_1185" style="mask-type:luminance" maskUnits="userSpaceOnUse" x="0" y="0" width="420" height="228">
<path d="M419.293 0H0V227.561H419.293V0Z" fill="white"/>
</mask>
<g mask="url(#mask27_565_1185)">
<path d="M206.74 29.1511C206.275 29.2382 205.873 29.5264 205.645 29.937C205.481 30.5249 205.422 31.1366 205.47 31.7446C205.327 33.3164 203.755 34.4324 202.882 35.7999C202.009 37.1674 201.755 39.1951 200.707 40.6568C200.512 40.9501 200.244 41.1885 199.929 41.3485C199.182 41.6628 198.341 41.2541 197.563 41.1127C195.26 40.7197 193.403 42.8417 191.434 44.1306C187.48 46.7084 182.304 46.0482 177.635 45.278C176.167 45.1084 174.735 44.705 173.396 44.0834C171.985 43.2593 170.733 42.1951 169.696 40.9398C167.966 39.0536 166.251 37.136 164.552 35.2183C163.92 34.6044 163.419 33.8724 163.075 33.0649C162.893 32.5018 162.845 31.9049 162.932 31.3202C163.673 30.8776 164.442 30.4838 165.235 30.1413C167.669 28.8482 170.514 28.5383 173.174 29.2768C175.301 30.0942 176.81 31.9646 178.636 33.3007C183.895 36.9462 191.049 36.2807 195.53 31.7289C196.33 30.6853 197.271 29.7546 198.325 28.9625C200.214 27.9408 204.057 28.0979 206.74 29.1511Z" fill="url(#paint6_linear_565_1185)"/>
</g>
<path d="M162.66 110.017C162.654 110.008 162.05 109.148 160.888 107.712L162.448 106.474C163.659 107.97 164.279 108.853 164.305 108.89L162.66 110.017Z" fill="#36134A"/>
<path d="M156.051 209.431C154.553 209.431 153.039 209.411 151.512 209.372L151.564 207.393C153.073 207.432 154.569 207.451 156.051 207.451C156.521 207.452 157.023 207.449 157.512 207.445L157.527 209.425C157.037 209.429 156.58 209.428 156.051 209.431ZM163.541 209.276L163.457 207.298C165.431 207.216 167.429 207.099 169.396 206.952L169.546 208.926C167.558 209.075 165.537 209.193 163.541 209.276ZM145.501 209.113C143.511 208.993 141.492 208.837 139.5 208.649L139.691 206.678C141.659 206.864 143.655 207.019 145.622 207.137L145.501 209.113ZM175.535 208.377L175.318 206.408C177.275 206.197 179.262 205.949 181.221 205.672L181.504 207.631C179.523 207.912 177.515 208.162 175.535 208.377ZM133.52 207.978C131.538 207.721 129.536 207.425 127.567 207.101L127.896 205.148C129.842 205.469 131.821 205.761 133.779 206.014L133.52 207.978ZM187.442 206.693L187.095 204.743C189.037 204.403 191.002 204.027 192.937 203.625L193.349 205.562C191.393 205.969 189.406 206.349 187.442 206.693ZM121.648 206.018C119.698 205.627 117.722 205.194 115.773 204.732L116.238 202.806C118.165 203.263 120.119 203.691 122.047 204.078L121.648 206.018ZM199.214 204.243L198.739 202.32C200.659 201.856 202.596 201.354 204.496 200.828L205.033 202.735C203.113 203.266 201.155 203.774 199.214 204.243ZM109.948 203.259C108.006 202.742 106.062 202.195 104.169 201.636L104.741 199.739C106.617 200.293 108.544 200.834 110.468 201.347L109.948 203.259ZM210.801 201.04L210.199 199.152C212.085 198.563 213.983 197.936 215.844 197.287L216.508 199.155C214.627 199.811 212.707 200.445 210.801 201.04ZM98.4385 199.853C96.5283 199.228 94.6182 198.571 92.7608 197.898L93.4483 196.039C95.2852 196.704 97.1748 197.355 99.0654 197.973L98.4385 199.853ZM222.149 197.074L221.417 195.232C223.297 194.5 225.145 193.741 226.907 192.974L227.712 194.787C225.925 195.564 224.053 196.333 222.149 197.074ZM87.1504 195.758C85.2686 195.002 83.4072 194.215 81.6182 193.419L82.4385 191.613C84.2051 192.4 86.043 193.177 87.9024 193.923L87.1504 195.758ZM76.1787 190.868C74.3711 189.975 72.5781 189.04 70.8506 188.088L71.8233 186.357C73.5254 187.295 75.291 188.216 77.0713 189.096L76.1787 190.868ZM65.6582 185.063C63.9356 184.003 62.2412 182.898 60.6221 181.778L61.7686 180.155C63.3574 181.255 65.0215 182.34 66.7149 183.382L65.6582 185.063ZM55.7764 178.216C54.1787 176.967 52.624 175.671 51.1563 174.365L52.4942 172.892C53.9297 174.17 55.4512 175.439 57.0166 176.663L55.7764 178.216ZM46.8018 170.211C45.3838 168.759 44.0244 167.259 42.7617 165.752L44.3008 164.487C45.5322 165.956 46.8574 167.419 48.2393 168.836L46.8018 170.211ZM39.085 160.985C37.917 159.333 36.8213 157.63 35.8272 155.924L37.5596 154.935C38.5244 156.591 39.5889 158.245 40.7236 159.85L39.085 160.985ZM33.0391 150.588C32.1904 148.757 31.4277 146.881 30.7735 145.011L32.6621 144.362C33.2969 146.172 34.0352 147.989 34.8574 149.763L33.0391 150.588ZM29.0684 139.239C28.5986 137.295 28.2246 135.305 27.9551 133.323L29.9375 133.06C30.1973 134.976 30.5596 136.899 31.0137 138.778L29.0684 139.239ZM27.4512 127.325C27.4317 126.695 27.4219 126.067 27.4219 125.441C27.4209 124.075 27.4697 122.685 27.5664 121.308L29.5625 121.446C29.4678 122.776 29.4209 124.12 29.4219 125.441C29.4219 126.046 29.4317 126.654 29.4502 127.263L27.4512 127.325ZM30.2695 115.672L28.2988 115.334C28.6436 113.362 29.0938 111.387 29.6367 109.465L31.5625 109.997C31.0381 111.856 30.6026 113.766 30.2695 115.672ZM33.4317 104.483L31.5703 103.757C32.3154 101.886 33.1641 100.042 34.0938 98.2777L35.8672 99.1932C34.9697 100.896 34.1504 102.676 33.4317 104.483ZM157.03 103.275C155.721 101.861 154.331 100.446 152.9 99.068L154.295 97.6488C155.752 99.0525 157.169 100.495 158.505 101.936L157.03 103.275ZM148.538 95.0957C147.048 93.8114 145.508 92.5571 143.962 91.3676L145.188 89.8044C146.764 91.0161 148.333 92.2942 149.851 93.6021L148.538 95.0957ZM38.8584 94.2039L37.2061 93.0883L37.2881 92.9684C38.4053 91.3323 39.5967 89.7522 40.8301 88.2706L42.3731 89.5293C41.1807 90.963 40.0274 92.4928 38.9453 94.0763L38.8584 94.2039ZM139.183 87.8999C137.555 86.7867 135.882 85.7146 134.212 84.7121L135.249 83.0194C136.952 84.0417 138.658 85.1356 140.319 86.27L139.183 87.8999ZM46.3379 85.2429L44.9375 83.8295C46.3955 82.4147 47.9365 81.0777 49.5176 79.8563L50.7481 81.4175C49.2256 82.5931 47.7422 83.8803 46.3379 85.2429ZM129.059 81.826C127.306 80.9129 125.516 80.0511 123.738 79.2637L124.555 77.4569C126.37 78.2607 128.199 79.1414 129.99 80.0733L129.059 81.826ZM55.5703 78.1234L54.5332 76.4307C56.2588 75.3939 58.0713 74.445 59.9199 73.6107L60.75 75.4118C58.9727 76.2141 57.2295 77.1267 55.5703 78.1234ZM118.26 77.0402C116.397 76.3451 114.513 75.694 112.659 75.1058L113.269 73.2207C115.155 73.8191 117.072 74.4808 118.965 75.188L118.26 77.0402ZM106.968 73.4662C105.035 72.9664 103.093 72.5237 101.195 72.1505L101.586 70.2084C103.521 70.5897 105.502 71.0412 107.474 71.5511L106.968 73.4662ZM66.2149 73.3096L65.5957 71.4274C67.4912 70.8159 69.4688 70.2939 71.4746 69.8753L71.8867 71.8126C69.9512 72.2167 68.043 72.7204 66.2149 73.3096ZM95.3584 71.1925C93.3779 70.9339 91.3994 70.7459 89.4766 70.6332L89.5938 68.6572C91.5645 68.7723 93.5928 68.9647 95.6201 69.23L95.3584 71.1925ZM77.6944 70.8952L77.4756 68.927C79.4473 68.7119 81.4844 68.5814 83.5332 68.5388L83.5742 70.5187C81.586 70.5598 79.6074 70.6864 77.6944 70.8952Z" fill="#36134A"/>
<path d="M233.275 192.215L232.381 190.444C234.07 189.609 234.978 189.098 234.986 189.092L235.979 190.812C235.94 190.833 235.021 191.352 233.275 192.215Z" fill="#36134A"/>
<path d="M163.218 112.592C165.116 112.592 166.654 111.069 166.654 109.191C166.654 107.313 165.116 105.791 163.218 105.791C161.321 105.791 159.783 107.313 159.783 109.191C159.783 111.069 161.321 112.592 163.218 112.592Z" fill="#36134A"/>
<path d="M234.73 193.843C236.641 193.843 238.19 192.31 238.19 190.418C238.19 188.527 236.641 186.994 234.73 186.994C232.819 186.994 231.271 188.527 231.271 190.418C231.271 192.31 232.819 193.843 234.73 193.843Z" fill="#36134A"/>
<path d="M58.6589 95.0634C68.7779 95.0634 76.981 86.9429 76.981 76.9259C76.981 66.9089 68.7779 58.7885 58.6589 58.7885C48.54 58.7885 40.3369 66.9089 40.3369 76.9259C40.3369 86.9429 48.54 95.0634 58.6589 95.0634Z" fill="#36134A"/>
<path d="M58.8621 66.4758L49.127 72.0404V81.5402L58.8621 87.1043L68.5979 81.5402V72.0404L58.8621 66.4758ZM63.4729 74.0919L56.0404 69.8443L58.8621 68.2316L66.2946 72.4792L63.4729 74.0919ZM54.5046 70.7219L61.937 74.9695L58.8621 76.7269L51.4297 72.4792L54.5046 70.7219ZM59.6301 84.9102V78.0438L67.062 73.7957V80.6626L59.6301 84.9102ZM58.0942 78.0438V84.9102L50.6623 80.6626V73.7957L58.0942 78.0438Z" fill="#FFA23C"/>
<defs>
<linearGradient id="paint0_linear_565_1185" x1="237.518" y1="174.038" x2="318.409" y2="136.018" gradientUnits="userSpaceOnUse">
<stop offset="0.01"/>
<stop offset="0.13" stop-opacity="0.69"/>
<stop offset="0.25" stop-opacity="0.32"/>
<stop offset="1" stop-opacity="0"/>
</linearGradient>
<linearGradient id="paint1_linear_565_1185" x1="174.874" y1="346.079" x2="142.149" y2="-238.977" gradientUnits="userSpaceOnUse">
<stop stop-color="#FF8F33"/>
<stop offset="1" stop-color="#FF3A29"/>
</linearGradient>
<linearGradient id="paint2_linear_565_1185" x1="273.022" y1="340.594" x2="240.282" y2="-244.478" gradientUnits="userSpaceOnUse">
<stop stop-color="#FF8F33"/>
<stop offset="1" stop-color="#FF3A29"/>
</linearGradient>
<linearGradient id="paint3_linear_565_1185" x1="255.888" y1="77.3917" x2="151.133" y2="224.06" gradientUnits="userSpaceOnUse">
<stop offset="0.01"/>
<stop offset="0.13" stop-opacity="0.69"/>
<stop offset="0.25" stop-opacity="0.32"/>
<stop offset="1" stop-opacity="0"/>
</linearGradient>
<linearGradient id="paint4_linear_565_1185" x1="227.007" y1="57.3328" x2="158.962" y2="157.457" gradientUnits="userSpaceOnUse">
<stop offset="0.01"/>
<stop offset="0.13" stop-opacity="0.69"/>
<stop offset="0.25" stop-opacity="0.32"/>
<stop offset="1" stop-opacity="0"/>
</linearGradient>
<linearGradient id="paint5_linear_565_1185" x1="213.434" y1="25.9571" x2="199.1" y2="57.5978" gradientUnits="userSpaceOnUse">
<stop offset="0.01"/>
<stop offset="0.13" stop-opacity="0.69"/>
<stop offset="0.25" stop-opacity="0.32"/>
<stop offset="1" stop-opacity="0"/>
</linearGradient>
<linearGradient id="paint6_linear_565_1185" x1="225.633" y1="63.5205" x2="132.493" y2="-8.21548" gradientUnits="userSpaceOnUse">
<stop offset="0.01"/>
<stop offset="0.13" stop-opacity="0.69"/>
<stop offset="0.25" stop-opacity="0.32"/>
<stop offset="1" stop-opacity="0"/>
</linearGradient>
</defs>
</svg>
