<svg width="940" height="327" viewBox="0 0 940 327" fill="none" xmlns="http://www.w3.org/2000/svg">
<path d="M927.198 196.2V189.915H910.915V196.23H898.51V259.14L878.95 271.14V324.802H868.698V57.3825H825.198V324.735H814.945V124.38H812.695V152.475L758.387 185.693V324.735H742.12V324.69V324.397V216.165H731.253V187.418H708.1V196.35H701.125V147.915L663.715 125.04H628.315V218.632L627.992 218.55L624.625 231.765C620.612 247.515 604.885 308.932 600.865 324.69H585.865C584.955 317.39 584.108 310.198 583.323 303.112C582.423 294.997 581.59 287.042 580.825 279.247C579.355 264.247 578.065 249.247 576.955 234.247L576.82 232.365C575.545 214.815 574.518 197.253 573.738 179.678C572.77 157.342 572.125 134.97 572.238 112.62H579.97L583.802 83.37H572.703L572.657 82.6725C572.29 77.2275 571.907 71.7375 571.54 66.2925H567.925V26.835H565.405V66.315H561.782C561.4 71.9925 561.033 77.715 560.62 83.3925H549.527C550.81 93.1425 552.085 102.893 553.367 112.643H561.1C561.205 132.848 560.658 153.083 559.863 173.28C559.293 187.42 558.543 201.552 557.613 215.677C556.258 237.022 554.535 258.34 552.445 279.63C551.695 287.285 550.878 295.105 549.992 303.09C549.203 310.195 548.357 317.405 547.458 324.72H529.165V177.165L527.545 175.545C523.39 171.382 519.167 167.16 515.005 163.005V105.577L508.922 99.495L506.133 96.705L502.383 92.955L494.012 84.585L493.082 83.655L489.273 79.845L479.65 89.4675L478.698 90.4275L473.927 95.19L473.027 96.165L470.17 99.03C468.025 101.168 465.767 103.425 463.63 105.57V235.267C460.63 238.222 457.63 241.267 454.63 244.23L449.567 249.292V324.69H438.872V56.88H387.7L387.482 56.745L385.982 55.8225L384.482 54.9L347.372 32.205V0.75H344.852V186.87H328.848V205.163H315.655V324.69H296.44V97.83H284.973V90.405H270.805V72.5325H257.492V90.405H243.325V97.83H231.857V227.505H220.54V209.22H194.335V324.72H186.467V174.165H172.6V167.092H154.367V174.165H140.485V244.597L134.53 248.235L125.102 253.965L118.585 257.955V324.705H101.905V101.88H99.385V133.335L90.805 138.585L86.0875 141.473L65.6575 153.967L60.9475 156.848L45.235 166.455L38.5825 170.527V231.278H21.025V239.07H0.25V246.915H4.2775V324.975H4.33751V326.7H741.003V326.745H938.163V326.58H939.595V196.2H927.198ZM38.5825 285.975V324.69H6.80499V244.44H2.7775V241.612H23.56V233.79H38.56L38.5825 285.975ZM99.385 285.225V324.69H88.0825V286.155H86.4025V324.69H79.6525V286.26H77.9725V324.69H71.2225V286.365H69.5425V324.69H62.7925V286.44H61.1125V324.69H54.3625V286.575H52.6825V324.675H41.1025V171.915L58.015 161.572L62.7325 158.693L99.385 136.275V285.225ZM140.485 284.715V324.69H121.098V259.365L137.883 249.097L140.485 247.507V284.715ZM183.985 284.175V324.675H143.027V176.647H156.91V169.575H170.11V176.647H183.985V284.175ZM231.895 283.583V324.69H196.893V211.733H218.027V230.025H231.865L231.895 283.583ZM293.965 282.833V324.69H234.415V100.343H245.883V92.925H260.027V75.045H268.277V92.925H282.445V100.343H293.92L293.965 282.833ZM344.89 214.845H333.527V216.87H344.867V223.665H333.527V225.682H344.867V232.507H333.527V234.533H344.867V241.358H333.527V243.382H344.867V250.208H333.527V252.233H344.867V259.057H333.527V261.075H344.867V267.915H333.527V269.932H344.867V276.757H333.527V278.783H344.867V285.472H333.527V287.49H344.867V294.315H333.527V296.34H344.867V303.165H333.527V305.19H344.867V312.015H333.527V314.04H344.867V324.69H318.183V207.69H331.375V189.39H344.875L344.89 214.845ZM405.692 281.445V324.72H347.41V35.1525L405.692 70.8V281.445ZM436.442 281.07V324.72H408.235V69.39L391.855 59.415H436.398L436.442 281.07ZM463.675 280.733V324.69H452.17V250.335L463.675 238.83V280.733ZM512.552 280.125V324.69H498.302V117.315H496.277V324.69H482.41V117.315H480.392V324.69H466.142V106.62L469.953 102.803C471.812 100.95 473.815 98.94 475.675 97.08L480.438 92.3175L486.16 86.595L487.113 85.6425C487.728 85.0275 488.71 84.0525 489.317 83.4375L490.54 84.66C497.855 91.965 505.175 99.285 512.5 106.62L512.552 280.125ZM526.712 279.945V324.72H515.027V166.553L521.26 172.785L526.667 178.193L526.712 279.945ZM552.782 85.995H580.727L579.482 96.7125H554.027L552.782 85.995ZM555.19 110.265L554.027 99.5475H579.482L578.193 110.265H555.19ZM550.06 324.72C551.972 309.217 553.615 294.18 555.032 279.72C555.617 273.75 556.173 267.78 556.698 261.81C560.988 212.212 563.732 162.42 563.65 112.628H569.732C569.605 140.01 570.55 167.422 571.982 194.767C573.482 223.032 575.605 251.252 578.35 279.427C579.775 293.955 581.432 309.097 583.36 324.705L550.06 324.72ZM628.36 278.685V324.69H603.52V324.63C607.795 307.89 623.77 245.565 628 228.9C628.083 228.585 628.285 227.783 628.36 227.483V278.685ZM698.65 277.815V324.69H630.88V316.665H674.777V315.165H630.843V305.715H674.777V304.215H630.843V294.765H674.777V293.265H630.843V283.815H674.777V282.315H630.843V272.91H674.777V271.41H630.843V261.96H674.777V260.46H630.843V251.01H674.777V249.51H630.843V240.06H674.777V238.56H630.843V229.132H674.777V227.632H630.843V218.182H674.777V216.682H630.843V207.24H674.777V205.74H630.843V196.298H674.777V194.798H630.843V185.348H674.777V183.848H630.843V174.397H674.777V172.897H630.843V163.447H674.777V161.947H630.843V152.61H674.777V150.915H630.843V141.668H686.102L698.613 149.31L698.65 277.815ZM739.63 277.305V324.69H701.17V198.87H710.665V189.915H728.777V218.67H739.622L739.63 277.305ZM812.732 324.765H802.637V177.6H801.137V324.735H795.1V181.853H793.6V324.735H787.6V186.105H786.1V324.735H780.1V190.35H778.6V324.735H772.6V194.603H771.1V324.735H760.78V186.952L812.837 155.115L812.732 324.765ZM866.508 77.64V324.622H827.508V59.6175H866.508V77.64ZM898.555 324.765H881.238V272.34L898.555 261.75V324.765ZM937.398 307.283V324.765H900.805V198.45H913.21V192.165H924.992V198.48H937.398V307.283Z" fill="url(#paint0_linear_813_303)"/>
<defs>
<linearGradient id="paint0_linear_813_303" x1="478.285" y1="425.452" x2="468.437" y2="185.325" gradientUnits="userSpaceOnUse">
<stop offset="0.37" stop-color="#00249D" stop-opacity="0"/>
<stop offset="0.44" stop-color="#00259D" stop-opacity="0.03"/>
<stop offset="0.52" stop-color="#01289F" stop-opacity="0.1"/>
<stop offset="0.61" stop-color="#032EA1" stop-opacity="0.23"/>
<stop offset="0.7" stop-color="#0635A4" stop-opacity="0.42"/>
<stop offset="0.79" stop-color="#093FA8" stop-opacity="0.65"/>
<stop offset="0.88" stop-color="#0D4AAD" stop-opacity="0.93"/>
<stop offset="0.91" stop-color="#0E4DAE"/>
</linearGradient>
</defs>
</svg>
