<?xml version="1.0" encoding="utf-8"?>
<!-- Generator: Adobe Illustrator 27.7.0, SVG Export Plug-In . SVG Version: 6.00 Build 0)  -->
<svg version="1.1" id="Layer_1" xmlns="http://www.w3.org/2000/svg" xmlns:xlink="http://www.w3.org/1999/xlink" x="0px" y="0px"
	 viewBox="0 0 436 283" style="enable-background:new 0 0 436 283;" xml:space="preserve">
<style type="text/css">
	.st0{fill:#F8D8E3;}
	.st1{fill:#D72D66;}
	.st2{fill:#36134A;}
	.st3{fill:#FFA43C;}
	.st4{fill:#8327A2;}
	.st5{fill:url(#SVGID_1_);}
	.st6{fill:url(#SVGID_00000089539112030097914390000015808426255215122589_);}
	.st7{fill:#8727A2;}
	.st8{fill:#FFA33C;}
	.st9{fill:#FF873C;}
	.st10{fill:#FFC23C;}
	.st11{fill:#FF623C;}
	.st12{fill:#FFFFFF;}
	.st13{fill:#C071D1;}
	.st14{fill:#311C15;}
	.st15{fill:#F4B542;}
	.st16{fill:#2B2872;}
	.st17{fill:#1D559D;}
	.st18{fill:#DC4A4A;}
	.st19{fill:#E4002B;}
	.st20{fill:#FFA23C;}
	.st21{fill:#A22D66;}
	.st22{fill:#5F2366;}
	.st23{fill:#111C4E;}
	.st24{fill-rule:evenodd;clip-rule:evenodd;fill:#F4BE45;}
	.st25{fill-rule:evenodd;clip-rule:evenodd;fill:#FFFFFF;}
	.st26{fill:#F15C22;}
</style>
<path class="st0" d="M423.2890015,225.2429962H29.1355991c-6.9422989,0-12.5702-5.5709991-12.5702-12.4440002V36.4874992
	c0-6.8723984,5.6279011-12.4435997,12.5702-12.4435997h394.1534119c6.9419861,0,12.5700073,5.5712013,12.5700073,12.4435997
	V212.798996C435.8590088,219.6719971,430.2309875,225.2429962,423.2890015,225.2429962z"/>
<path class="st1" d="M271.1679993,246.3309937l-0.0100098-1.9799957c1.980011-0.0090027,3.9760132-0.0299988,5.9869995-0.0650024
	l0.0350037,1.980011C275.1589966,246.3009949,273.1549988,246.3220062,271.1679993,246.3309937z M265.1539917,246.3170013
	c-2.0209961-0.0180054-4.0249939-0.0500031-6.0109863-0.0950012l0.0449829-1.9790039
	c1.9779968,0.0440063,3.9720154,0.076004,5.9840088,0.0940094L265.1539917,246.3170013z M283.1900024,246.1260071
	l-0.0599976-1.980011c1.9779968-0.0579987,3.9729919-0.1299896,5.9830017-0.2139893l0.0839844,1.9779968
	C287.1789856,245.9940033,285.177002,246.0659943,283.1900024,246.1260071z M253.1309967,246.0449982
	c-2.0209961-0.0740051-4.022995-0.1620026-6.0070038-0.2630005l0.1040039-1.9779968
	c1.973999,0.1009979,3.9660034,0.1889954,5.977005,0.2630005L253.1309967,246.0449982z M295.2009888,245.6230011
	l-0.1069946-1.977005c1.9760132-0.1049957,3.9680176-0.2229919,5.9750061-0.3539886l0.131012,1.9759979
	C299.1860046,245.3990021,297.1860046,245.5169983,295.2009888,245.6230011z M241.1210022,245.4290009
	c-2.0169983-0.1340027-4.0169983-0.2810059-5.9970093-0.4409943l0.1640015-1.973999
	c1.9710083,0.1599884,3.9589996,0.3069916,5.9660034,0.4389954L241.1210022,245.4290009z M307.1990051,244.8350067
	l-0.1620178-1.9740143c2.0240173-0.1619873,4.0090027-0.3409882,5.9560242-0.5329895l0.196991,1.970993
	C311.2309875,244.4920044,309.2340088,244.6710052,307.1990051,244.8350067z M229.1340027,244.4539948
	c-2.0130005-0.1949921-4.0059967-0.4049988-5.9820099-0.6289978l0.2290039-1.9660034
	c1.9640045,0.2220001,3.9470062,0.4300079,5.947998,0.625L229.1340027,244.4539948z M319.1719971,243.6490021l-0.2380066-1.9660034
	c2.0180054-0.2400055,3.9930115-0.4960022,5.9250183-0.7669983l0.2799988,1.9609985
	C323.1919861,243.1490021,321.20401,243.4069977,319.1719971,243.6490021z M217.1849976,243.102005
	c-2.0059967-0.2600098-3.9929962-0.5350037-5.9579926-0.8240051l0.2929993-1.9579926
	c1.9559937,0.2869873,3.9299927,0.5589905,5.923996,0.8190002L217.1849976,243.102005z M331.0910034,241.970993
	l-0.3280029-1.9529877c1.9859924-0.3270111,3.9649963-0.678009,5.8789978-1.0420074l0.3770142,1.9450073
	C335.0889893,241.2879944,333.0939941,241.6410065,331.0910034,241.970993z M205.2839966,241.3540039
	c-1.9960022-0.3270111-3.9720001-0.6679993-5.9279938-1.0240021l0.3619995-1.9470062
	c1.9440002,0.3540039,3.9080048,0.6930084,5.8919983,1.0180054L205.2839966,241.3540039z M342.9200134,239.7129974
	l-0.434021-1.9329987c1.9700012-0.4319916,3.9219971-0.8909912,5.8040161-1.3659973l0.493988,1.9179993
	C346.8819885,238.8119965,344.9089966,239.276001,342.9200134,239.7129974z M193.451004,239.2030029
	c-1.9830017-0.3950043-3.9450073-0.8059998-5.8880005-1.2310028l0.4319916-1.9329987
	c1.9309998,0.4219971,3.881012,0.8289948,5.8509979,1.2229919L193.451004,239.2030029z M354.6010132,236.7619934
	l-0.5600281-1.901001c1.9420166-0.5599976,3.855011-1.1509857,5.6870117-1.7559967l0.6319885,1.8769989
	C358.506012,235.595993,356.5669861,236.1950073,354.6010132,236.7619934z M181.6999969,236.6369934
	c-1.9660034-0.4669952-3.9120026-0.9459991-5.8390045-1.4399872l0.5020142-1.9160004
	c1.9149933,0.4899902,3.8499908,0.9679871,5.8040009,1.4309998L181.6999969,236.6369934z M170.0509949,233.6519928
	c-1.946991-0.5349884-3.8739929-1.0859985-5.7819977-1.647995l0.5700073-1.8970032
	c1.8959961,0.5590057,3.8109894,1.105011,5.746994,1.6370087L170.0509949,233.6519928z M366.0480042,232.970993l-0.7149963-1.848999
	c1.867981-0.7070007,3.7200012-1.4589996,5.5039978-2.2319946l0.803009,1.8139954
	C369.8259888,231.4900055,367.9450073,232.2519989,366.0480042,232.970993z M158.5189972,230.253006
	c-1.9250031-0.605011-3.8309937-1.2230072-5.7180023-1.8530121l0.6380005-1.8759918
	c1.8769989,0.6269989,3.7720032,1.2409973,5.6849976,1.8419952L158.5189972,230.253006z M377.1119995,228.1490021
	l-0.9039917-1.7680054c1.7940063-0.897995,3.54599-1.8430023,5.2089844-2.8099976l1.0119934,1.7070007
	C380.730011,226.2649994,378.9410095,227.2310028,377.1119995,228.1490021z M147.1170044,226.4470062
	c-1.901001-0.6720123-3.7830048-1.355011-5.6480103-2.0500031l0.7050018-1.8529968
	c1.8529968,0.6919861,3.7250061,1.3709869,5.6150055,2.0369873L147.1170044,226.4470062z M135.8569946,222.2519989
	c-1.8759918-0.7339935-3.7330017-1.4799957-5.5739899-2.2359924l0.7659912-1.82901
	c1.8310089,0.753006,3.6790009,1.4940033,5.5449982,2.2250061L135.8569946,222.2519989z M387.5490112,222.0590057
	l-1.1330261-1.6320038c1.6520081-1.125,3.2450256-2.3040009,4.7330017-3.5059967l1.2640076,1.5329895
	C390.8829956,219.6909943,389.2460022,220.9029999,387.5490112,222.0590057z M124.7450027,217.6929932
	c-1.848999-0.7910004-3.6830063-1.5939941-5.5009995-2.4049988l0.8219986-1.8059998
	c1.8089981,0.8079987,3.6329956,1.6060028,5.4729996,2.3940125L124.7450027,217.6929932z M396.946991,214.4340057
	l-1.4039917-1.4100037c1.4230042-1.3880005,2.7590027-2.8350067,3.9720154-4.302002l1.5469971,1.2550049
	C399.8049927,211.4980011,398.4200134,212.996994,396.946991,214.4340057z M113.7789993,212.8049927
	c-1.822998-0.8439941-3.6329956-1.696991-5.4280014-2.5559998l0.8710022-1.7829895
	c1.788002,0.8560028,3.5899963,1.7039948,5.4049988,2.54599L113.7789993,212.8049927z M102.9550018,207.6260071
	c-1.8000031-0.8880005-3.5877991-1.7840118-5.363205-2.6850128l0.9121017-1.7610016
	c1.769104,0.8970032,3.5501022,1.7880096,5.344101,2.6750031L102.9550018,207.6260071z M404.6459961,205.0740051
	l-1.6889954-1.0599976c1.0610046-1.655014,2.0039978-3.3680115,2.8049927-5.0920105l1.8160095,0.8269958
	C406.7399902,201.5529938,405.7539978,203.3439941,404.6459961,205.0740051z M92.2637024,202.102005
	c-1.7237015-0.9880066-3.4570999-2.052002-5.1504059-3.1630096l1.1035004-1.651001
	c1.6611023,1.0890045,3.3603058,2.1320038,5.0488052,3.1010132L92.2637024,202.102005z M82.160202,195.4850006
	c-1.592804-1.1779938-3.1913986-2.4279938-4.7519989-3.7140045l1.2812958-1.5220032
	c1.5322037,1.2650146,3.1025009,2.4930115,4.6679001,3.6500092L82.160202,195.4850006z M409.7690125,194.1089935
	l-1.8970032-0.6299896c0.6849976-2.0149994,1.2269897-3.8529968,1.6579895-5.6190033l1.9440002,0.4660034
	C411.0280151,190.147995,410.4710083,192.0399933,409.7690125,194.1089935z M1.20117,193.6380005L0,192.0549927
	c1.61133-1.196991,3.2197299-2.3789978,4.82617-3.5469971l1.1835999,1.5970001
	C4.4091802,191.2669983,2.8066399,192.4450073,1.20117,193.6380005z M72.8612976,187.8150024
	c-1.4764938-1.3540039-2.9355011-2.7590027-4.3358994-4.178009l1.4297028-1.3849945
	c1.3778992,1.3959961,2.8134995,2.7799988,4.2656021,4.1110077L72.8612976,187.8150024z M10.8555002,186.6210022
	l-1.1640902-1.6090088c1.6376896-1.1609955,3.2704897-2.3079987,4.9013901-3.4399872l1.1484003,1.6199951
	C14.1162004,184.3200073,12.4883003,185.4640045,10.8555002,186.6210022z M412.5440063,182.3540039l-1.9880066-0.2089996
	c0.1289978-1.2080078,0.1940002-2.4060059,0.1940002-3.5599976c0-0.7400055-0.026001-1.477005-0.07901-2.1880035
	l1.9940186-0.1450043c0.0569763,0.7599945,0.0849915,1.5449982,0.0849915,2.3330078
	C412.75,179.8079987,412.6809998,181.076004,412.5440063,182.3540039z M20.6630993,179.8159943l-1.1288986-1.6339874
	c1.6620998-1.125,3.3221989-2.2369995,4.9794998-3.3310089l1.1092987,1.6470032
	C23.9736004,177.5890045,22.3192997,178.6950073,20.6630993,179.8159943z M64.4032974,179.2460022
	c-1.3319969-1.4940033-2.6405983-3.0390015-3.8895988-4.5919952l1.5643997-1.2340088
	c1.2276001,1.5279999,2.514698,3.0460052,3.8241997,4.5149994L64.4032974,179.2460022z M30.6229992,173.2350006
	l-1.0897999-1.6589966c1.6885014-1.0890045,3.3740005-2.1610107,5.0566025-3.2170105l1.0703964,1.6730042
	C33.9854012,171.0839996,32.3056984,172.1519928,30.6229992,173.2350006z M409.6659851,170.7680054
	c-0.519989-1.7970123-1.242981-3.5839996-2.1479797-5.3140106l1.7749939-0.9099884
	c0.9670105,1.8450012,1.7390137,3.7569885,2.2950134,5.6779938L409.6659851,170.7680054z M56.8671989,169.8699951
	c-1.1777992-1.6309967-2.3163986-3.3029938-3.3857994-4.9680023l1.6875-1.0619965
	c1.0498009,1.6350098,2.1689987,3.2770081,3.3251991,4.8800049L56.8671989,169.8699951z M40.7373009,166.8880005
	l-1.0508003-1.6840057c1.7138977-1.048996,3.4258003-2.0809937,5.1338005-3.095993l1.0293007,1.696991
	C44.1493988,164.8159943,42.4453011,165.8430023,40.7373009,166.8880005z M51.0009995,160.7850037l-0.6123009-1.0360107
	l-0.0117989,0.006012c-0.0965996-0.1710052-0.1922989-0.3430023-0.2879982-0.5140076l-0.097702-0.1649933
	c0.0019989-0.0010071,0.0028992-0.0019989,0.0049019-0.003006c-0.8544998-1.5419922-1.6650009-3.098999-2.4150009-4.6380005
	l1.8007011-0.8609924c0.7284966,1.4949951,1.514698,3.0059967,2.3437996,4.5039978
	c1.160099-0.6650085,2.3192978-1.3209991,3.4764977-1.9710083l0.9864006,1.7230072
	C54.4628983,158.798996,52.7333984,159.7830048,51.0009995,160.7850037z M404.4039917,160.5890045
	c-1.1149902-1.4710083-2.401001-2.951004-3.822998-4.3950043l1.4320068-1.3820038
	c1.4819946,1.5059967,2.8240051,3.048996,3.9909973,4.5879974L404.4039917,160.5890045z M61.4150009,154.9389954
	l-0.9648018-1.7339935c1.7666016-0.9620056,3.5293007-1.9060059,5.2870979-2.8350067l0.9414062,1.7470093
	C64.9287033,153.0410004,63.1738014,153.9810028,61.4150009,154.9389954z M396.2630005,152.220993
	c-1.4339905-1.2019958-3.0020142-2.4179993-4.6610107-3.6129913l1.177002-1.6009979
	c1.6990051,1.223999,3.3050232,2.4700012,4.7770081,3.7039948L396.2630005,152.220993z M71.9804993,149.3650055L71.0625,147.6060028
	c1.7910004-0.9170074,3.5781021-1.8150024,5.3612976-2.6950073l0.892601,1.7710114
	C75.5429993,147.5579987,73.7637024,148.4530029,71.9804993,149.3650055z M45.1200981,148.951004
	c-0.7655983-1.8670044-1.4686966-3.7640076-2.089798-5.6360016l1.9003983-0.6170044
	c0.6064034,1.8289948,1.2939034,3.6829987,2.0429001,5.5090027L45.1200981,148.951004z M386.7009888,145.2899933
	c-1.59198-1.0169983-3.2999878-2.0519867-5.0739746-3.0759888l1.0079956-1.7109985
	c1.7999878,1.0399933,3.5329895,2.0899963,5.1499939,3.121994L386.7009888,145.2899933z M82.6875,144.0709991l-0.8672028-1.7850037
	c1.8174057-0.8659973,3.6278992-1.7149963,5.4336014-2.5469971l0.8438034,1.7940063
	C86.2997971,142.3609924,84.4971008,143.2079926,82.6875,144.0709991z M376.4219971,139.3419952
	c-1.7000122-0.8999939-3.4840088-1.8079987-5.3039856-2.7029877l0.8889771-1.7730103
	c1.8380127,0.9020081,3.6400146,1.8209991,5.3580017,2.7299957L376.4219971,139.3419952z M93.5419998,139.0700073
	l-0.8183975-1.8059998c1.8417969-0.8170013,3.6757965-1.6160126,5.5038986-2.3970032l0.7929993,1.8179932
	C97.2002029,137.4620056,95.3740005,138.2570038,93.5419998,139.0700073z M41.3485985,137.5410004
	c-0.4921989-1.9640045-0.9071999-3.9459991-1.2313995-5.8890076l1.9726028-0.322998
	c0.3163986,1.8919983,0.719799,3.8220062,1.2001991,5.7350006L41.3485985,137.5410004z M104.5319977,134.378006l-0.7649994-1.82901
	c1.8639984-0.7639923,3.7220001-1.5099945,5.572998-2.2379913l0.7380066,1.8409882
	C108.2350006,132.8760071,106.387001,133.6179962,104.5319977,134.378006z M365.7349854,134.0800018
	c-1.7529907-0.8070068-3.5669861-1.6190033-5.4449768-2.4349976l0.8049927-1.8120117
	c1.8909912,0.8220062,3.7189941,1.6400146,5.4840088,2.4530029L365.7349854,134.0800018z M115.6559982,130.0059967
	l-0.7089996-1.8509979c1.8860016-0.7080002,3.7659988-1.4000015,5.6380005-2.0719986l0.6819992,1.8619995
	C119.4039993,128.6139984,117.5339966,129.3009949,115.6559982,130.0059967z M354.7940063,129.3130035
	c-1.7929993-0.7409973-3.6380005-1.4860001-5.5370178-2.2360001l0.7400208-1.8380051
	c1.9089966,0.7529984,3.7659912,1.5019989,5.5679932,2.2470016L354.7940063,129.3130035z M126.9079971,125.9680023
	l-0.6539993-1.8720016c1.9069977-0.6529999,3.8079987-1.2860031,5.701004-1.901001l0.6230011,1.8820038
	C130.6950073,124.6880035,128.8059998,125.3180008,126.9079971,125.9680023z M39.3768997,125.6780014
	c-0.1405983-1.7679977-0.2118988-3.5419998-0.2118988-5.2730026l0.0038986-0.7480011l2,0.0230026l-0.0038986,0.7249985
	c0,1.6800003,0.0694008,3.401001,0.2061005,5.1160049L39.3768997,125.6780014z M343.6820068,124.9229965
	c-1.822998-0.6899948-3.6910095-1.3839951-5.6060181-2.0809937l0.6920166-1.8580017
	c1.9219971,0.7009964,3.7980042,1.3969955,5.6279907,2.0899963L343.6820068,124.9229965z M138.2769928,122.2730026
	l-0.5909882-1.8909988c1.927002-0.5930023,3.845993-1.1660004,5.7569885-1.7220001l0.5630035,1.9009933
	C142.1040039,121.112999,140.1950073,121.6839981,138.2769928,122.2730026z M332.447998,120.8410034
	c-1.8410034-0.6300049-3.7489929-1.2550049-5.67099-1.8560028l0.6019897-1.887001
	c1.9389954,0.6060028,3.8649902,1.2350006,5.723999,1.8710022L332.447998,120.8410034z M149.7590027,118.9380035
	l-0.5310059-1.9090042c1.9459991-0.5309982,3.8820038-1.0439987,5.8110046-1.5370026l0.5,1.9160004
	C153.621994,117.8990021,151.6950073,118.4100037,149.7590027,118.9380035z M321.0570068,117.2750015
	c-1.8630066-0.5320053-3.802002-1.0620041-5.7630005-1.5740051l0.5099792-1.9139938
	c1.9760132,0.5159988,3.9290161,1.0499954,5.8070068,1.5849991L321.0570068,117.2750015z M161.3450012,115.9729996
	l-0.4689941-1.923996c1.9629974-0.4700012,3.9169922-0.9190063,5.8589935-1.3490067l0.4380035,1.9320068
	C165.2400055,115.0599976,163.2980042,115.5070038,161.3450012,115.9729996z M309.4970093,114.262001
	c-1.8959961-0.4469986-3.8399963-0.8850021-5.8300171-1.3089981l0.4219971-1.9360046
	c2.0039978,0.4280014,3.9630127,0.8680038,5.8730164,1.3199997L309.4970093,114.262001z M41.5155983,113.848999
	l-1.9882965-0.2109985c0.2167969-2.0029984,0.5341988-4.0090027,0.9433975-5.961998l1.9589996,0.4020004
	C42.0331993,109.9680023,41.7256012,111.9089966,41.5155983,113.848999z M173.0209961,113.3899994l-0.4029999-1.9400024
	c1.9790039-0.4029999,3.9459991-0.7869949,5.9029999-1.1509933l0.3700104,1.9449997
	C176.9450073,112.6060028,174.9889984,112.987999,173.0209961,113.3899994z M297.8099976,111.7689972
	c-1.9219971-0.3659973-3.8829956-0.7210007-5.8819885-1.0599976l0.3379822-1.9509964
	c2.0120239,0.3409958,3.9869995,0.697998,5.9219971,1.0679932L297.8099976,111.7689972z M184.7779999,111.197998
	l-0.3359985-1.9519958c1.9929962-0.3349991,3.9729919-0.6520004,5.9400024-0.9500046l0.3029938,1.9570007
	C188.7279968,110.5479965,186.7590027,110.862999,184.7779999,111.197998z M286.0230103,109.7689972
	c-1.9410095-0.2879944-3.9160156-0.5619965-5.9210205-0.8180008l0.2550049-1.9639969
	c2.0200195,0.2580032,4.0079956,0.5340042,5.9630127,0.8239975L286.0230103,109.7689972z M196.6040039,109.4100037
	l-0.2649994-1.9620056c2.0029907-0.2669983,3.9929962-0.5139999,5.9700012-0.7429962l0.2319946,1.9659958
	C200.576004,108.8980026,198.5980072,109.1460037,196.6040039,109.4100037z M274.1619873,108.25
	c-1.9559937-0.2099991-3.9389954-0.4059982-5.9509888-0.5830002l0.178009-1.9729996
	c2.0249939,0.1800003,4.0220032,0.375,5.9899902,0.5879974L274.1619873,108.25z M208.4880066,108.0370026l-0.1970062-1.9700012
	c2.0130005-0.1990051,4.0119934-0.375,5.9940033-0.5340042l0.1600037,1.9740067
	C212.4750061,107.6640015,210.4889984,107.8410034,208.4880066,108.0370026z M262.2489929,107.1999969
	c-1.9660034-0.135994-3.9559937-0.2539978-5.9719849-0.3539963l0.1019897-1.9780045
	c2.0270081,0.102005,4.0310059,0.2200012,6.0090027,0.3560028L262.2489929,107.1999969z M220.4109955,107.0839996l-0.125-1.9759979
	c2.0210114-0.125,4.0250092-0.2310028,6.0110016-0.3170013l0.0879974,1.9769974
	C224.4100037,106.8539963,222.4199982,106.9589996,220.4109955,107.0839996z M250.3049927,106.6070023
	c-1.9720001-0.0600052-3.9659882-0.102005-5.9809875-0.1269989l0.0240021-1.9790039
	c2.0279999,0.0240021,4.0339966,0.0660019,6.0169983,0.1269989L250.3049927,106.6070023z M232.3619995,106.5630035
	l-0.0500031-1.9790039c2.0240021-0.052002,4.0310059-0.0830002,6.0169983-0.0970001l0.0140076,1.9800034
	C236.3679962,106.4800034,234.375,106.512001,232.3619995,106.5630035z M43.9131012,102.4309998l-1.9081993-0.5940018
	c0.607399-1.9100952,1.3173981-3.8135986,2.1112976-5.6580963l1.839901,0.7753983
	C45.1875,98.7397995,44.5,100.5820007,43.9131012,102.4309998z M48.5264015,91.697197l-1.7578011-0.9454956
	c0.954998-1.7390976,2.0145988-3.4734039,3.1473999-5.1555023l1.6641006,1.0981979
	C50.4794998,88.3272018,49.4520988,90.0102997,48.5264015,91.697197z M55.0674019,81.9710007l-1.5645027-1.2336044
	c1.2354012-1.5360947,2.5703011-3.0673981,3.9668007-4.5513l1.4628983,1.3495026
	C57.5713005,78.9828033,56.2705002,80.4745026,55.0674019,81.9710007z M312.9289856,80.8582993
	c-0.0149841,0-0.0289917,0-0.0419922,0c-0.7999878,0-1.6139832-0.0174026-2.4389954-0.0550995l-0.2730103-0.0136032
	l0.1090088-1.9758987l0.2539978,0.0116043c0.8089905,0.0366974,1.631012,0.0502014,2.3890076,0.0531006
	c1.0780029,0,2.1640015-0.0357056,3.230011-0.1072998l0.1349792,1.9759979
	C315.1820068,80.8206024,314.0499878,80.8582993,312.9289856,80.8582993z M304.0960083,79.9728012
	c-1.8250122-0.3731995-3.809021-0.8806992-5.8950195-1.5081024l0.5820007-1.8947983
	c2.0290222,0.6110001,3.9510193,1.1029968,5.7170105,1.4636002L304.0960083,79.9728012z M322.3540039,79.9572983
	l-0.3880005-1.9412003c1.9169922-0.3769989,3.8169861-0.885498,5.6470032-1.5129013l0.6549988,1.8716049
	C326.3519897,79.0311966,324.3619995,79.563797,322.3540039,79.9572983z M292.4630127,76.5457001
	c-1.7710266-0.6437988-3.6110229-1.3534012-5.6270142-2.1703033l0.7579956-1.8328934
	c1.9930115,0.808197,3.8110046,1.5090942,5.5580139,2.145195L292.4630127,76.5457001z M333.9039917,75.9965973l-0.9079895-1.763298
	c1.7170105-0.8670959,3.4079895-1.8705978,5.0249939-2.9804001l1.1409912,1.6259995
	C337.4710083,74.0400009,335.7009888,75.0888977,333.9039917,75.9965973z M63.1259995,73.3902969l-1.3652992-1.4480972
	c1.4413986-1.3311996,2.9775963-2.6585007,4.5655022-3.9451981l1.267601,1.5312958
	C66.0391006,70.7889023,64.535202,72.0880966,63.1259995,73.3902969z M281.2860107,72.0513992
	c-1.7929993-0.7723999-3.6270142-1.5786972-5.5-2.4139023l0.8199768-1.8057938
	c1.8659973,0.8312988,3.6920166,1.6356964,5.4770203,2.4041977L281.2860107,72.0513992z M343.9620056,69.1184006
	l-1.3359985-1.4732971c1.4320068-1.2703018,2.8269958-2.6613998,4.1489868-4.1328049l1.4949951,1.3148041
	C346.8980103,66.3554993,345.447998,67.7987976,343.9620056,69.1184006z M270.3150024,67.1800995l-5.4609985-2.4690018
	l0.8309937-1.8019981l5.4609985,2.468998L270.3150024,67.1800995z M72.2958984,65.938797l-1.1757965-1.6008987
	c1.6035004-1.1542969,3.2802963-2.2949982,4.9853973-3.3921967l1.089798,1.6607971
	C75.5195007,63.6843987,73.8711014,64.8058014,72.2958984,65.938797z M259.3919983,62.2546005
	c-1.79599-0.8013992-3.6210022-1.6096001-5.4749908-2.4178009l0.8069916-1.8115997
	c1.8590088,0.8101006,3.6879883,1.6202011,5.4899902,2.425499L259.3919983,62.2546005z M352.0840149,60.1095009
	l-1.6230164-1.1581993c1.1319885-1.5545006,2.2170105-3.2047005,3.2260132-4.9051018l1.723999,1.0014992
	C354.3710022,56.8013,353.2520142,58.5046997,352.0840149,60.1095009z M82.2617035,59.5149002l-1.0097046-1.7092018
	c1.7089005-0.9898987,3.4852982-1.9681969,5.277298-2.9068985l0.9355011,1.7498016
	C85.6973038,57.5746994,83.9473038,58.5385017,82.2617035,59.5149002z M248.4230042,57.4732018
	c-1.8160095-0.7695007-3.6549988-1.535202-5.5230103-2.2931023l0.7600098-1.8310013
	c1.875,0.7618027,3.7249908,1.5313034,5.5500031,2.302803L248.4230042,57.4732018z M92.7842026,53.9910011l-0.8672028-1.7845001
	c1.7782974-0.8459015,3.6221008-1.6850014,5.4813995-2.4932022l0.8047028,1.8136024
	C96.3643036,52.3254013,94.5410004,53.1548004,92.7842026,53.9910011z M237.345993,52.9730988
	c-1.8409882-0.7134972-3.7049866-1.4171982-5.5919952-2.1064987l0.6930084-1.8581009
	c1.8989868,0.6951027,3.7749939,1.4028015,5.6269989,2.1201019L237.345993,52.9730988z M358.2579956,49.7046013
	l-1.8110046-0.8430023c1.5249939-3.2085991,2.2140198-5.3778992,2.2210083-5.3992004l1.9100037,0.5888023
	C360.5490112,44.144001,359.8460083,46.3606987,358.2579956,49.7046013z M103.7030029,49.2434998l-0.7420044-1.8387985
	c1.8710022-0.7405014,3.7679977-1.4549026,5.6389999-2.1238022l0.6790009,1.8619003
	C107.4300003,47.8040009,105.5540009,48.5107002,103.7030029,49.2434998z M226.1230011,48.8712997
	c-1.878006-0.643898-3.7859955-1.273201-5.6710052-1.8705978l0.6100006-1.8852005
	c1.9000092,0.6022987,3.822998,1.2364998,5.7149963,1.8841972L226.1230011,48.8712997z M214.7389984,45.2692986
	c-1.9149933-0.553997-3.8509979-1.0865974-5.7559967-1.5834999l0.5099945-1.9141998
	c1.9210052,0.5008011,3.875,1.0382996,5.8070068,1.5970993L214.7389984,45.2692986z M114.9250031,45.2335014l-0.6130066-1.8851013
	c1.9090042-0.6081009,3.852005-1.1901016,5.776001-1.7285004l0.5450058,1.9043999
	C118.7320023,44.0569992,116.8119965,44.6321983,114.9250031,45.2335014z M203.1880035,42.2626991
	c-1.9499969-0.4484978-3.9130096-0.8699989-5.8339996-1.2518997l0.394989-1.9412003
	c1.9390106,0.3857994,3.9220123,0.8120995,5.8930054,1.2654991L203.1880035,42.2626991z M126.3980026,42.0229988
	l-0.473999-1.9237976c1.9429932-0.4698029,3.9260025-0.9097023,5.8909988-1.307003l0.401001,1.9392014
	C130.2740021,41.1239014,128.3170013,41.5589981,126.3980026,42.0229988z M191.4869995,39.9387016
	c-1.9660034-0.3267021-3.9499969-0.6225014-5.8970032-0.8797035l0.2640076-1.9623985
	c1.9689941,0.2600021,3.9759979,0.5587006,5.9649963,0.8893013L191.4869995,39.9387016z M138.0769958,39.6573982
	l-0.3259888-1.9527969c1.9889984-0.3258018,4-0.6158028,5.9759979-0.8623009l0.25,1.9644012
	C142.026001,39.0503006,140.0410004,39.3364983,138.0769958,39.6573982z M179.6649933,38.3764992
	c-1.9559937-0.1913986-3.9549866-0.3508987-5.9429932-0.4755974l0.1269989-1.9760017
	c2.0099945,0.1256981,4.0339966,0.2881012,6.0130005,0.4813995L179.6649933,38.3764992z M149.9029999,38.1792984
	l-0.173996-1.9720993c1.9960022-0.1730995,4.0220032-0.3103981,6.0240021-0.4080009l0.0979919,1.9779015
	C153.8739929,37.8737984,151.8730011,38.0091019,149.9029999,38.1792984z M167.7680054,37.6417999
	c-1.9700012-0.0513-3.9560089-0.0667-5.9570007-0.043499l-0.0240021-1.9799004
	c2.026001-0.023201,4.0379944-0.0077019,6.0330048,0.043499L167.7680054,37.6417999z"/>
<path class="st2" d="M173.9889984,110.3889999c-5.4340057,1.2060013-12.2259979,3.8659973-17.6490021,9.6760025
	c-7.5950012,8.1389923-10.401001,20.0579987-8.3399963,35.4259949l9.3869934-1.2339935
	c-1.6669922-12.4309998,0.302002-21.7750092,5.8540039-27.7710037c7.5370026-8.1419983,19.6220093-7.7020035,19.7429962-7.6969986
	l0.4820099-9.362999C183.1380005,109.4100037,179.1849976,109.2350006,173.9889984,110.3889999z"/>
<path class="st2" d="M194.8560028,110.564003c1.345993,6.737999,0.201004,12.6389999-2.5579987,13.1789932l-8.3280029,1.6310043
	c-2.7590027,0.5410004-6.0879974-4.4840012-7.4349976-11.2220001c-1.3460083-6.737999-0.201004-12.6380005,2.5579987-13.1790009
	l8.3280029-1.6306992C190.1799927,98.8018036,193.5090027,103.8259964,194.8560028,110.564003z"/>
<path class="st2" d="M151.8379974,138.5559998c4.5390015,0.0769958,8.2089996,2.0019989,8.1970062,4.3000031l-0.0380096,6.9319916
	c-0.0130005,2.2970123-3.7029877,4.0960083-8.2419891,4.0190125c-4.5400085-0.0780029-8.2089996-2.003006-8.1970062-4.3000031
	l0.0379944-6.9320068C143.6089935,140.2779999,147.298996,138.4779968,151.8379974,138.5559998z"/>
<path class="st3" d="M150.7449951,160.9869995c-3.6360016,0.5079956-5.8549957,4.0079956-4.996994,7.4290009
	c0.2680054,1.0679932,0.6990051,1.7689972,1.1869965,2.4810028c0.6199951,0.9049988,0.878006,1.2639923,0.5820007,2.4769897
	c-0.3869934,1.5860138-1.6860046,3.8070068-4.446991,5.4029999c-0.7170105,0.4140015-1.6350098,0.3420105-2.25-0.2099915
	c-2.3480072-2.1069946-3.9850006-4.8220062-4.7540131-7.9129944c-1.9379883-7.7870026,2.4440002-15.9130096,10.0680084-18.6240082
	c0.6809998-0.2420044,1.3670044-0.4299927,2.052002-0.5769958L150.7449951,160.9869995z"/>
<path class="st3" d="M152.8139954,160.9889984c3.6350098,0.5169983,5.8460083,4.0220032,4.9790039,7.4409943
	c-0.2709961,1.0680084-0.7030029,1.7680054-1.1929932,2.4790039c-0.6220093,0.9029999-0.881012,1.2610016-0.5880127,2.4750061
	c0.3830109,1.5869904,1.677002,3.8110046,4.4340057,5.4129944c0.7160034,0.4160004,1.6340027,0.3460083,2.2510071-0.2050018
	c2.3529968-2.0999908,3.9959869-4.8119965,4.772995-7.901001c1.9570007-7.7819977-2.4049988-15.9189911-10.0240021-18.6469879
	c-0.6799927-0.2440033-1.3650055-0.4340057-2.0500031-0.5830078L152.8139954,160.9889984z"/>
<path class="st4" d="M151.7870026,163.3049927c4.5379944,0,8.2180023-3.6419983,8.2180023-8.1349945
	s-3.6800079-8.1360016-8.2180023-8.1360016c-4.5390015,0-8.2190094,3.6430054-8.2190094,8.1360016
	S147.2480011,163.3049927,151.7870026,163.3049927z"/>
<path class="st2" d="M271.5700073,99.4552002c5.446991-1.1493988,12.2669983-3.7372971,17.7510071-9.4908981
	c7.6829834-8.0585022,10.6159973-19.9475021,8.7189941-35.3361015l-9.3999939,1.1357002
	c1.5339966,12.447403-0.5350037,21.7700958-6.1500244,27.7073975c-7.6239929,8.0626984-19.7039795,7.4960022-19.8240051,7.4897003
	l-0.5819702,9.3570023C262.4110107,100.3389969,266.3630066,100.5540009,271.5700073,99.4552002z"/>
<path class="st2" d="M250.7070007,99.0613022c-1.2749939-6.7518997-0.0659943-12.6399994,2.6990051-13.1515045L261.75,84.3662033
	c2.7650146-0.5115051,6.0400085,4.5472946,7.3150024,11.2991943c1.2739868,6.7516022,0.0660095,12.6396027-2.6990051,13.1516037
	l-8.3450012,1.5429993C255.2559967,110.8720016,251.9810028,105.8130035,250.7070007,99.0613022z"/>
<path class="st2" d="M294.0209961,71.5220032c-4.5379944-0.1251068-8.1869812-2.0884018-8.1499939-4.3852997l0.1119995-6.9313049
	c0.0369873-2.2967987,3.7460022-4.0573997,8.2850037-3.9322968c4.5379944,0.1250992,8.1869812,2.0884972,8.1499939,4.3852997
	l-0.1119995,6.9312973C302.2690125,69.8865967,298.5599976,71.6471024,294.0209961,71.5220032z"/>
<path class="st3" d="M295.3540039,49.1038017c3.6409912-0.4701004,5.8980103-3.9462013,5.0759888-7.3763008
	c-0.2569885-1.0709-0.6799927-1.7768021-1.1600037-2.4936028c-0.6109924-0.9108963-0.8649902-1.2726974-0.5559998-2.4825974
	c0.4040222-1.5823021,1.7270203-3.7891998,4.5039978-5.3560009c0.7220154-0.4069996,1.6400146-0.3248997,2.2490234,0.2336006
	c2.3249817,2.1307011,3.9329834,4.8630009,4.6689758,7.9619007c1.8540039,7.806797-2.6139832,15.8867989-10.2669983,18.5172005
	c-0.6839905,0.2349968-1.3710022,0.4157982-2.0579834,0.5558968L295.3540039,49.1038017z"/>
<path class="st3" d="M293.2860107,49.0796013c-3.6300049-0.5549011-5.803009-4.0827026-4.9000244-7.4925995
	c0.2820129-1.0647011,0.7220154-1.7605019,1.2190247-2.4659004c0.6319885-0.8964005,0.894989-1.2522011,0.6149902-2.4690018
	c-0.3659973-1.591301-1.6359863-3.8283005-4.3760071-5.4594994c-0.7109985-0.4237003-1.6309814-0.3631001-2.2529907,0.1810989
	c-2.375,2.075901-4.0469971,4.7699013-4.8569946,7.8507996c-2.0400085,7.7614021,2.2349854,15.9433022,9.822998,18.751503
	c0.6779785,0.2508965,1.3609924,0.4476967,2.0440063,0.6037979L293.2860107,49.0796013z"/>
<path class="st4" d="M294.25,63.0452003c4.5390015,0,8.2189941-3.6423988,8.2189941-8.1353989
	s-3.6799927-8.1354027-8.2189941-8.1354027c-4.5379944,0-8.2179871,3.6424026-8.2179871,8.1354027
	S289.7120056,63.0452003,294.25,63.0452003z"/>
<linearGradient id="SVGID_1_" gradientUnits="userSpaceOnUse" x1="232.7368622" y1="133.2264709" x2="241.3218689" y2="95.8634796" gradientTransform="matrix(1 0 0 -1 0 284)">
	<stop  offset="0" style="stop-color:#ED5FFF"/>
	<stop  offset="1" style="stop-color:#ED5FFF;stop-opacity:0"/>
</linearGradient>
<path class="st5" d="M216.1399994,159.9900055l17.0059967,39.7339935l19.5360107-4.1230011l-0.8440094-43.1450043
	L216.1399994,159.9900055z"/>
<linearGradient id="SVGID_00000057139311572231286640000001594423551831337903_" gradientUnits="userSpaceOnUse" x1="191.2745056" y1="144.8815155" x2="265.1557007" y2="160.794342" gradientTransform="matrix(1 0 0 -1 0 284)">
	<stop  offset="0" style="stop-color:#C879D8"/>
	<stop  offset="0.463121" style="stop-color:#B461C5"/>
	<stop  offset="1" style="stop-color:#A049B2"/>
</linearGradient>
<path style="fill:url(#SVGID_00000057139311572231286640000001594423551831337903_);" d="M185.7610016,105.7710037
	l-1.5850067,0.3899994c0,0,8.3540039,22.1699905,26.2649994,53.1110001c0.0390015,0.071991,0.0800018,0.1419983,0.1220093,0.2119904
	l0,0c2.9619904,4.9950104,13.3309937,7.0940094,24.7679901,4.6800079
	c11.7820129-2.4869995,20.5550079-8.8880005,20.7210083-14.7920074c3.5629883-35.3529968,2.0709839-58.8182907,2.0709839-58.8182907
	l-1.6079712,0.2842941L185.7610016,105.7710037z"/>
<path class="st4" d="M224.7400055,114.9869995c20.5110016-4.3290024,35.3759918-16.0187988,33.2029877-26.1097031
	c-2.1729889-10.0908966-20.5629883-14.761795-41.0739899-10.4328995
	c-20.5110016,4.3290024-35.3760071,16.0186005-33.2030029,26.1096039S204.2290039,119.3160019,224.7400055,114.9869995z"/>
<path class="st2" d="M223.3419952,108.4980011c15.7210083-3.3170013,27.2610016-11.5983047,25.7750092-18.4953003
	c-1.4850006-6.8971024-15.4329987-9.7985001-31.154007-6.4805984c-15.720993,3.3180008-27.2610016,11.5988007-25.7749939,18.4958954
	C193.6730042,108.9150009,207.621994,111.8160019,223.3419952,108.4980011z"/>
<path class="st4" d="M232.5670013,151.7920074c-12.1300049,2.5599976-23.5480042-0.2990112-28.6880035-4.3640137
	c2.0429993,3.8500061,4.2290039,7.8140106,6.5619965,11.8440094c0.0390015,0.071991,0.0800018,0.1419983,0.1220093,0.2119904
	c0,0,0,0.0010071,0,0c2.9609985,4.9950104,13.3309937,7.0940094,24.7679901,4.6800079
	c11.7820129-2.4869995,20.5550079-8.8880005,20.7210083-14.7920074c0.4679871-4.6409912,0.8280029-9.1579895,1.1040039-13.5119934
	C254.3589935,141.7709961,244.9519958,149.1779938,232.5670013,151.7920074z"/>
<path class="st7" d="M231.3569946,137.4349976c-0.4720001,0.2620087-1.0169983,0.4680023-1.6109924,0.5930023
	c-0.5940094,0.125-1.1759949,0.1580048-1.7160034,0.1089935c-0.3379974-0.0309906-0.5079956,0.3790131-0.2440033,0.5860138
	c0.6040039,0.4720001,1.4090118,0.6839905,2.2200012,0.5129852c0.8110046-0.17099,1.4589996-0.6899872,1.8160095-1.3639984
	C231.9779968,137.576004,231.654007,137.2700043,231.3569946,137.4349976z"/>
<path class="st7" d="M221.5429993,137.5399933l1.0119934,0.177002l-0.2599945-0.9639893l0.6880035,0.121994l-1.5690002-1.5630035
	l-0.8350067,1.1360016l0.6940002,0.1240082L221.5429993,137.5399933z"/>
<path class="st7" d="M221.1649933,138.5460052l2.3770142,0.4079895l-0.1420135-0.5319977l-2.3880005-0.4140015
	L221.1649933,138.5460052z"/>
<path class="st7" d="M226.1179962,121.1809998l-10.4530029,7.7109985l3.6370087,11.9949951L230.7630005,142.75l9.6970062-6.3280029
	l-1.6210022-12.4209976L226.1179962,121.1809998z M235.8970032,125.2080002l-3.0749969,2.1520004l-9.3310089-1.9410019
	l3.0590057-2.2320023L235.8970032,125.2080002z M231.8439941,128.0449982l-3.6909943,2.5839996l-9.3049927-1.822998
	l3.6699982-2.6780014L231.8439941,128.0449982z M230.4409943,141.2570038l-9.9219971-1.654007l-2.6909943-9.2649994
	l10.7030029,2.0460052l8.9290009-6.189003l1.3589935,9.5459976L230.4409943,141.2570038z"/>
<path class="st7" d="M228.0370026,135.3150024c-0.2420044-0.9089966-1.125-1.5130005-2.0510101-1.3170013
	c-0.9269867,0.1949921-1.4899902,1.1029968-1.2609863,2.0160065c0.2249908,0.9009857,1.0569916,0.9619904,1.9859924,1.0419922
	C227.8220062,137.1499939,228.3009949,136.3059998,228.0370026,135.3150024z"/>
<path class="st7" d="M230.1889954,134.8609924c-0.1539917-0.9279938,0.404007-1.8359985,1.3300018-2.0309906
	c0.9260101-0.1959991,1.8150024,0.4059906,1.9820099,1.3320007c0.1660004,0.9129944-0.5690002,1.3049927-1.3840027,1.7519989
	C231.1410065,136.4499969,230.3560028,135.871994,230.1889954,134.8609924z"/>
<path class="st8" d="M221.6710052,101.0329971c0.0529938-0.010994,0.1029968-0.0289993,0.1549988-0.0410004l-4.2990112-56.2670975
	l-59.5629883-8.9567986c-2.9360046,2.0868988-4.3580017,5.6970978-3.602005,9.2084999l8.8079987,40.8989029
	c0.7709961,3.5772934,3.6459961,6.3404999,7.2810059,6.9970932l4.7070007,0.8502045l40.9219971,7.3921967
	C217.9490051,101.4530029,219.8480072,101.4179993,221.6710052,101.0329971z"/>
<path class="st9" d="M268.8410034,63.5760002l-8.8089905-40.9019012c-0.7720032-3.5757999-3.6460266-6.3380013-7.280014-6.994401
	l-0.0070038-0.0011997l-42.7799988,31.0020981l11.7060089,54.3523979c1.8239899-0.3849945,3.571991-1.1197968,5.1389923-2.1828003
	l13.3870087-9.0774994l24.8799896-16.8717957C268.1229858,70.8342972,269.6099854,67.1520004,268.8410034,63.5760002z"/>
<path class="st10" d="M156.8090057,36.7439995c-0.8000031,1.1878014-0.1980133,2.9573021,1.3909912,3.2443008l46.5630035,8.4131012
	c3.7149963,0.6708984,7.5460052-0.1378021,10.6609955-2.250103l39.0480042-26.4817982
	c1.3300018-0.9020996,1.1529999-2.7557011-0.0610046-3.5199013c-0.5309906-0.2039995-1.0839996-0.3660994-1.6589966-0.4698992
	L207.121994,7.4355001c-1.868988-0.33779-3.7679901-0.3031402-5.5919952,0.0817199
	c-1.822998,0.38485-3.5709991,1.1198096-5.1389923,2.18296L194.1829987,11.1973l-36.0569916,24.4514008
	C157.6459961,35.9744987,157.2089996,36.3446007,156.8090057,36.7439995z"/>
<path class="st11" d="M229.7910004,36.4239006l2.5970001,12.0559006l12.0440063-8.1350021l-2.5970001-12.0559998
	L229.7910004,36.4239006z"/>
<path class="st11" d="M175.5549927,81.5375977l-5.2279968-0.9553986l-1.8690033-8.6808014l5.2280121,0.9553986
	L175.5549927,81.5375977z"/>
<path class="st11" d="M180.4329987,88.2201004l-12.3869934-2.2638016l-0.6220093-2.8908997l12.3870087,2.2638016
	L180.4329987,88.2201004z"/>
<path class="st11" d="M165.6880035,74.8255005l4.6419983-5.8904037l7.6640015,8.1393051L165.6880035,74.8255005z"/>
<path class="st8" d="M241.6560059,28.3628998l-57.4760132-10.3822002l-5.3709869,3.6427002L236.2839966,32.0056
	L241.6560059,28.3628998z"/>
<path class="st8" d="M177.6080017,22.4375l-5.3339996,3.6170006L229.75,36.4366989l5.3339996-3.6170006L177.6080017,22.4375z"/>
<path class="st9" d="M236.2839966,32.0055008l-57.4749908-10.3822002l-1.201004,0.8139992L235.0839996,32.8195
	L236.2839966,32.0055008z"/>
<path class="st12" d="M219.5169983,65.7275009c-1.1129913-6.4193993,2.7330017-12.6352997,9.1679993-13.9934006
	c6.4349976-1.3582001,12.7640076,2.7048988,14.1360016,9.0750999s-3.7839966,9.1339989-9.5310059,12.3054008
	C226.3860016,76.9246979,220.7480011,72.8205032,219.5169983,65.7275009z"/>
<path class="st12" d="M210.1529999,67.7041016c-1.6289978-6.3109016-7.701004-10.4333-14.1360016-9.0752029
	c-6.4349976,1.3582001-10.5399933,7.6231995-9.1679993,13.9934006s7.2189941,6.8118973,13.772995,7.3871994
	C208.4949951,80.7005997,211.951004,74.6772003,210.1529999,67.7041016z"/>
<path class="st2" d="M218.0449982,84.1969986c-2.5240021,0.5326996-4.9960022,0.6634979-7.2789917,0.4468002
	c-1.4029999-0.1332016-2.177002,1.6231003-1.0900116,2.5095978c2.5559998,2.0828018,6.0110016,3.0351028,9.5010071,2.2985001
	c3.4900055-0.7365952,6.2519989-3.0009003,7.7279968-5.9345932c0.628006-1.248703-0.8040009-2.5393066-2.0289917-1.8515015
	C222.8800049,82.7854996,220.5700073,83.664299,218.0449982,84.1969986z"/>
<path class="st13" d="M193.6049957,74.3451004c3.6410065,0,6.5920105-2.9216995,6.5920105-6.5257034
	c0-3.6040955-2.951004-6.5256958-6.5920105-6.5256958c-3.6399994,0-6.5919952,2.9216003-6.5919952,6.5256958
	C187.0130005,71.4234009,189.9649963,74.3451004,193.6049957,74.3451004z"/>
<path class="st2" d="M193.6049957,71.328598c1.9580078,0,3.5449982-1.5710983,3.5449982-3.5090942
	c0-1.9381027-1.5869904-3.509201-3.5449982-3.509201c-1.9579926,0-3.5449982,1.5710983-3.5449982,3.509201
	C190.0599976,69.7574997,191.6470032,71.328598,193.6049957,71.328598z"/>
<path class="st12" d="M191.1529999,67.9057007c1.0679932,0,1.9340057-0.8571014,1.9340057-1.914299
	c0-1.0572052-0.8660126-1.914299-1.9340057-1.914299s-1.9340057,0.8570938-1.9340057,1.914299
	C189.2189941,67.0485992,190.0850067,67.9057007,191.1529999,67.9057007z"/>
<path class="st13" d="M225.8540039,68.9228973c3.6409912,0,6.5919952-2.9216003,6.5919952-6.5255966
	c0-3.6040993-2.951004-6.5256996-6.5919952-6.5256996c-3.6399994,0-6.5920105,2.9216003-6.5920105,6.5256996
	C219.2619934,66.001297,222.2140045,68.9228973,225.8540039,68.9228973z"/>
<path class="st2" d="M225.8540039,65.9065018c1.9579926,0,3.5449982-1.5710983,3.5449982-3.509201
	c0-1.9379997-1.5870056-3.5091019-3.5449982-3.5091019c-1.9580078,0-3.5449982,1.5711021-3.5449982,3.5091019
	C222.3090057,64.3354034,223.8959961,65.9065018,225.8540039,65.9065018z"/>
<path class="st12" d="M223.4019928,62.4835014c1.0680084,0,1.9340057-0.8570023,1.9340057-1.9141998
	c0-1.0572014-0.8659973-1.9143028-1.9340057-1.9143028c-1.0679932,0-1.9329987,0.8571014-1.9329987,1.9143028
	C221.4689941,61.6264992,222.3339996,62.4835014,223.4019928,62.4835014z"/>
<path class="st2" d="M184.7669983,61.1445999c0,0,2.7319946-5.2494011,9.9750061-7.4860992l-2.1159973-4.5096016
	c0,0-8.0340118,2.5454025-11.1000061,9.5646019L184.7669983,61.1445999z"/>
<path class="st2" d="M236.1529999,43.3610001c0,0-4.6569977-3.6901016-12.1920013-2.8078995l0.0740051-4.9716988
	c0,0,8.3840027-0.920002,14.0749969,4.2510986L236.1529999,43.3610001z"/>
<path class="st14" d="M42.6767998,23.7742004L117.4029999,0.154297l18.6809998,76.4544067l-62.5474014,31.6962967
	L42.6767998,23.7742004z"/>
<path class="st14" d="M101.685997,69.552597c0.2630005-0.2603989,7.3069992-6.5038986,9.2560043-9.4711952
	c2.0169983-3.0904007,2.5169983-6.7190018,1.4109955-10.5575027l-5.4799957-19.0095997l-0.276001-0.0081997
	c-8.2218018-1.7701988-17.0021973,1.3250008-17.4361038,1.4633007c-0.3468933,0.1106014-9.4408951,2.7087994-15.2830963,9.0717983
	l-0.1419983,0.145401l7.1606979,19.0784988c1.4371033,3.8287048,4.0878983,6.4552994,7.6473999,7.6651993
	C91.9431992,69.0727997,101.3479996,69.5888977,101.685997,69.552597z"/>
<path class="st15" d="M101.8089981,69.9268036c0,0-9.9458008-0.5701065-13.4237976-1.6823044
	c-3.7817993-1.3064957-6.3831024-4.0391998-7.7934036-7.7868996l-7.4423981-19.7790985
	c6.1362-6.6669998,15.889801-9.3681011,15.889801-9.3681011s9.3722992-3.3792,17.9897995-1.5251999L112.6940002,49.4972
	c1.0800018,3.7574005,0.6780014,7.4375992-1.4489975,10.7352982
	C109.2429962,63.2989998,101.8089981,69.9268036,101.8089981,69.9268036z M81.9281998,60.0050011
	c1.3079987,3.5113983,3.6709976,5.8876991,6.902504,6.9575996c2.8922958,0.9850998,10.4703979,1.4952011,12.5322952,1.6155014
	c1.5569992-1.3863983,7.2229996-6.5725021,8.822998-9.001503c1.8510056-2.7831993,2.2580032-6.1282997,1.2580032-9.5671005
	l-5.6529999-19.4384995c-10.1108017,2.1785011-21.8162003,6.5296021-28.0253983,18.2587013L81.9281998,60.0050011z"/>
<path class="st15" d="M105.0220032,49.2276993c1.4349976,0.3264999,2.0659943,0.6505013,2.4160004,1.5158997
	c0.2919998,0.9681015-0.1790009,1.7476006-1.2200012,2.1012001c-0.8820038,0.2994995-2.0770035,0.1713028-3.0050049-0.2272987
	l0.8040009,2.5673981c1.0299988,0.1781006,2.1910019,0.2196007,3.3069992-0.1615982
	c2.7020035-0.9225998,3.4060059-3.269001,2.8860016-5.0401001c-0.3959961-1.6498985-1.2639999-2.7949982-4.0270004-3.4076004
	c-1.2579956-0.3078003-2.1999969-0.4506989-2.5049973-1.4487c-0.3069992-1.0028992,0.4669952-1.7220001,1.2060013-1.9668999
	c0.9829941-0.325798,2.1380005-0.0647011,2.8819962,0.3321991l-0.7439957-2.5187988
	c-0.6180038-0.260601-1.8619995-0.5015984-3.404007,0.1002998c-1.875,0.7117004-3.4399948,2.7205009-2.7039948,5.0671005
	C101.4909973,47.6902008,102.3410034,48.6800003,105.0220032,49.2276993z M97.322197,58.2613983
	c0.2686996-0.0029984,0.6996002-0.0613976,1.3455048-0.2819977c3.1392975-1.0720024,4.0233002-4.4701004,2.7433014-8.5330009
	c-1.3320007-4.228199-4.069603-6.212101-7.4964066-5.0825005c-1.5935974,0.5251999-2.7417984,1.2803993-3.6047974,2.3172989
	l6.1977005,18.2296982l2.7136002-0.9397964l-1.8973007-5.7103004L97.322197,58.2613983z M93.6367035,47.1693001
	c0.2217941-0.167099,0.5836945-0.4724998,0.9169998-0.5830002c1.664093-0.5516014,2.7612991,0.5667,3.8042984,3.7929993
	c1.0009995,3.096302,0.6582947,4.8207016-0.9654999,5.3719025c-0.4070053,0.1380997-0.759201,0.1679993-0.9481049,0.1422997
	l-2.8914948-8.6963997L93.6367035,47.1693001z M88.8275986,61.3398018c1.7190018-0.587101,3.0496979-1.4857025,3.8637009-2.564003
	l-4.273201-12.4104996l-2.963295,0.9771996l3.8085938,10.808403c-0.2446976,0.3521996-0.6284943,0.5727997-1.2052994,0.7684975
	c-1.3210983,0.4484024-1.9216995-0.7011986-2.1838989-1.4290009l-3.3123016-9.1938972l-2.9903946,0.9860992l3.3277969,9.0312004
	C83.9957962,61.2895012,86.0345993,62.2935982,88.8275986,61.3398018z"/>
<path class="st16" d="M39.8193016,185.9440002l49.3236961,30.5690002l17.2099991-57.4909973l-55.0477982-33.6650009
	L39.8193016,185.9440002z"/>
<path class="st17" d="M328.7630005,163.2480011l25.2550049-54.1279984l55.197998,13.0209961l-25.79599,54.8420029
	L328.7630005,163.2480011z"/>
<path class="st18" d="M371.7030029,135.7850037c-6.2200012-0.6330109-10.7090149,0.121994-12.1799927,0.4420013
	c1.6159973-0.230011,6.9379883-0.4589996,12.8929749,0.5839996c6.4190063,1.1069946,12.5760193,3.3129883,18.3510132,6.5099945
	l0.7149963-1.5160065C384.3850098,138.0379944,376.9240112,136.326004,371.7030029,135.7850037z"/>
<path class="st12" d="M357.1029968,139.2230072c-0.3339844,0.7910004-1.5350037,3.0329895-4.79599,2.2149963
	c-2.2780151-0.5720062-3.0209961-2.3470001-2.5090027-4.4970093c0.618988-2.5999908,2.7229919-4.3509979,5.3939819-3.6809998
	c1.7490234,0.4380035,3.1350098,1.6080017,2.6030273,4.0169983l-2.2980042-0.5759888
	c0.197998-0.7450104-0.0540161-1.2590027-0.8009949-1.4459991c-1.3360291-0.3350067-2.2020264,1.1169891-2.4700012,2.2419891
	c-0.1549988,0.6500092-0.2480164,1.7389984,0.8519897,2.0149994c0.7669983,0.1920013,1.3240051-0.2249908,1.6279907-0.8899994
	L357.1029968,139.2230072z M359.0539856,141.1690063c0.1010132-0.4250031,0.4830017-0.5410004,0.8619995-0.4720001
	c0.3930054,0.0979919,0.809021,0.0970001,1.2180176,0.0410004c-0.3460083,0.8399963-0.7650146,1.2910004-1.4920044,1.1089935
	C359.2879944,141.7579956,358.9580078,141.5690002,359.0539856,141.1690063z M360.2539978,138.927002
	c0.2189941-0.3950043,0.5750122-0.4909973,1.0069885-0.3829956c0.3340149,0.0839996,0.6640015,0.2719879,0.5690002,0.6719971
	c-0.1729736,0.7249908-1.1309814,0.3789978-1.7519836,0.276001c-1.6799927-0.2880096-2.901001-0.1439972-3.2640076,1.3809967
	c-0.2619934,1.1000061,0.4949951,1.7660065,1.4769897,2.0130005c0.6290283,0.1569977,1.4290161,0.1190033,1.9350281-0.2570038
	l0.0189819,0.0050049c-0.0469971,0.1999969-0.0690002,0.3800049-0.052002,0.5699921l2.1410217,0.5370026
	c-0.0130005-0.2949982-0.0210266-0.0849915,0.0469971-0.5449982c0.0889893-0.375,1.4019775-2.8269958,1.6159973-3.727005
	c0.3399963-1.4249878-1.3789978-1.9889984-2.4000244-2.2449951c-1.394989-0.3500061-2.6569824-0.2949982-3.3799744,1.1660004
	L360.2539978,138.927002z M365.6019897,138.4140015l2.1010132,0.5269928l-0.3349915,0.7109985l0.0189819,0.0050049
	c0.6090088-0.4570007,1.3340149-0.6199951,1.9770203-0.4319916c1.0019836,0.2509918,1.7649841,0.8929901,1.4909973,2.0429993
	c-0.1090088,0.3699951-0.257019,0.7299957-0.4190063,1.0599976l-1.4880066,3.0979919l-2.1799927-0.5469971l1.2070007-2.5319977
	c0.1560059-0.3049927,0.2859802-0.5899963,0.4089966-0.9309998c0.0889893-0.375-0.125-0.6139984-0.4779968-0.7019958
	c-0.6880188-0.1730042-1.0429993,0.2679901-1.322998,0.8339996l-1.3869934,2.9369965l-2.1800232-0.5469971L365.6019897,138.4140015z
	 M373.6610107,145.0449982c-0.4049988-0.048996-0.6690063-0.5119934-0.5899963-1.0220032
	c0.0119934-0.0499878,0.0179749-0.0749969,0.0299988-0.125c0.125-0.5249939,0.6349792-1.8809967,1.5979919-1.6389923
	c0.6479797,0.1620026,0.6789856,0.6470032,0.5419922,1.2220001
	C375.0820007,144.2350006,374.5450134,145.2660065,373.6610107,145.0449982z M368.9930115,147.423996l2.1799927,0.5469971
	l1.1300049-2.4720001c0.2869873,0.8930054,0.8979797,1.1260071,1.5069885,1.279007
	c1.9450073,0.4869995,3.2659912-1.3009949,3.677002-3.026001c0.243988-1.0249939,0.1000061-2.5180054-1.5109863-2.9219971
	c-0.5770264-0.1970062-1.1990051-0.0350037-1.7230225,0.4160004l-0.0189819-0.0050049l0.2919922-0.6149902l-2.1220093-0.5320129
	L368.9930115,147.423996z M379.2869873,146.2440033c0.1010132-0.4250031,0.4830017-0.5410004,0.8619995-0.4730072
	c0.3930054,0.098999,0.8100281,0.0970001,1.2190247,0.0410004c-0.3460083,0.8399963-0.7660217,1.2920074-1.4930115,1.1090088
	C379.5020142,146.8280029,379.1919861,146.6439972,379.2869873,146.2440033z M380.4679871,143.996994
	c0.2190247-0.3959961,0.5750122-0.4919891,1.007019-0.3829956c0.3339844,0.0830078,0.6640015,0.2720032,0.5690002,0.6719971
	c-0.1730042,0.7250061-1.132019,0.3789978-1.7520142,0.276001c-1.6799927-0.2890015-2.901001-0.144989-3.2649841,1.3800049
	c-0.2619934,1.1000061,0.4960022,1.7669983,1.4779968,2.0130005c0.6480103,0.1629944,1.4289856,0.1199951,1.9349976-0.2559967
	l0.0190125,0.0049896c-0.0470276,0.1990051-0.0700073,0.3789978-0.052002,0.5690002l2.1409912,0.5370026
	c-0.0130005-0.2949982-0.0209961-0.0849915,0.04599-0.5439911c0.0899963-0.375,1.4030151-2.8280029,1.6170044-3.7280121
	c0.3389893-1.4249878-1.3789978-1.9879913-2.401001-2.243988c-1.3940125-0.3500061-2.6560059-0.2960052-3.3789978,1.1649933
	L380.4679871,143.996994z M385.79599,143.4779968l2.1210022,0.5330048l-0.4109802,0.8499908l0.019989,0.0050049
	c0.5610046-0.5209961,1.2600098-0.7440033,1.9200134-0.6309967c0.2609863,0.0390015,0.5049744,0.1529999,0.7419739,0.2919922
	l-0.8769836,1.8470001c-0.2510071-0.1689911-0.5140076-0.2879944-0.8089905-0.3619995
	c-0.9230042-0.2319946-1.4900208,0.0500031-2.0370178,1.2110138l-1.0690002,2.3019867l-2.1799927-0.5469971L385.79599,143.4779968z"
	/>
<path class="st19" d="M148.526001,282.6319885l-18.0469971-65.595993l63.6809998-26.3789978l18.0859985,66.6060028
	L148.526001,282.6319885z"/>
<path class="st1" d="M313.4330139,24.4097004L405.6530151,1.91748l-59.0250244,30.3916206L313.4330139,24.4097004z"/>
<path class="st20" d="M346.6279907,32.3091011l15.460022,25.4202995l-1.4950256-25.5098L405.6530151,1.91748L346.6279907,32.3091011
	z"/>
<path class="st21" d="M346.6279907,32.3091011l15.460022,25.4202995l-1.4950256-25.5098L405.6530151,1.91748L346.6279907,32.3091011
	z"/>
<path class="st1" d="M389.1220093,49.9147987l-28.5290222-17.6951981L405.6530151,1.91748L389.1220093,49.9147987z"/>
<path class="st12" d="M362.0880127,57.7293015l14.4879761-15.6212006l-15.9830017-9.8885994L362.0880127,57.7293015z"/>
<path class="st22" d="M362.0880127,57.7293015l14.4879761-15.6212006l-15.9830017-9.8885994L362.0880127,57.7293015z"/>
<path class="st23" d="M292.6059875,263.4670105l8.5890198-55.6830139l65.2890015-4.2509918l-14.0249939,53.8690033
	L292.6059875,263.4670105z"/>
<path class="st24" d="M328.7739868,223.9900055l-0.7630005,6.3819885l7.8280029-0.4509888
	c-5.867981,11.3529968-18.8379822,10.25-22.5039978,5.8909912c-3.144989-3.7559967-1.0119934-10.6279907,7.4380188-15.2979889
	c-8.4389954,3.4809875-12.7940063,11.6389923-9.6560059,16.7669983c3.5639954,5.8199921,13.7250061,7.7399902,22.4530029,4.3109894
	c5.8119812-2.75,8.1459961-6.2519989,8.9830017-8.1129913l-0.9630127,8.8000031l5.8510132-0.3370056l2.0899963-19.1569977
	l-20.7579956,1.197998L328.7739868,223.9900055z"/>
<g>
	<g>
		<path class="st12" d="M178.8890533,257.4129333c-10.2868805,4.0554199-21.4813538-1.9532776-24.9552307-13.3930359
			c-3.4742279-11.4409332,2.0673981-24.0475159,12.3542938-28.1029053
			c10.2868805-4.0554047,21.4813538,1.9532928,24.9555817,13.3942261
			C194.7175751,240.7509766,189.1759491,253.3575439,178.8890533,257.4129333z M166.6004791,216.9456482
			c-9.7805481,3.8557892-15.0509338,15.8392181-11.7490845,26.7125092
			c3.3018646,10.8733063,13.9447327,16.5819244,23.725296,12.72612c9.7805634-3.8557739,15.0513-15.838028,11.7494354-26.711319
			C187.0242767,218.7996521,176.3810425,213.0898438,166.6004791,216.9456482z"/>
		<path class="st25" d="M167.7091522,241.5228119l0.8132477-1.8647156l14.2817688-6.5568237l0.406601-0.9324951
			l-14.2872925,5.6324768l-10.8162537-7.0084991l28.7962952-0.5430298l-5.5670013,13.0041504l-17.366272,6.8462982
			l1.1382904-2.6107025l14.2817688-6.556839l0.4066315-0.9323578l-13.7947083,5.4382935l0.8132172-1.8648376l14.3236694-6.4188995
			l0.3647461-1.0703125L167.7091522,241.5228119z"/>
	</g>
</g>
<g>
	<path class="st26" d="M91.6050186,187.833847c0.2047501-0.764801-0.0817337-1.5701294-0.6829224-1.9080353
		c-0.6001892-0.3373413-1.1870193-0.0228882-1.3917694,0.7419281c-0.2044144,0.7635651,0.0828171,1.5682373,0.6830063,1.9055939
		C90.8145218,188.9112396,91.400856,188.5964813,91.6050186,187.833847z M90.2766037,187.1653748l-0.2316589,0.8653259
		l-0.2249451-0.1264343l0.5108261-1.9081421l0.5589981,0.3141937c0.3275528,0.1840973,0.4302597,0.4463654,0.3374786,0.7929382
		c-0.0571442,0.2134552-0.2185135,0.3173065-0.3746185,0.2577515l-0.0021591,0.0080719
		c0.1229324,0.0987244,0.1320724,0.2694855,0.0882645,0.5479279c-0.0252075,0.1821442-0.07724,0.4934387-0.0469055,0.5904388
		l-0.2661438-0.1495819c-0.0139084-0.2141418,0.0602798-0.4644318,0.0694962-0.7037659
		c0.0038223-0.1838226-0.0498047-0.2817841-0.1988449-0.3655548l-0.2184601-0.1227875l-0.0002518,0.0009308l-0.0010757-0.0013275
		V187.1653748z M90.6215134,187.0754547c0.2184525,0.1227722,0.3195801,0.0132751,0.353714-0.1142426
		c0.0403671-0.1507874,0.0098495-0.3050079-0.2086029-0.4277954l-0.2788773-0.1567535l-0.1452789,0.5426636l0.2788773,0.1567383
		L90.6215134,187.0754547z M89.2829132,186.5286713c0.2522583-0.942276,1.0247192-1.2409363,1.7062988-0.8578339
		c0.6835785,0.384201,1.1142349,1.3590851,0.8619766,2.3013763c-0.2517548,0.9404144-1.0233841,1.2402496-1.7072067,0.855896
		C89.4624023,188.4450226,89.0311508,187.469101,89.2829132,186.5286713z"/>
	<g>
		<path class="st26" d="M84.4859085,185.3312988l-0.9276428-2.8940582l-2.0188751,1.2379303l-3.086319-1.7347107
			l4.1438904-2.5161591l-1.8886032-5.9082336l3.1826935,1.7888794l0.9468536,2.8866577l1.9861755-1.2381134l3.0713425,1.7262878
			l-4.1245117,2.5081329l1.9109192,5.9396973L84.4859085,185.3312988z M72.5265961,178.6094055l3.5527878-13.2710876
			l5.9264832,3.3310547l-0.7919083,2.9580994l-3.4161301-1.9200897l-0.5055923,1.8886108l3.4161224,1.9200745l-0.7620087,2.8463898
			l-3.4161224-1.9200745l-0.699379,2.6124573l3.4161301,1.9200745l-0.7939072,2.9655457L72.5265961,178.6094055z"/>
	</g>
	<path class="st12" d="M73.57827,163.9325256l-1.4539871,5.4312439l-0.0277176-0.0155792
		c-0.3418579-1.1016693-0.9599152-1.7660217-1.7620773-2.2169037c-1.6437759-0.9239044-3.2541351-0.2302246-4.1802673,1.3613281
		c0.0458145-2.3019562-0.9007111-4.2606964-2.7961426-5.3260498c-1.539669-0.8654022-2.9848518-0.6900024-3.9943542,0.3524628
		l0.465477-1.738739l-3.181942-1.7884521l0.5054283-1.8879852l3.4728012,1.9519348l0.7918243-2.9577789l-6.3092079-3.5461731
		l-3.5526276,13.270462l2.8364105,1.5942383l1.4932823-5.5779877l2.8271751,1.5890503
		c-0.2019196,0.3799896-0.3634567,0.7963257-0.4808426,1.2392883c-0.7407455,2.7669678,0.440155,5.6677399,2.6124649,6.8887177
		c1.8260307,1.0263519,3.3158836,0.6368866,4.4719887-0.9467621l-2.4309616-1.3663635
		c-0.4849586,0.3995667-0.7808037,0.4317627-1.4381638,0.0622711c-0.7619705-0.4282684-1.1983032-1.6244354-0.9363289-2.6030273
		l4.9498024,2.7821045c-0.3737793,2.318924,0.496933,4.9889526,2.3883743,6.052063
		c0.8158951,0.4585876,1.6963577,0.379837,2.3785019-0.2058868l0.0274658,0.0154419l-0.2301636,0.8597565l2.5008621,1.4056396
		l3.5531235-13.2723236l-2.5003586-1.405365L73.57827,163.9325256L73.57827,163.9325256z M61.1054573,165.8183746
		c0.3837967-0.7544861,1.057354-1.0098572,1.7139626-0.6407928c0.7230225,0.4063721,1.0793991,1.2210083,0.9801407,2.1550446
		L61.1054573,165.8183746z M69.0484314,174.3310394c-0.9215012-0.5179443-1.20858-1.9068604-0.9102249-3.021347
		c0.3189621-1.1914215,1.1236954-2.0559082,2.1195984-1.4961548c1.0333557,0.5808105,1.1384659,1.9574127,0.8196793,3.1482239
		C70.7752991,174.0905151,70.0575638,174.8982391,69.0484314,174.3310394z"/>
</g>
</svg>
