<svg width="124" height="125" viewBox="0 0 124 125" fill="none" xmlns="http://www.w3.org/2000/svg">
<g clip-path="url(#clip0)">
<rect x="0.0241699" y="0.959961" width="123.766" height="123.766" fill="#351C14"/>
<g clip-path="url(#clip1)">
<path d="M139.261 0.959961H-15.447V124.726H139.261V0.959961Z" fill="#351C14"/>
<path d="M80.2966 93.0112V95.9326H80.8252V94.7156H80.8999L81.6915 95.9326H82.331C82.331 95.9326 81.5317 94.762 81.4517 94.6434C81.6343 94.6132 81.8 94.5185 81.9187 94.3766C82.0375 94.2346 82.1014 94.0549 82.0989 93.8698C82.0989 93.4573 81.8411 93.0112 81.1268 93.0112H80.2966ZM81.0701 93.4392C81.5188 93.4392 81.5858 93.6584 81.5858 93.8492C81.5858 94.1251 81.4672 94.3082 80.9025 94.3082H80.8381V93.4392H81.0701ZM83.1329 94.4706C83.1324 94.8615 83.016 95.2435 82.7985 95.5684C82.581 95.8932 82.2721 96.1463 81.9108 96.2957C81.5496 96.445 81.1521 96.484 80.7687 96.4076C80.3854 96.3312 80.0332 96.1429 79.7568 95.8665C79.4803 95.59 79.292 95.2379 79.2156 94.8545C79.1393 94.4711 79.1782 94.0737 79.3276 93.7124C79.4769 93.3511 79.73 93.0422 80.0549 92.8247C80.3797 92.6072 80.7617 92.4909 81.1526 92.4903C81.4132 92.4907 81.6712 92.5425 81.9116 92.6429C82.1521 92.7432 82.3704 92.8901 82.554 93.0751C82.7375 93.26 82.8827 93.4795 82.9811 93.7207C83.0796 93.962 83.1294 94.2203 83.1277 94.4809L83.1329 94.4706ZM81.1526 92.0649C80.6774 92.0649 80.2129 92.2058 79.8178 92.4697C79.4226 92.7337 79.1146 93.1088 78.9327 93.5478C78.7507 93.9868 78.703 94.4698 78.7955 94.9359C78.888 95.402 79.1166 95.8302 79.4524 96.1664C79.7883 96.5026 80.2162 96.7317 80.6822 96.8247C81.1482 96.9177 81.6313 96.8705 82.0705 96.689C82.5096 96.5075 82.8851 96.1999 83.1495 95.805C83.4139 95.4102 83.5552 94.9458 83.5558 94.4706C83.5523 93.8341 83.2971 93.2249 82.8458 92.776C82.3946 92.3272 81.784 92.0752 81.1475 92.0752L81.1526 92.0649ZM62.041 96.8789C60.2696 96.1054 45.8122 89.7933 41.1374 85.9591C36.1016 81.8335 33.4407 75.9031 33.4407 68.8252V35.1556C41.3875 30.9423 51.0103 28.8074 62.041 28.8074C73.0717 28.8074 82.6945 30.9423 90.6388 35.1556V68.8226C90.6388 75.9056 87.9804 81.831 82.9498 85.9565C78.3472 89.7288 63.7119 96.1466 62.041 96.8789Z" fill="#FCB415"/>
<path d="M36.0681 68.8226C36.0681 75.096 38.3887 80.3329 42.7953 83.9247C46.6888 87.0962 58.6632 92.5161 62.041 94.0065C65.3724 92.5368 77.321 87.1865 81.279 83.9247C85.7165 80.271 88.0113 75.1579 88.0113 68.8226V35.8621C71.3622 34.315 51.6549 35.2664 36.0681 49.564V68.8226ZM38.6079 66.8191V51.1782H43.5818V67.0409C43.5818 68.4513 43.9247 70.5424 46.2041 70.5424C47.0318 70.5778 47.8513 70.366 48.5582 69.9339V51.1782H53.5269V72.7651C51.6266 74.0543 49.0739 74.7634 46.0287 74.7634C41.1064 74.7634 38.6079 72.0921 38.6079 66.8191ZM61.056 84.8684H56.0796V52.4442C57.8845 51.2813 60.0736 50.6754 62.7836 50.6754C68.7141 50.6754 71.9862 55.1825 71.9862 62.4357C71.9862 69.689 68.8147 74.6783 63.2942 74.6783C62.5375 74.6922 61.7828 74.5966 61.0535 74.3947L61.056 84.8684ZM61.056 55.0381C61.6122 54.7959 62.2132 54.6738 62.8197 54.6797C65.7076 54.6797 66.904 56.9849 66.904 62.5595C66.904 67.9975 65.5348 70.625 62.6702 70.625C62.1184 70.6192 61.572 70.5162 61.056 70.3207V55.0381ZM73.1181 57.1705C73.0975 53.1481 76.5191 50.7811 79.7938 50.6857C82.5244 50.6006 84.3783 51.6294 85.2524 52.3024V56.629C84.221 55.5641 82.5347 54.5998 80.7942 54.5843C79.3864 54.5714 77.9166 55.1928 77.8676 56.9617C77.8212 58.7666 79.2858 59.4886 81.1423 60.5715C85.2988 63.0133 86.1007 65.2128 86.0079 68.1109C85.9125 71.2928 83.7182 74.7686 78.7882 74.7686C76.8605 74.7452 74.9734 74.2114 73.3192 73.2215V68.637C74.5904 69.7689 76.4882 70.6507 78.0765 70.6611C79.9021 70.6611 81.101 69.6297 81.0598 67.8892C81.0237 66.3267 80.1393 65.4783 77.9502 64.1943C73.8607 61.786 73.1259 59.8057 73.1181 57.1705Z" fill="#351C14"/>
</g>
</g>
<defs>
<clipPath id="clip0">
<rect width="123.766" height="123.766" fill="white" transform="translate(0.0241699 0.959961)"/>
</clipPath>
<clipPath id="clip1">
<rect width="154.708" height="123.766" fill="white" transform="translate(-15.447 0.959961)"/>
</clipPath>
</defs>
</svg>
