<svg width="124" height="124" viewBox="0 0 124 124" fill="none" xmlns="http://www.w3.org/2000/svg">
<rect width="124" height="124" transform="translate(0.000976562)" fill="white"/>
<path d="M102.858 71.3798C102.851 70.7884 103.021 70.2086 103.345 69.7139C103.669 69.2191 104.133 68.8319 104.678 68.6013C105.222 68.3708 105.823 68.3072 106.404 68.4188C106.985 68.5304 107.519 68.8121 107.94 69.2282C108.36 69.6442 108.647 70.1757 108.765 70.7553C108.883 71.3349 108.825 71.9364 108.601 72.4834C108.376 73.0304 107.993 73.4982 107.502 73.8275C107.011 74.1567 106.433 74.3325 105.841 74.3325C105.45 74.3405 105.061 74.2699 104.697 74.1247C104.334 73.9796 104.003 73.7629 103.725 73.4875C103.446 73.2121 103.226 72.8837 103.077 72.5216C102.928 72.1596 102.854 71.7713 102.858 71.3798V71.3798ZM105.857 71.0483C106.365 71.0483 106.509 70.7765 106.509 70.54C106.509 70.2549 106.365 70.0317 105.857 70.0317H105.209V71.0483H105.857ZM105.209 71.5058V73.1324H104.685V69.5565H105.985C106.745 69.5565 107.09 69.888 107.09 70.54C107.097 70.7203 107.038 70.8968 106.924 71.0367C106.81 71.1767 106.649 71.2703 106.471 71.3003V71.3157C106.769 71.3644 106.882 71.6362 106.946 72.1268C106.995 72.4429 107.057 72.9998 107.167 73.1258H106.548C106.405 72.7921 106.42 72.3169 106.31 71.9213C106.215 71.6185 106.056 71.5058 105.706 71.5058H105.209ZM108.252 71.3798C108.252 69.9521 107.24 68.9045 105.841 68.9045C104.442 68.9045 103.43 69.9521 103.43 71.3798C103.43 72.8076 104.444 73.8552 105.841 73.8552C107.238 73.8552 108.252 72.8098 108.252 71.3798Z" fill="#E86324"/>
<path d="M92.5204 73.8174L89.0815 69.9607L85.6735 73.8174H78.5039L85.5122 65.9406L78.5039 58.0659H85.8989L89.3754 61.8916L92.7193 58.0659H99.8514L92.8763 65.9096L99.9486 73.8174H92.5204Z" fill="#E86324"/>
<path d="M64.731 73.8176V49.0024H78.5044V54.5277H70.5657V58.0639H78.5044V63.3859H70.5657V68.2702H78.5044V73.8176H64.731Z" fill="#E86324"/>
<path d="M55.3931 70.0381C53.2515 70.0381 51.9188 68.049 51.9188 65.9582C51.9188 63.7326 53.0791 61.5888 55.3931 61.5888C57.7933 61.5888 58.7502 63.7326 58.7502 65.9582C58.7502 68.0711 57.7358 70.0381 55.3931 70.0381ZM34.7462 63.4586C35.1131 61.8828 36.3353 60.8528 37.8625 60.8528C39.5421 60.8528 40.7024 61.8518 41.0074 63.4586H34.7462ZM58.9182 49V59.1665H58.8563C57.57 57.688 55.9611 57.1774 54.098 57.1774C50.2767 57.1774 47.3991 59.7765 46.3891 63.2088C45.2376 59.4273 42.2672 57.1067 37.8625 57.1067C34.2843 57.1067 31.4531 58.7135 29.9856 61.3302V58.0659H22.5906V54.5297H30.6597V49.0044H16V73.8174H22.5906V63.3856H29.1612C28.9586 64.1875 28.8576 65.0117 28.8607 65.8389C28.8607 71.0172 32.8146 74.6484 37.8625 74.6484C42.1059 74.6484 44.9039 72.6593 46.3802 69.0236H40.7334C39.9687 70.1154 39.3896 70.4403 37.8602 70.4403C36.0922 70.4403 34.5605 68.8932 34.5605 67.061H46.0531C46.5504 71.1741 49.7551 74.7191 54.1488 74.7191C55.0774 74.7204 55.992 74.4921 56.811 74.0544C57.63 73.6168 58.3281 72.9834 58.8431 72.2106H58.905V73.8174H64.7153V49.0022L58.9182 49Z" fill="#412C91"/>
</svg>
