<svg width="124" height="125" viewBox="0 0 124 125" fill="none" xmlns="http://www.w3.org/2000/svg">
<g clip-path="url(#clip0)">
<rect x="0.0241699" y="0.617676" width="123.766" height="123.766" fill="#DB1F29"/>
<g clip-path="url(#clip1)">
<path d="M128.211 9.45801H-4.396V115.544H128.211V9.45801Z" fill="#DB1F29"/>
<path fill-rule="evenodd" clip-rule="evenodd" d="M50.2777 65.0159C52.3198 65.0159 53.3387 64.8811 53.3387 63.3163C53.3387 61.6852 52.3198 61.4819 50.2777 61.4819H42.6616V56.9932H50.0743C52.8635 56.9932 54.8349 57.1965 56.3312 58.2176C58.0308 59.3049 58.78 60.936 58.78 63.1815C58.78 67.1928 56.3997 69.3698 51.911 69.3698H48.4433V74.8774H42.6616V65.0159H50.2777Z" fill="white"/>
<path fill-rule="evenodd" clip-rule="evenodd" d="M68.7767 56.5156C74.5561 56.5156 78.0923 60.1203 78.0923 65.9683C78.0923 71.7499 74.5561 75.3524 68.7767 75.3524C62.9973 75.3524 59.3926 71.7499 59.3926 65.9683C59.3926 60.1203 62.9951 56.5156 68.7767 56.5156ZM68.7767 70.8659C71.2233 70.8659 72.2444 69.3011 72.2444 65.9683C72.2444 62.5691 71.2233 61.0044 68.7767 61.0044C66.3301 61.0044 65.2405 62.5691 65.2405 65.9683C65.2405 69.3011 66.3279 70.8659 68.7767 70.8659Z" fill="white"/>
<path fill-rule="evenodd" clip-rule="evenodd" d="M84.7556 68.9608C84.8926 70.5255 85.8452 71.0692 87.4077 71.0692C88.8377 71.0692 89.5847 70.5941 89.5847 69.7763C89.5847 68.6889 88.5636 68.6204 86.4574 68.0767C83.94 67.396 82.309 66.8523 81.5597 66.3086C80.132 65.3561 79.5198 63.9969 79.5198 62.2288C79.5198 58.7611 82.2405 56.5156 87.0011 56.5156C91.6931 56.5156 94.5486 58.6241 94.7519 62.5006H89.3128C89.2443 61.0729 88.3603 60.5977 86.9325 60.5977C85.7081 60.5977 85.0959 60.9359 85.0959 61.8199C85.0959 62.7039 86.0485 62.9095 87.7481 63.3847C89.9936 63.9284 91.7616 64.2687 92.9175 65.0157C94.4801 66.1053 95.2293 67.396 95.2293 69.2326C95.2293 73.1092 92.4402 75.3524 87.2044 75.3524C82.3753 75.3524 79.3165 73.1092 79.1794 68.9608H84.7556Z" fill="white"/>
<path fill-rule="evenodd" clip-rule="evenodd" d="M100.465 61.6852H95.2979V56.9932H111.277V61.6852H106.245V74.8774H100.465V61.6852Z" fill="white"/>
<path fill-rule="evenodd" clip-rule="evenodd" d="M20.3573 54.2725C18.0973 54.9499 16.116 56.338 14.7074 58.2308C13.2988 60.1235 12.5381 62.42 12.5381 64.7793C12.5381 67.1387 13.2988 69.4352 14.7074 71.3279C16.116 73.2206 18.0973 74.6088 20.3573 75.2862V54.2725Z" fill="white"/>
<path fill-rule="evenodd" clip-rule="evenodd" d="M23.5532 53.7974H22.8062V54.9533H23.2813C27.0208 54.9533 30.1504 58.012 30.1504 61.7538C30.1357 63.559 29.4165 65.2871 28.1462 66.5698C26.8759 67.8525 25.1548 68.5884 23.3498 68.6206V75.7615H23.5532C25.0053 75.7687 26.4445 75.4892 27.7883 74.939C29.1322 74.3887 30.3541 73.5785 31.3841 72.5549C32.4141 71.5313 33.2318 70.3144 33.7904 68.974C34.349 67.6337 34.6374 66.1962 34.6391 64.7441C34.6391 58.6928 29.673 53.7974 23.5532 53.7974Z" fill="white"/>
<path fill-rule="evenodd" clip-rule="evenodd" d="M43.6827 53.185L43.3424 54.4072H42.5269L44.1579 49.377H45.042L46.5382 54.4072H45.7227L45.3823 53.185H43.6827ZM44.5668 50.3273L43.8861 52.5043H45.179L44.5668 50.3273Z" fill="white"/>
<path fill-rule="evenodd" clip-rule="evenodd" d="M47.491 49.377V52.5728C47.491 53.1165 47.491 53.5253 47.7628 53.932C47.9191 54.1195 48.1181 54.2667 48.343 54.3613C48.568 54.4559 48.8124 54.4951 49.0557 54.4757C49.5994 54.4757 50.0061 54.3409 50.2116 54.1353C50.552 53.7972 50.6868 53.3198 50.6868 52.5043V49.377H49.9398V52.6413C49.9398 52.9794 49.9398 53.2513 49.8027 53.4568C49.6679 53.7287 49.4624 53.8635 49.0557 53.8635C48.914 53.875 48.7723 53.842 48.6503 53.7691C48.5283 53.6962 48.432 53.587 48.375 53.4568C48.238 53.2513 48.238 52.9794 48.238 52.5728V49.377H47.491Z" fill="white"/>
<path fill-rule="evenodd" clip-rule="evenodd" d="M51.9112 52.9135V53.0483C51.8974 53.4389 52.0175 53.8226 52.2516 54.1356C52.5861 54.3791 52.9944 54.4993 53.4075 54.476C53.9512 54.476 54.3593 54.3405 54.6319 54.0693C54.8754 53.7871 54.9978 53.4202 54.9722 53.0483C54.9722 52.4361 54.5634 52.1642 53.9512 51.7576L53.6793 51.552C53.0671 51.2117 52.7268 50.9398 52.7268 50.5332C52.7244 50.4436 52.7413 50.3547 52.7764 50.2723C52.8115 50.1899 52.8639 50.1161 52.9301 50.0558C53.0889 49.9373 53.2783 49.8668 53.476 49.8524C53.5651 49.8502 53.6537 49.8672 53.7357 49.9023C53.8177 49.9374 53.8912 49.9897 53.9512 50.0558C54.0242 50.139 54.0799 50.2361 54.1148 50.3413C54.1498 50.4464 54.1632 50.5575 54.1545 50.668V50.805H54.9037V50.5995C54.9037 50.1928 54.8352 49.8524 54.5634 49.6491C54.36 49.3773 53.9512 49.2402 53.476 49.2402C52.5919 49.2402 51.9797 49.7839 51.9797 50.5995C51.9797 51.3487 52.3201 51.6205 53.0671 52.0957L53.2704 52.2327C53.8826 52.5731 54.223 52.7764 54.223 53.1853C54.223 53.5942 53.8826 53.8638 53.4075 53.8638C53.2395 53.8602 53.0752 53.8138 52.9301 53.729C52.8523 53.6349 52.7942 53.5262 52.7593 53.4093C52.7244 53.2923 52.7133 53.1696 52.7268 53.0483V52.9135H51.9112Z" fill="white"/>
<path fill-rule="evenodd" clip-rule="evenodd" d="M57.4187 49.9869V54.4072H56.6717V49.9869H55.4473V49.377H58.6431V49.9869H57.4187Z" fill="white"/>
<path fill-rule="evenodd" clip-rule="evenodd" d="M61.7705 51.8236C62.2478 51.8921 62.3827 52.3009 62.3827 52.8446V53.3198C62.3851 53.6646 62.4311 54.0077 62.5197 54.3409V54.4072H61.7042C61.6451 54.0249 61.6221 53.6379 61.6356 53.2513V52.8446C61.6356 52.3009 61.4986 52.1639 61.092 52.1639H60.3427V54.4072H59.5957V49.377H60.9549C61.5671 49.377 61.976 49.4433 62.1793 49.7151C62.2939 49.831 62.3833 49.9694 62.4419 50.1216C62.5005 50.2737 62.527 50.4363 62.5197 50.5991C62.5403 50.8562 62.4788 51.1132 62.3442 51.3332C62.2096 51.5532 62.0087 51.7249 61.7705 51.8236ZM61.5671 50.124C61.4015 50.0304 61.2136 49.9838 61.0234 49.9892H60.3427V51.4832H60.7516C61.4323 51.4832 61.7705 51.2799 61.7705 50.6677C61.7763 50.4668 61.7033 50.2717 61.5671 50.124Z" fill="white"/>
<path fill-rule="evenodd" clip-rule="evenodd" d="M66.2593 53.185H64.5597L64.2193 54.4072H63.4038L65.0349 49.377H65.8526L67.4152 54.4072H66.5996L66.2593 53.185ZM65.4437 50.3273L64.763 52.5043H66.0559L65.4437 50.3273Z" fill="white"/>
<path fill-rule="evenodd" clip-rule="evenodd" d="M69.1831 53.7287V49.377H68.436V54.4072H70.8849V53.7287H69.1831Z" fill="white"/>
<path fill-rule="evenodd" clip-rule="evenodd" d="M71.7004 54.4072H72.4475V49.377H71.7004V54.4072Z" fill="white"/>
<path fill-rule="evenodd" clip-rule="evenodd" d="M76.324 53.185H74.6244L74.284 54.4072H73.4685L75.0311 49.377H75.9151L77.4799 54.4072H76.6643L76.324 53.185ZM75.4399 50.3273L74.8277 52.5043H76.1207L75.4399 50.3273Z" fill="white"/>
</g>
</g>
<defs>
<clipPath id="clip0">
<rect width="123.766" height="123.766" fill="white" transform="translate(0.0241699 0.617676)"/>
</clipPath>
<clipPath id="clip1">
<rect width="132.607" height="106.085" fill="white" transform="translate(-4.396 9.45801)"/>
</clipPath>
</defs>
</svg>
